<svg width="24" height="24" viewBox="0 0 24 24" fill="none" xmlns="http://www.w3.org/2000/svg">
<g clip-path="url(#clip0_3973_34349)">
<path d="M16.6163 4.17487C16.7512 4.23922 16.8835 4.31194 17.0192 4.37383C17.5048 4.52095 18.1263 4.75425 18.5678 5.02872C19.1972 5.40984 19.1058 5.52693 20.7281 8.47645C20.7758 8.55979 21.0784 9.1098 21.0784 9.1098C21.3917 9.62098 21.3525 9.53975 21.3566 10.0423C21.3527 10.0954 21.3693 10.148 21.3605 10.2011C21.3555 10.2284 21.3474 10.503 21.3467 10.513C21.3261 10.6652 21.3519 10.7801 21.4763 10.8126C21.7699 10.8923 22.5181 10.8367 22.5263 10.8377C22.7003 10.8829 22.1357 11.3267 21.4844 11.4109C21.4487 11.4204 21.2914 11.4019 21.256 11.5625C21.256 11.5625 21.151 12.4234 21.0231 13.0396C20.8206 13.9742 19.9689 16.0588 21.2051 18.4919C21.2156 18.5127 21.2277 18.5395 21.2159 18.5635C21.1622 18.6755 21.0596 18.703 20.9944 18.6458C20.9652 18.6251 20.9457 18.586 20.913 18.5735C20.8239 18.5714 20.8035 18.5436 20.6578 18.7563C20.6389 18.7827 20.6243 18.8146 20.6006 18.8354C20.5436 18.8477 20.5425 18.8205 20.5244 18.754C20.2507 17.6267 19.7252 17.3964 19.6013 15.2506C19.6033 14.3231 19.6413 14.7119 19.7729 13.424C19.8049 13.1213 19.8323 12.8177 19.844 12.5129C19.8748 12.2448 19.8617 11.1527 19.7108 10.9505C19.6217 10.8257 18.4006 10.342 17.948 10.3128C17.5548 10.3742 17.1391 10.1773 17.0442 10.1822C16.9464 10.1771 16.8082 10.3412 16.7642 10.3856C16.6577 10.4936 16.3602 10.8218 16.2591 10.9575C15.8865 11.4537 15.8124 11.0454 17.0118 16.1399C17.2895 17.3374 17.606 18.321 17.6162 18.3633C17.7538 18.7778 17.7127 18.737 18.608 20.2724C18.6446 20.3413 18.7239 20.4309 18.6327 20.4521C18.1243 20.5955 16.8214 20.7774 16.3807 20.4422C16.3239 20.4064 16.4064 20.2267 16.4335 19.6886C16.4362 19.6713 16.4695 19.3049 16.3978 19.1447C16.2023 18.7136 14.4629 15.3173 13.7537 13.8391C13.7289 13.7899 13.7066 13.7348 13.6651 13.7029C13.5126 13.6691 13.6001 13.837 12.7414 15.8726C12.0912 17.4194 11.6066 17.9541 11.5682 18.5863C11.5861 18.9875 11.7998 19.2135 12.0526 19.6502C12.3567 20.1948 12.1211 20.0543 11.946 20.0638C11.3965 20.0421 10.4303 19.9661 9.91186 19.7449C9.83481 19.7022 9.84511 19.7243 9.88067 19.4352C10.1136 17.9514 10.438 17.9497 10.8423 15.4601C10.9085 15.0506 10.9663 14.6387 11.0006 14.2235C10.996 14.1325 11.049 13.9476 10.9286 13.9033C10.7841 13.8733 9.41221 14.3743 8.36964 14.0815C8.27343 14.064 8.17013 13.9728 8.07232 14.1738C7.65667 15.0393 7.25113 15.2773 7.08212 15.4236C6.9526 15.538 6.98798 15.7589 6.97496 15.8337C6.95542 15.9631 6.91499 17.4743 7.08318 18.3733C7.13065 18.6259 7.12618 18.6514 7.27837 18.7934C7.74661 19.2 7.88397 19.6014 7.86661 19.6749C7.84664 19.7357 6.43363 20.3232 5.47435 19.7007C5.41101 19.6527 5.42901 19.7888 5.42721 18.5224C5.42686 18.4785 5.40331 16.926 5.37578 16.7988C5.36047 16.7246 5.30687 16.6885 5.2092 16.7816C5.03455 16.9551 4.75509 17.2647 4.70132 17.3316C4.2843 17.8339 4.36801 17.8254 4.1631 18.4975C4.12188 18.6016 4.06374 18.7992 3.9859 18.8556C3.91124 18.8603 2.90358 18.1169 2.57519 17.0588C2.56781 17.0325 2.55689 17.0061 2.55907 16.9778C2.55907 16.9778 3.78778 15.8516 4.32613 15.2335C4.44112 15.1215 4.72738 14.7555 4.73565 14.7461C4.92944 14.5091 4.79945 14.5567 4.45355 13.2194C4.16829 12.1155 4.00619 11.0297 3.97173 10.4432C3.9669 10.3971 3.95605 10.232 3.89469 10.2275C3.71242 10.1987 3.10962 12.3791 2.77963 14.1524C2.75073 14.3085 2.84691 14.4991 2.83739 14.8775C2.85218 15.5733 2.39416 15.8628 1.84282 15.6595C1.77 15.6259 1.8121 15.5689 1.76818 15.5372C1.73025 15.507 1.53592 15.4262 1.44706 15.147C1.43704 15.1198 1.45241 15.0811 1.47794 15.0801C1.57881 15.0738 1.74751 15.133 2.03025 14.8441C2.1818 14.6939 2.38872 14.3024 2.39308 14.1978C2.60581 11.4083 2.95463 10.2291 3.84733 8.15857C3.87294 8.09927 4.11617 7.5322 4.15738 7.47687C4.39629 7.1893 5.7463 5.72633 6.61948 5.21033C7.29289 4.79956 8.14202 4.8056 8.70841 5.06609C10.358 6.052 10.73 5.90718 11.6892 5.77041C11.9427 5.73325 13.3425 5.52557 13.4505 5.24424C13.6524 4.70762 14.0064 3.85471 14.3824 3.48434C14.5348 3.32787 14.5419 3.1572 16.6162 4.17476L16.6163 4.17487Z" fill="#75B37A"/>
<g clip-path="url(#clip1_3973_34349)">
<path fill-rule="evenodd" clip-rule="evenodd" d="M17.502 11.3484L17.4692 11.386L17.4396 11.4131L17.4124 11.4372L17.378 11.4614L17.358 11.471L17.3332 11.4807L17.3052 11.4865L17.2756 11.4894L17.2228 11.4932L17.1708 11.4971L17.1156 11.499L17.1556 11.7095L17.1604 11.7317L17.1556 11.7597L17.1468 11.781L17.1292 11.8099L17.1116 11.8244L16.9948 11.9055L16.9788 11.9084L16.9612 11.9161L16.9396 11.9191H16.9164L16.938 11.9403L16.9644 11.9615L17.01 11.9886L17.0788 12.0349L17.0916 12.0446L17.1684 12.1295L17.1804 12.1479L17.2164 12.2194L17.2324 12.285L17.2396 12.3043V12.3391L17.2324 12.3613L17.2188 12.3748L17.2036 12.3796L17.1764 12.3738L17.09 12.3401L17.0388 12.3169L17.0252 12.3024L17.01 12.2753L16.986 12.201L16.9708 12.1913L16.9404 12.1546L16.6691 12.0233L16.658 12.0127L16.6523 11.9963L16.6419 11.9509L16.5995 11.7404L16.8156 11.7675H16.8675L16.9164 11.7568L16.966 11.7337L16.9748 11.725L16.9812 11.7066L16.9772 11.6883L16.9676 11.6641L16.9484 11.6274L16.9179 11.5791L16.8972 11.6043L16.9468 11.6641L16.9508 11.6776L16.9484 11.696L16.9412 11.7095L16.9212 11.725L16.8828 11.7423L16.8156 11.7675L16.598 11.7395L16.4068 11.7375L16.4548 11.7703L16.5028 11.7897L16.5388 11.7878L16.5668 11.7675L16.5996 11.7414L16.642 11.9509L16.5812 11.978L16.534 11.9857L16.502 11.9837L16.4652 11.9741L16.4324 11.9596L16.3868 11.9239L16.3412 11.8862L16.1948 11.8138L16.1844 11.8032L16.1812 11.7897L16.186 11.7665L16.1956 11.7472L16.218 11.7279L16.2483 11.7192L16.2348 11.6931V11.6729L16.2412 11.6535L16.2948 11.5155L16.2987 11.4894L16.2964 11.4594L16.2884 11.4353L16.2756 11.4112L16.2556 11.3919L16.226 11.3764L15.9419 11.2837L15.9091 11.2663L15.8691 11.2383L15.8419 11.2103L15.8043 11.1553L15.7595 11.1398L15.7179 11.134L15.6651 11.135L15.6131 11.1437L15.4035 11.2103L15.1659 11.2663L15.0539 11.2828L14.9563 11.2943L14.8747 11.3001L14.8099 11.2943L14.7579 11.2866L14.7235 11.2818L14.6867 11.2712L14.6579 11.2586L14.6275 11.2432L14.4931 11.1572L14.4683 11.1466L14.4395 11.1427L14.4099 11.1515L14.3435 11.2007L14.3011 11.221L14.2763 11.2248L14.2555 11.221L14.2403 11.2104L14.2211 11.1823L14.2131 11.1553L14.2115 11.1224L14.2195 11.0877L14.2323 11.0635L14.2507 11.0375L14.2811 11.0114L14.3475 10.9747L14.3875 10.9583L14.4147 10.9515L14.4443 10.9486L14.4819 10.9602L14.5355 10.9921L14.5971 11.0249L14.6243 11.0394L14.6659 11.0548L14.7083 11.0693L14.7659 11.0799L14.8203 11.0877L14.9011 11.0799L15.0195 11.0616L15.2579 11.0075L15.6268 10.8955L15.6748 10.8849L15.71 10.8791L15.75 10.8772L15.8236 10.7845L15.8788 10.7169L15.9348 10.6474L15.9972 10.5807L16.0164 10.5634L16.0252 10.5546L16.0364 10.5489L16.05 10.5431L16.2108 10.4871L16.2804 10.4687L16.3244 10.4552L16.3828 10.4436L16.4388 10.4339L16.5004 10.4272L16.5764 10.4224H16.6556L16.722 10.432L16.7732 10.4417L16.8284 10.4591L16.8892 10.4842L17.0332 10.5614L17.1092 10.5894L17.246 10.5981L17.2676 10.601L17.2892 10.6068L17.3556 10.6261L17.3756 10.6319L17.398 10.6338L17.4164 10.6319L17.4316 10.6261L17.5004 10.5942L17.5692 10.5546L17.6236 10.5228L17.6764 10.4987L17.7364 10.4774L17.7164 10.5199L17.702 10.5585L17.6068 10.656L17.5772 10.7111L17.5548 10.7835L17.5404 10.8646L17.5372 10.9863L17.5428 11.0983V11.1678L17.5316 11.2586L17.5228 11.3001L17.502 11.3484Z" fill="#86BC8B"/>
<path fill-rule="evenodd" clip-rule="evenodd" d="M17.8781 10.3676L17.8837 10.3791L17.8877 10.3927L17.9069 10.3859L17.9205 10.3811L17.9348 10.3859L17.9436 10.3917L17.9516 10.4042L17.9556 10.4226L17.9652 10.438L17.9957 10.4535L18.018 10.4747L18.0732 10.5269L18.0924 10.5481L18.1044 10.5674L18.1116 10.5838L18.1181 10.6022L18.1196 10.6302L18.1236 10.6534L18.1732 10.7094L18.1876 10.7306L18.198 10.7499L18.2052 10.7634L18.2092 10.7769L18.2116 10.7885L18.2052 10.7982L18.1573 10.8716L18.1492 10.8774L18.1396 10.8793L18.1052 10.8735L18.0988 10.8822L18.0964 10.8957L18.1084 10.9092L18.1124 10.9208V10.9353L18.1084 10.9508L18.1004 10.9624L18.09 10.9701L18.0772 10.974L18.066 10.972L18.05 10.9662L17.9988 10.943L17.9644 10.9344L17.9396 10.9305L17.8972 10.9295L17.8788 10.9305L17.8604 10.9363L17.8372 10.9459L17.814 10.9566L17.79 10.972L17.7524 11.0039L17.7116 11.0454L17.6572 11.1159L17.6012 11.1922L17.5012 11.3495L17.5204 11.2656L17.5316 11.1362L17.5204 11.0106L17.5148 10.8919L17.5316 10.7982L17.5572 10.6939L17.5916 10.6389L17.6524 10.5858L17.682 10.5336L17.7164 10.4921L17.742 10.4738L17.7508 10.4535L17.7604 10.438L17.7828 10.412L17.806 10.3839L17.8252 10.3656L17.8452 10.356L17.8636 10.3579L17.8781 10.3676Z" fill="#86BC8B"/>
<path fill-rule="evenodd" clip-rule="evenodd" d="M17.0364 10.6098L17.014 10.5915L16.9508 10.5394L16.91 10.5104L16.8772 10.4911L16.8364 10.4737L16.7916 10.4592L16.7268 10.4476L16.6628 10.4389L16.5932 10.4341L16.4748 10.4438L16.3356 10.4756L16.3284 10.4998L16.3156 10.5229L16.302 10.5355L16.282 10.5413L16.2668 10.5394L16.2572 10.5297L16.2548 10.5113L16.2564 10.4969L16.1364 10.5335L16.1316 10.5567L16.122 10.5712L16.106 10.5818H16.09L16.0828 10.5712L16.0812 10.5587L16.0188 10.5896L16.0364 10.5983L16.0484 10.6089L16.0532 10.6253V10.6446L16.046 10.6572L16.03 10.6659L16.0124 10.6639L15.9916 10.6504L15.9828 10.6436L15.9668 10.6755L15.9556 10.6793L15.9436 10.6755L15.9172 10.6967L15.9068 10.717L15.8436 10.8242L15.8276 10.8715V10.913L15.8356 10.9478L15.8524 10.997L15.878 11.0289L15.9044 11.0444L15.9436 11.054H15.9572L15.9828 11.0444L16.0188 11.0685L16.0428 11.1004L16.0796 11.1129L16.1244 11.11L16.1036 11.139L16.0932 11.1602L16.0964 11.1815L16.106 11.1892H16.1172L16.1348 11.1863L16.2396 11.1274L16.2348 11.1699L16.2268 11.1892L16.218 11.2018L16.2268 11.2172H16.2492L16.2732 11.2268L16.2884 11.2491L16.2924 11.2867L16.3228 11.3022L16.3468 11.3137L16.39 11.3639L16.4012 11.39L16.4052 11.4064L16.3916 11.4248L16.362 11.4316H16.3316L16.3396 11.4538L16.3756 11.4789L16.3804 11.4953L16.3724 11.5107L16.362 11.5204L16.3356 11.5378L16.2876 11.6112L16.258 11.6556L16.2556 11.672L16.2612 11.6855L16.2692 11.6961L16.2852 11.7019L16.3092 11.7009L16.4524 11.6787L16.6068 11.6729L16.5556 11.6913L16.5588 11.7009L16.5756 11.7067L16.6764 11.6855L16.7044 11.6836L16.7324 11.6903L16.798 11.7222L16.8196 11.7318L16.8268 11.7222L16.8308 11.7116L16.8172 11.6817L16.8092 11.6701L16.798 11.6585H16.8156L16.8556 11.7126L16.8748 11.7212L16.894 11.7222L16.9124 11.7116L16.914 11.6961L16.9124 11.6855L16.8812 11.6382L16.906 11.6575L16.9172 11.6681L16.9236 11.6778L16.926 11.6913L16.9356 11.6778L16.938 11.6691L16.934 11.6556L16.9236 11.6421L16.894 11.6063L16.8068 11.5532L16.7876 11.5455L16.7708 11.5368H16.7476L16.73 11.5416L16.5932 11.5793L16.5708 11.5832L16.546 11.5813L16.5236 11.5745L16.4996 11.5407L16.4884 11.5252L16.4668 11.5146L16.4452 11.5117L16.4228 11.5011V11.4857L16.45 11.477H16.47L16.486 11.4808L16.506 11.4905L16.4964 11.4634L16.486 11.4451L16.4716 11.4267L16.4524 11.4151L16.4316 11.4064L16.45 11.3949L16.4636 11.3939L16.4748 11.3968L16.4828 11.4045L16.4996 11.2664L16.502 11.2375L16.5004 11.2075L16.4932 11.1911L16.4844 11.1699L16.4684 11.1641L16.4524 11.1651L16.4364 11.1699L16.4452 11.139L16.4572 11.1197L16.4796 11.1091L16.5004 11.1023L16.5188 11.1071L16.546 11.0511L16.5628 11.0106L16.5756 10.97L16.578 10.9497L16.5796 10.9236L16.5748 10.8918L16.57 10.8744L16.5452 10.7614L16.5188 10.6649L16.5052 10.6494L16.4932 10.6369L16.462 10.6205L16.4316 10.6089L16.366 10.5963L16.3908 10.5866L16.4284 10.5779H16.4636L16.522 10.5818L16.63 10.6002L16.7452 10.6272L16.7788 10.6349L16.8108 10.6426L16.8476 10.6552L16.9004 10.6851L16.9388 10.7102L16.9532 10.7131L16.974 10.7044L17.0196 10.6812L17.0316 10.6668L17.0516 10.6475L17.0772 10.6282L17.0652 10.6253L17.0364 10.6098Z" fill="#86BC8B"/>
<path fill-rule="evenodd" clip-rule="evenodd" d="M17.9925 10.4661L18.0821 10.5415L18.0941 10.5579L18.0997 10.5685L18.1053 10.5791L18.1101 10.5897L18.1117 10.6023L18.1197 10.6573L18.1613 10.7046L18.1861 10.7385L18.2021 10.7664L18.2069 10.7742L18.2061 10.7829H18.1957L18.1749 10.78L18.1413 10.7684L18.1541 10.7829L18.1613 10.7973V10.8147L18.1645 10.8244L18.1725 10.8408L18.1597 10.8611L18.1509 10.8717L18.1349 10.8736L18.1205 10.8698L18.1069 10.8601L18.0989 10.8456L18.0941 10.8225L18.0909 10.8051L18.0925 10.7906L18.0941 10.7771L18.1077 10.7471L18.1397 10.7636L18.1093 10.7356L18.0989 10.724L18.0909 10.7076L18.0805 10.6767L18.0748 10.6593L18.0829 10.6641H18.0924L18.0845 10.6564L18.0772 10.6477L18.0693 10.638L18.0636 10.6235L18.0613 10.6081L18.0541 10.6062L18.046 10.5897L18.0404 10.5781L18.046 10.554L18.0404 10.5502L18.0292 10.5588L18.0253 10.5733L18.0268 10.5849L18.0372 10.5975L18.034 10.6023L18.0301 10.6091L17.99 10.6264L17.9709 10.6477L17.9548 10.6641L17.9341 10.6786L17.9172 10.6844L17.886 10.6911L17.9108 10.6902H17.9269L17.9373 10.6844L17.9517 10.6795L17.9764 10.6563L17.9861 10.6506L18.0004 10.6535L18.0141 10.6631L18.0373 10.6689H18.0557L18.0741 10.7046L18.0836 10.7336L18.0829 10.7549L18.0772 10.7722L18.0725 10.7809L18.0708 10.7973L18.0741 10.8138L18.0789 10.8321L18.0836 10.8466L18.0253 10.8244L18.0116 10.8225L17.9964 10.8244L17.8748 10.891L17.8308 10.8524L17.8196 10.7636L17.8452 10.7075L17.8044 10.6767L17.8276 10.6805L17.8324 10.6612L17.8244 10.6322L17.8204 10.6226L17.8244 10.5897L17.8308 10.5685L17.846 10.5405H17.8324L17.862 10.5115L17.8484 10.5029L17.8788 10.4941L17.9237 10.4584L17.9349 10.4536L17.9517 10.4517L17.9756 10.4555L17.9925 10.4661Z" fill="#86BC8B"/>
<path fill-rule="evenodd" clip-rule="evenodd" d="M17.8452 10.7043L17.8492 10.7217L17.8412 10.7429L17.8324 10.7748L17.8284 10.797L17.8332 10.8182L17.846 10.8462L17.8604 10.8685L17.8668 10.852L17.8788 10.8405L17.8724 10.8655L17.8844 10.852L17.8988 10.8443L17.9156 10.8405H17.934L17.9508 10.8443L17.9684 10.8356L17.9948 10.824L18.0036 10.823L17.9796 10.8375L17.9708 10.8453L17.966 10.854L17.9644 10.8607V10.8694L17.974 10.8752L17.9812 10.8771L18.0044 10.8887L18.0268 10.9071L18.0508 10.9167L18.0676 10.9264L18.086 10.9283L18.0964 10.9254L18.102 10.9186L18.1004 10.909L18.1084 10.9167V10.9254L18.1068 10.9418L18.0988 10.9544L18.0884 10.9621L18.0716 10.964L18.0532 10.9621L18.0316 10.9525L18.0004 10.9341L17.9708 10.9264L17.9436 10.9206L17.8772 10.9003L17.8628 10.8916L17.85 10.88L17.8212 10.8462L17.8172 10.8356L17.8092 10.8173L17.8044 10.797L17.802 10.769L17.8044 10.7458L17.8124 10.7255L17.8172 10.7197L17.818 10.712L17.8148 10.7023H17.7996L17.782 10.7101L17.7692 10.7188L17.7588 10.7333L17.746 10.7584L17.7396 10.7767V10.797L17.7428 10.8143L17.7508 10.852L17.7556 10.8704L17.758 10.8926L17.7596 10.9138L17.7532 10.9486L17.746 10.9698L17.7388 10.9911L17.726 11.0113L17.7044 11.0374L17.6556 11.0915L17.6588 11.0654L17.6428 11.0374L17.6212 11.0191L17.6076 10.9997L17.5996 10.9785L17.5972 10.9553L17.6044 10.908L17.6284 10.8433L17.6628 10.7815L17.6932 10.7419L17.7204 10.7149L17.742 10.6965L17.7628 10.684L17.7804 10.6792L17.8044 10.6763L17.8276 10.6801L17.8388 10.6936L17.8452 10.7043Z" fill="#86BC8B"/>
<path fill-rule="evenodd" clip-rule="evenodd" d="M16.65 11.1275V11.1072H16.6413L16.6373 11.0918L16.6405 11.0763L16.6453 11.0657L16.6373 11.0503H16.6237L16.6277 11.0252L16.6285 10.9943L16.6277 10.9643L16.6237 10.9305L16.6157 10.9074L16.6125 10.8967L16.6493 10.8629L16.6101 10.86L16.6453 10.8446L16.6541 10.832L16.6493 10.8127L16.6413 10.8021L16.6221 10.7886L16.6029 10.7799L16.5845 10.776L16.6196 10.75L16.5973 10.7432L16.6156 10.7229L16.5709 10.692L16.5628 10.6862L16.5364 10.6437L16.5373 10.6302L16.5452 10.6225L16.5637 10.6177L16.578 10.6254L16.5892 10.6437L16.6044 10.6563L16.626 10.6534L16.6372 10.6495L16.6692 10.6225L16.7157 10.6283L16.7444 10.636L16.7644 10.6408L16.8093 10.6553L16.7893 10.6611L16.7876 10.666L16.7829 10.6766L16.7644 10.6881L16.7565 10.6959L16.7549 10.7075L16.7589 10.7287L16.7813 10.7384L16.8013 10.7345L16.8148 10.72L16.8212 10.7026L16.8269 10.693H16.8333L16.8317 10.6795L16.8405 10.6737H16.8509L16.8789 10.6814L16.8941 10.6901L16.9173 10.7104L16.9365 10.7326L16.9173 10.7509L16.9005 10.7683L16.8773 10.8021L16.8597 10.8388L16.8389 10.8861L16.8269 10.9045L16.8157 10.918L16.7965 10.9344L16.7028 10.9807L16.6861 10.9885L16.6764 10.9962L16.6709 11.0058V11.0242L16.6764 11.0454L16.6997 11.1275L16.6676 11.1072L16.6628 11.1275L16.6548 11.1343L16.65 11.1275Z" fill="#86BC8B"/>
<path fill-rule="evenodd" clip-rule="evenodd" d="M17.4485 10.8919L17.4613 10.86H17.4733L17.4861 10.8523L17.4957 10.8397L17.4973 10.8223L17.4845 10.8127L17.4717 10.8165L17.4637 10.8301L17.4581 10.8387L17.4533 10.805L17.4357 10.7547L17.4317 10.7325L17.4285 10.7142L17.4381 10.72L17.4493 10.7171L17.4556 10.7123L17.4581 10.6978L17.4533 10.691L17.4421 10.69L17.4317 10.6958L17.4237 10.692L17.4197 10.6833L17.4205 10.6727L17.4253 10.664L17.4341 10.6572L17.4461 10.6534L17.4581 10.6572L17.4701 10.6591L17.4845 10.6659L17.4997 10.6678L17.5125 10.664L17.5189 10.6514L17.5157 10.6398L17.5029 10.6118L17.5237 10.6022L17.5461 10.5896L17.5733 10.5742L17.5805 10.5809V10.5944L17.5821 10.607L17.5901 10.6128L17.6077 10.6099L17.6189 10.5983L17.6237 10.5877L17.6253 10.579L17.6205 10.5558L17.6397 10.5404L17.6589 10.5326L17.6725 10.5278L17.6893 10.5307L17.7013 10.5423L17.7085 10.5529L17.7069 10.5665L17.6965 10.5819L17.6413 10.6273L17.6717 10.6224L17.6965 10.6253L17.7189 10.6273L17.7277 10.6321L17.7325 10.6398V10.6562L17.7261 10.6756L17.6837 10.721L17.6725 10.7354L17.6525 10.7673L17.6293 10.8069L17.6053 10.8494L17.5797 10.9093L17.5717 10.9334L17.5653 10.9653L17.5621 11.001L17.5661 11.0338L17.5797 11.1178L17.5781 11.1516L17.5741 11.1864L17.5676 11.2202L17.5501 11.2627L17.5372 11.2916L17.5141 11.3225L17.4901 11.3563L17.4676 11.3785L17.4389 11.4036L17.414 11.4239L17.3908 11.4365L17.3644 11.45L17.41 11.4143L17.4284 11.3911L17.4396 11.3698L17.4268 11.3602L17.39 11.3515L17.3996 11.3399L17.382 11.3361V11.3215L17.3788 11.307L17.3676 11.3022L17.3524 11.2964L17.3364 11.2945L17.3252 11.2848L17.3172 11.2791L17.3004 11.2771L17.3348 11.2607L17.35 11.2665L17.37 11.2733L17.3876 11.2665L17.4036 11.2549L17.4084 11.2385L17.4068 11.2202L17.4012 11.2115L17.4388 11.1603L17.4492 11.1361L17.458 11.1139L17.4676 11.0763L17.4724 11.0415L17.4732 11.0193L17.47 10.9913L17.4484 10.9121V10.8919L17.4485 10.8919Z" fill="#86BC8B"/>
<path fill-rule="evenodd" clip-rule="evenodd" d="M17.0444 10.6533L17.0188 10.6717L16.9932 10.6997L16.9716 10.7229L16.9916 10.7238L16.9956 10.7354L16.9916 10.747L16.9508 10.7808L16.9268 10.8088L16.8812 10.8774L16.9164 10.8542L16.9436 10.8407L16.9852 10.8281L16.942 10.8542L16.9236 10.8735L16.886 10.9333L16.8508 10.9643L16.8212 10.9729H16.8116L16.7812 10.9758L16.7284 10.9913L16.7172 11.0019L16.71 11.0251L16.7108 11.0753L16.7284 11.1496L16.7588 11.2491L16.8196 11.365L16.8684 11.4374L16.9244 11.5533L16.9404 11.5755L16.9668 11.5851L17.0252 11.5793L17.0036 11.6218L17.0428 11.6431L17.0252 11.6643L17.05 11.6682L17.074 11.6779L17.0988 11.7165L17.1068 11.758L17.0604 11.7319L17.038 11.7425L17.0084 11.7754L16.9684 11.8063L16.8996 11.7966L16.8788 11.7986L16.8636 11.8063L16.8372 11.8323L16.8068 11.843L16.7972 11.8555L16.794 11.8903L16.7972 11.8999L16.8068 11.9115L16.8164 11.9192L16.9436 11.9125L16.9612 11.9086L17.0428 11.868L17.0948 11.8333L17.1149 11.8169L17.13 11.8005L17.1412 11.7821L17.1453 11.7647L17.1476 11.7329L17.1453 11.701L17.0908 11.4905L17.0148 11.2964L16.9964 11.2877L16.982 11.2848H16.9748L16.9468 11.2877L16.9684 11.2675L16.9812 11.2665L16.9988 11.2704L16.9772 11.2231L16.9612 11.2037L16.9348 11.1854L16.91 11.1738L16.8836 11.1786L16.8636 11.1912L16.8196 11.1555L16.7812 11.1439L16.7852 11.112L16.8004 11.0927L16.822 11.0917L16.8444 11.0888L16.87 11.0994L16.914 11.1332L16.8469 11.0232H16.8621L16.8821 11.0338L16.9204 11.0801L16.9596 11.1439L16.9805 11.1786L16.9996 11.1854L17.0604 11.1863L17.0804 11.195L17.1044 11.2172L17.1437 11.2646L17.1693 11.2791L17.2261 11.281L17.2637 11.2752L17.2949 11.2626L17.3573 11.2279L17.4052 11.1912L17.4245 11.168L17.4365 11.1448L17.4493 11.1187L17.4556 11.0888L17.4573 11.0666L17.4605 11.0454L17.4573 11.0183L17.4516 10.9787L17.4428 10.9382L17.4349 10.9092L17.3876 10.8088L17.3676 10.7682L17.3524 10.7229L17.346 10.6939L17.35 10.6562L17.2925 10.6302L17.2604 10.6176L17.2364 10.6118H17.2132L17.1692 10.6167L17.1124 10.6224L17.0892 10.6273L17.0636 10.6408L17.0444 10.6533Z" fill="#86BC8B"/>
<path fill-rule="evenodd" clip-rule="evenodd" d="M17.8661 10.4797L17.87 10.4595L17.8741 10.4382V10.4228L17.8716 10.4073L17.8668 10.4006L17.8589 10.3928H17.8484L17.838 10.4006L17.8308 10.4092L17.8196 10.4266L17.7972 10.4604L17.8124 10.4179L17.7748 10.4479L17.7972 10.4209L17.814 10.3986L17.8308 10.3812L17.8444 10.3735L17.8556 10.3726L17.866 10.3735L17.8756 10.3812L17.8812 10.3928L17.886 10.4112L17.8876 10.4276L17.8948 10.4479L17.8844 10.4662L17.8661 10.4797Z" fill="#86BC8B"/>
<path fill-rule="evenodd" clip-rule="evenodd" d="M16.7292 10.4852L16.7196 10.4987L16.7092 10.5045L16.694 10.5074H16.6756L16.6636 10.4987L16.6596 10.4852L16.6676 10.4746L16.6788 10.4707H16.7004L16.7156 10.4775L16.7292 10.4852Z" fill="#86BC8B"/>
<path fill-rule="evenodd" clip-rule="evenodd" d="M17.97 10.4688H17.982L17.9924 10.4726L17.9956 10.4823L17.9892 10.4861H17.9836L17.9772 10.4823L17.97 10.4688Z" fill="#86BC8B"/>
<path fill-rule="evenodd" clip-rule="evenodd" d="M16.5668 10.5075L16.5532 10.5026L16.55 10.493L16.5564 10.4785L16.5692 10.4775L16.5812 10.4804L16.5965 10.4891L16.5932 10.5017L16.5828 10.5036L16.5668 10.5075Z" fill="#86BC8B"/>
<path fill-rule="evenodd" clip-rule="evenodd" d="M17.8204 10.5609L17.802 10.584L17.7924 10.5879L17.7884 10.5898L17.7804 10.584L17.7764 10.5667L17.7748 10.5512L17.7756 10.5377L17.778 10.5213L17.7836 10.502L17.7924 10.4865L17.8068 10.4604L17.7996 10.4952L17.7948 10.5155L17.7932 10.5338L17.7972 10.5512V10.558L17.8036 10.5628L17.8204 10.5609Z" fill="#86BC8B"/>
<path fill-rule="evenodd" clip-rule="evenodd" d="M16.4292 10.4853L16.43 10.4988L16.4236 10.5133L16.4084 10.5317L16.3876 10.5394H16.3748L16.3684 10.5326L16.366 10.5211L16.3764 10.5046L16.4172 10.4824L16.4292 10.4853Z" fill="#86BC8B"/>
<path fill-rule="evenodd" clip-rule="evenodd" d="M16.5076 10.5319L16.5044 10.5455L16.4956 10.558L16.4828 10.5696L16.4708 10.5667L16.4604 10.5522V10.5377L16.462 10.529L16.4724 10.5136L16.482 10.5049H16.4972L16.506 10.5136L16.5076 10.5319Z" fill="#86BC8B"/>
<path fill-rule="evenodd" clip-rule="evenodd" d="M16.7908 10.5607L16.7764 10.5722L16.7532 10.5665L16.7404 10.5568L16.7364 10.551V10.5326L16.7476 10.5278H16.766L16.7836 10.5413L16.7908 10.5607Z" fill="#86BC8B"/>
<path fill-rule="evenodd" clip-rule="evenodd" d="M16.658 10.5549L16.6436 10.5617H16.61L16.6076 10.5568L16.6116 10.5404L16.6292 10.5327L16.6524 10.5414L16.658 10.5549Z" fill="#86BC8B"/>
<path fill-rule="evenodd" clip-rule="evenodd" d="M16.214 10.5788L16.1996 10.5875L16.1764 10.5691L16.1844 10.5508H16.2076L16.214 10.5604V10.5788Z" fill="#86BC8B"/>
<path fill-rule="evenodd" clip-rule="evenodd" d="M16.8132 10.5791L16.8148 10.5637L16.826 10.5511L16.8444 10.5415L16.8532 10.5492V10.5666L16.8444 10.5743L16.8172 10.584L16.8132 10.5791Z" fill="#86BC8B"/>
<path fill-rule="evenodd" clip-rule="evenodd" d="M17.6412 10.58L17.6484 10.5732L17.6564 10.5742L17.6612 10.58L17.6588 10.5878L17.6516 10.5974L17.6444 10.6003L17.6364 10.5964L17.6356 10.5878L17.6412 10.58Z" fill="#86BC8B"/>
<path fill-rule="evenodd" clip-rule="evenodd" d="M16.93 10.6534L16.9212 10.6495L16.9132 10.6389L16.9148 10.6273L16.922 10.6177L16.9292 10.6147L16.9516 10.6254L16.9596 10.6427L16.9436 10.6524L16.93 10.6534Z" fill="#86BC8B"/>
<path fill-rule="evenodd" clip-rule="evenodd" d="M17.5524 10.6333H17.5612L17.5748 10.6439L17.5796 10.6661L17.5692 10.6787L17.5612 10.6845L17.5524 10.6777L17.5356 10.6603L17.5388 10.643L17.5524 10.6333Z" fill="#86BC8B"/>
<path fill-rule="evenodd" clip-rule="evenodd" d="M16.2756 10.7084V10.6959L16.282 10.6833L16.3108 10.664L16.322 10.6611L16.3212 10.6882L16.3052 10.7007L16.29 10.7123L16.282 10.7162L16.2756 10.7084Z" fill="#86BC8B"/>
<path fill-rule="evenodd" clip-rule="evenodd" d="M17.1756 10.7085L17.1484 10.7047L17.1212 10.6999L17.1076 10.6941L17.1124 10.6815L17.1292 10.6709H17.1444L17.1596 10.6806L17.1756 10.7085Z" fill="#86BC8B"/>
<path fill-rule="evenodd" clip-rule="evenodd" d="M17.6148 10.6766L17.6316 10.6679L17.6452 10.665L17.654 10.6679L17.6596 10.6747L17.6588 10.6834L17.6524 10.6901L17.602 10.7095L17.5972 10.7075L17.6052 10.6901L17.6148 10.6766Z" fill="#86BC8B"/>
<path fill-rule="evenodd" clip-rule="evenodd" d="M17.0212 10.6641L17.0308 10.666L17.0596 10.6805V10.6901L17.0516 10.6998H17.0292L17.0156 10.6901L17.0132 10.6756L17.0212 10.6641Z" fill="#86BC8B"/>
<path fill-rule="evenodd" clip-rule="evenodd" d="M16.13 10.69L16.1228 10.7267L16.0916 10.7547H16.0684L16.0612 10.746L16.0636 10.7286L16.0756 10.7131L16.0916 10.7015L16.1076 10.6899H16.13L16.13 10.69Z" fill="#86BC8B"/>
<path fill-rule="evenodd" clip-rule="evenodd" d="M16.7268 10.6919V10.7006L16.7228 10.7083L16.67 10.7296L16.6596 10.7267L16.6532 10.717L16.6564 10.7045L16.6684 10.6958L16.7268 10.6919Z" fill="#86BC8B"/>
<path fill-rule="evenodd" clip-rule="evenodd" d="M15.994 10.7432L15.9852 10.7548L15.9692 10.7557L15.9588 10.7509L15.954 10.7461V10.7268L15.962 10.7084L15.9764 10.7026L15.9916 10.7084L15.9956 10.7268L15.994 10.7432Z" fill="#86BC8B"/>
<path fill-rule="evenodd" clip-rule="evenodd" d="M16.23 10.7124L16.2372 10.7307L16.214 10.7674H16.1996V10.75L16.214 10.7124H16.23Z" fill="#86BC8B"/>
<path fill-rule="evenodd" clip-rule="evenodd" d="M17.2708 10.7142L17.2364 10.7354L17.2204 10.7403L17.2052 10.7325L17.1956 10.7258L17.1917 10.7171L17.1924 10.7084L17.202 10.7007L17.2284 10.7084L17.2444 10.7171L17.2708 10.7142Z" fill="#86BC8B"/>
<path fill-rule="evenodd" clip-rule="evenodd" d="M17.542 10.7256L17.5476 10.7391L17.5428 10.7507L17.5268 10.7633L17.5092 10.7671H17.498L17.4908 10.7584V10.7507L17.4948 10.7391L17.5076 10.7343L17.5236 10.7285L17.542 10.7256Z" fill="#86BC8B"/>
<path fill-rule="evenodd" clip-rule="evenodd" d="M17.9356 10.773L17.9044 10.7537L17.8964 10.7479L17.8972 10.7353L17.9068 10.7324L17.9164 10.7382L17.9356 10.773Z" fill="#86BC8B"/>
<path fill-rule="evenodd" clip-rule="evenodd" d="M16.3908 10.7634L16.3732 10.7759L16.358 10.7846L16.3092 10.7923L16.3012 10.7894L16.2988 10.773L16.3156 10.7508L16.3388 10.7402L16.3628 10.7383L16.3796 10.745L16.3908 10.7634Z" fill="#86BC8B"/>
<path fill-rule="evenodd" clip-rule="evenodd" d="M16.8828 10.7461L16.8725 10.776L16.8597 10.7847L16.8477 10.7838H16.8324L16.8196 10.7741V10.7635L16.8268 10.7538L16.8396 10.75L16.866 10.7461L16.8828 10.7461Z" fill="#86BC8B"/>
<path fill-rule="evenodd" clip-rule="evenodd" d="M17.0828 10.746L17.0492 10.772L17.0412 10.7759L17.0316 10.774L17.026 10.7643L17.0292 10.7547L17.0412 10.7402L17.0524 10.7344L17.0668 10.7354L17.0828 10.746Z" fill="#86BC8B"/>
<path fill-rule="evenodd" clip-rule="evenodd" d="M17.8524 10.7343V10.7498L17.8516 10.7614L17.8452 10.7691H17.8356L17.8308 10.7614L17.8316 10.7469L17.8372 10.7382L17.846 10.7305H17.8604L17.8524 10.7343Z" fill="#86BC8B"/>
<path fill-rule="evenodd" clip-rule="evenodd" d="M16.4364 10.7422L16.4452 10.748L16.4524 10.7605L16.4452 10.7731L16.4348 10.776L16.422 10.7731L16.414 10.7634L16.422 10.7548L16.4284 10.746L16.4364 10.7422Z" fill="#86BC8B"/>
<path fill-rule="evenodd" clip-rule="evenodd" d="M17.7804 10.972L17.7228 11.0251L17.7396 10.9932L17.754 10.9681L17.762 10.9459L17.7636 10.9227V10.9053L17.7604 10.8812L17.754 10.858L17.746 10.8329L17.7412 10.8088V10.7885L17.746 10.7673L17.754 10.7557L17.7636 10.7412L17.7652 10.7818L17.77 10.8078L17.7821 10.8435L17.7932 10.8638L17.8076 10.8918L17.8124 10.9092L17.8109 10.9285L17.8052 10.9459L17.7948 10.9565L17.7804 10.972Z" fill="#86BC8B"/>
<path fill-rule="evenodd" clip-rule="evenodd" d="M16.1764 10.8193L16.1676 10.8309L16.1324 10.8415L16.1228 10.8376L16.1148 10.8193L16.118 10.801L16.13 10.7816L16.1532 10.7729L16.1684 10.7816L16.1732 10.799L16.1764 10.8193Z" fill="#86BC8B"/>
<path fill-rule="evenodd" clip-rule="evenodd" d="M16.0388 10.8119L16.0308 10.8245L16.0228 10.8283L16.0076 10.8196V10.8003L16.0228 10.7733L16.0436 10.7607L16.0388 10.7916L16.0388 10.8119Z" fill="#86BC8B"/>
<path fill-rule="evenodd" clip-rule="evenodd" d="M17.3596 10.8001L17.3572 10.8146H17.3132L17.3036 10.8126L17.2844 10.7981L17.2828 10.7962L17.2836 10.7875L17.29 10.7817H17.3284L17.3596 10.8001Z" fill="#86BC8B"/>
<path fill-rule="evenodd" clip-rule="evenodd" d="M16.7748 10.7817L16.778 10.7904L16.7748 10.8011L16.722 10.8281L16.7068 10.8252L16.7028 10.8165L16.7044 10.8011L16.7116 10.7904L16.7236 10.7866L16.7644 10.7808L16.7748 10.7817Z" fill="#86BC8B"/>
<path fill-rule="evenodd" clip-rule="evenodd" d="M17.1292 10.8192L17.1212 10.8356L17.1028 10.8482L17.0908 10.8472L17.0828 10.8279L17.0892 10.8182L17.1132 10.8096L17.1292 10.8192Z" fill="#86BC8B"/>
<path fill-rule="evenodd" clip-rule="evenodd" d="M16.3756 10.8378L16.3516 10.8562L16.3108 10.8658H16.2988L16.2908 10.8562L16.2988 10.8378L16.3188 10.833H16.3388L16.3756 10.8378Z" fill="#86BC8B"/>
<path fill-rule="evenodd" clip-rule="evenodd" d="M16.4395 10.831V10.8436L16.4171 10.8581L16.4067 10.8561L16.3987 10.8474L16.4027 10.8378L16.4291 10.8281L16.4395 10.831Z" fill="#86BC8B"/>
<path fill-rule="evenodd" clip-rule="evenodd" d="M16.798 10.8379L16.8084 10.8485L16.8044 10.8669L16.7948 10.8785L16.766 10.891L16.7596 10.8891L16.7572 10.8843L16.7548 10.8794L16.7628 10.8649L16.7772 10.8533L16.7836 10.8476L16.798 10.8379Z" fill="#86BC8B"/>
<path fill-rule="evenodd" clip-rule="evenodd" d="M16.0228 10.9013L16.0172 10.8878L16.0228 10.8655L16.0363 10.854L16.0459 10.8521L16.0612 10.8579L16.0684 10.8655L16.0612 10.8839L16.0387 10.9032L16.0228 10.9013Z" fill="#86BC8B"/>
<path fill-rule="evenodd" clip-rule="evenodd" d="M17.2596 10.9119L17.2428 10.9042L17.238 10.8897L17.2397 10.8772L17.2468 10.8694L17.2868 10.8521L17.2916 10.854L17.2972 10.8559V10.8655L17.2901 10.8936L17.2749 10.9119L17.2596 10.9119Z" fill="#86BC8B"/>
<path fill-rule="evenodd" clip-rule="evenodd" d="M16.6652 10.8908L16.67 10.8812L16.6828 10.8735L16.7132 10.8657L16.7228 10.8706L16.7292 10.8841L16.726 10.8966L16.7164 10.9044L16.7028 10.9073L16.67 10.9024L16.6652 10.8908Z" fill="#86BC8B"/>
<path fill-rule="evenodd" clip-rule="evenodd" d="M17.198 10.8755L17.202 10.8909L17.198 10.9035L17.19 10.9121L17.1756 10.9151L17.1676 10.9073V10.8967L17.174 10.8803L17.1788 10.8764L17.1932 10.8735L17.198 10.8755Z" fill="#86BC8B"/>
<path fill-rule="evenodd" clip-rule="evenodd" d="M17.3436 10.9325L17.3396 10.9267L17.342 10.9152L17.3492 10.8997L17.3668 10.8843L17.378 10.8862L17.3836 10.8968L17.3796 10.9103L17.3732 10.9181L17.3508 10.9306L17.3436 10.9325Z" fill="#86BC8B"/>
<path fill-rule="evenodd" clip-rule="evenodd" d="M17.5028 10.946L17.49 10.9557L17.4804 10.9479L17.474 10.9392L17.4668 10.9209V10.8939L17.474 10.8755H17.4908L17.498 10.8842L17.5028 10.9074L17.5044 10.9315L17.5028 10.946Z" fill="#86BC8B"/>
<path fill-rule="evenodd" clip-rule="evenodd" d="M16.2988 10.8843L16.2756 10.949L16.2604 10.9673L16.2396 10.9702L16.2292 10.9673L16.2212 10.949V10.921L16.2348 10.9055L16.2612 10.8881L16.2836 10.8843L16.2988 10.8843Z" fill="#86BC8B"/>
<path fill-rule="evenodd" clip-rule="evenodd" d="M16.1459 10.9587L16.1339 10.9654L16.1227 10.9674L16.1147 10.9587V10.9394L16.1227 10.9123L16.1379 10.894L16.1596 10.8872L16.1659 10.893V10.9056L16.1459 10.9587Z" fill="#86BC8B"/>
<path fill-rule="evenodd" clip-rule="evenodd" d="M17.1052 10.9489L17.094 10.9586H17.0828L17.0724 10.948L17.074 10.9306L17.086 10.9229H17.1028L17.1132 10.9306L17.1052 10.9489Z" fill="#86BC8B"/>
<path fill-rule="evenodd" clip-rule="evenodd" d="M16.4988 10.9392L16.4756 10.9585H16.4524L16.422 10.9489L16.4068 10.9306L16.4148 10.9228L16.4324 10.9189L16.4652 10.9296L16.4988 10.9392Z" fill="#86BC8B"/>
<path fill-rule="evenodd" clip-rule="evenodd" d="M15.7236 10.9307L15.7068 10.9645L15.6988 11.0021L15.7028 11.0262L15.7148 11.0513L15.6916 11.0581L15.6748 11.0639L15.662 11.0697V11.033L15.666 11.0011L15.678 10.9712L15.6924 10.948L15.7076 10.9307H15.7236Z" fill="#86BC8B"/>
<path fill-rule="evenodd" clip-rule="evenodd" d="M15.6155 10.9394L15.6603 10.9316L15.6491 10.9461L15.6387 10.9587H15.6307L15.6155 10.9394Z" fill="#86BC8B"/>
<path fill-rule="evenodd" clip-rule="evenodd" d="M17.6285 11.0047L17.6133 10.9951L17.6085 10.9816L17.6109 10.9651L17.6149 10.9526L17.6284 10.9487L17.6332 10.9622V10.9951L17.6308 10.9999L17.6285 11.0047Z" fill="#86BC8B"/>
<path fill-rule="evenodd" clip-rule="evenodd" d="M15.5076 11.0965L15.5012 11.1042L15.4884 11.109L15.4692 11.1071L15.454 11.0878L15.4532 11.0742L15.462 11.0491L15.5004 10.9767L15.5308 10.9487L15.5084 10.9951L15.5068 11.0076L15.5044 11.0182L15.5052 11.0376L15.5092 11.0675L15.51 11.0839L15.5076 11.0965Z" fill="#86BC8B"/>
<path fill-rule="evenodd" clip-rule="evenodd" d="M15.5844 10.9487L15.5756 10.9632L15.5748 10.9787L15.578 10.9941L15.5892 11.0076L15.6164 11.0308L15.622 11.0404L15.6196 11.0559L15.6036 11.0742L15.5923 11.0791L15.5835 11.0714L15.5692 11.0414L15.5636 11.0202L15.562 10.997V10.9796L15.5692 10.9584L15.5844 10.9487Z" fill="#86BC8B"/>
<path fill-rule="evenodd" clip-rule="evenodd" d="M15.754 10.9487H15.7684L15.7844 10.9564L15.7988 10.9757L15.8172 11.0144L15.8236 11.0414L15.8212 11.0501L15.8156 11.0511L15.7924 11.0598L15.8004 11.0327L15.7956 11.0076L15.7884 10.9883L15.7772 10.9671L15.754 10.9487Z" fill="#86BC8B"/>
<path fill-rule="evenodd" clip-rule="evenodd" d="M16.3588 10.9545L16.3628 10.9787L16.3452 10.9912L16.3172 10.998L16.306 10.9951L16.2988 10.9767L16.306 10.9584L16.3221 10.9487H16.3452L16.3588 10.9545Z" fill="#86BC8B"/>
<path fill-rule="evenodd" clip-rule="evenodd" d="M15.4004 11.1439L15.3876 11.085L15.3812 11.0986L15.3748 11.1101L15.3644 11.1169L15.3564 11.1188L15.3484 11.113L15.3388 11.1352L15.3268 11.1497L15.3132 11.1584L15.2996 11.1642L15.2852 11.1681H15.2644V11.1459L15.2604 11.1198L15.254 11.0966L15.2404 11.0754L15.2212 11.0638L15.2012 11.0599L15.2084 11.0416L15.2236 11.0329H15.2428L15.2596 11.0387L15.2772 11.0541L15.282 11.0715L15.2852 11.0879V11.1159L15.2916 11.1265H15.3084L15.3316 11.1159L15.3468 11.1072V11.0879L15.3388 11.0512L15.3236 11.0242L15.3468 11.0049V11.0329L15.3564 11.0493L15.3692 11.0541L15.3852 11.0512L15.4004 11.0416L15.4076 11.0049L15.3924 10.9865L15.4692 10.9585L15.4484 10.9875L15.4316 11.0194L15.4196 11.0483L15.414 11.0657L15.4076 11.0966L15.4004 11.1439Z" fill="#86BC8B"/>
<path fill-rule="evenodd" clip-rule="evenodd" d="M17.2828 10.9673L17.2708 10.9972L17.2468 11.0281L17.2316 11.0407L17.2132 11.0416L17.202 11.0339L17.1988 11.0194L17.2052 11.0078L17.2212 10.9953L17.2364 10.9818L17.2516 10.977L17.2828 10.9673Z" fill="#86BC8B"/>
<path fill-rule="evenodd" clip-rule="evenodd" d="M14.4787 10.9951L14.4595 11.0038L14.4467 11.0125L14.4147 11.0405L14.4251 11.0164L14.4387 11.0038L14.4547 10.9951H14.4787Z" fill="#86BC8B"/>
<path fill-rule="evenodd" clip-rule="evenodd" d="M16.9516 11.0144L16.9244 11.025L16.9164 11.0173L16.9132 11.0047L16.9212 10.9951L16.9404 10.9932L16.9556 10.997L16.958 11.0076L16.9516 11.0144Z" fill="#86BC8B"/>
<path fill-rule="evenodd" clip-rule="evenodd" d="M17.3508 10.9951H17.3629L17.3732 11.0077L17.3748 11.0241L17.3676 11.0366L17.3484 11.0559L17.3429 11.0656L17.3324 11.0714L17.3212 11.0695L17.3116 11.0559L17.3125 11.0434L17.3205 11.0328L17.3333 11.0183L17.3429 11.0019L17.3508 10.9951Z" fill="#86BC8B"/>
<path fill-rule="evenodd" clip-rule="evenodd" d="M17.4797 10.9883L17.4901 10.9863L17.4981 10.9883L17.5013 11.0018L17.4956 11.0163L17.4885 11.0201L17.4781 11.0163L17.4741 11.0018L17.4797 10.9883Z" fill="#86BC8B"/>
<path fill-rule="evenodd" clip-rule="evenodd" d="M14.5699 11.0243L14.5323 11.0291L14.5163 11.0368L14.5003 11.0494L14.4915 11.0687L14.4755 11.1016L14.4763 11.0765L14.4811 11.0533L14.4915 11.033L14.5059 11.0204L14.5211 11.0146H14.5395L14.5699 11.0243Z" fill="#86BC8B"/>
<path fill-rule="evenodd" clip-rule="evenodd" d="M16.4676 11.0146L16.4292 11.0513L16.3988 11.0668H16.3868L16.3836 11.06L16.386 11.0494L16.3988 11.033L16.4452 11.0147L16.4676 11.0146Z" fill="#86BC8B"/>
<path fill-rule="evenodd" clip-rule="evenodd" d="M17.0476 11.0417L17.0292 11.0455H17.0156L17.0028 11.0378L16.998 11.033V11.0204L17.0108 11.0156L17.0316 11.0117L17.0492 11.0243L17.0532 11.0339L17.0476 11.0417Z" fill="#86BC8B"/>
<path fill-rule="evenodd" clip-rule="evenodd" d="M16.2836 11.0413L16.2372 11.0877L16.2141 11.0963L16.1924 11.0877L16.1997 11.0597L16.2141 11.0413L16.2836 11.0239L16.2908 11.0326L16.2836 11.0413Z" fill="#86BC8B"/>
<path fill-rule="evenodd" clip-rule="evenodd" d="M16.3516 11.0513L16.3548 11.0803L16.3516 11.0967L16.3292 11.1256L16.322 11.1536L16.3012 11.1662L16.2908 11.1623V11.1343L16.3148 11.06L16.3292 11.0513H16.3516Z" fill="#86BC8B"/>
<path fill-rule="evenodd" clip-rule="evenodd" d="M14.6635 11.1147L14.6467 11.135L14.6331 11.1698L14.6243 11.2084L14.5963 11.1659L14.5947 11.1369L14.6019 11.107L14.6187 11.0809L14.6331 11.0732L14.6475 11.0693L14.6779 11.079L14.6931 11.0964L14.6635 11.1147Z" fill="#86BC8B"/>
<path fill-rule="evenodd" clip-rule="evenodd" d="M15.1539 11.1253L15.1691 11.134H15.1771L15.1931 11.1253L15.2011 11.1533L15.1771 11.1717L15.1691 11.19L15.1467 11.1978L15.1499 11.1736L15.1459 11.1446L15.1395 11.1157L15.1235 11.0877L15.1083 11.0693H15.1315L15.1412 11.079L15.15 11.0915L15.1539 11.107V11.1253Z" fill="#86BC8B"/>
<path fill-rule="evenodd" clip-rule="evenodd" d="M17.2676 11.0859L17.2749 11.0995L17.2709 11.1188L17.2596 11.1342L17.2364 11.1439L17.2188 11.141L17.2148 11.1352L17.2133 11.1226L17.2213 11.1072L17.2381 11.0917L17.2564 11.0859L17.2676 11.0859Z" fill="#86BC8B"/>
<path fill-rule="evenodd" clip-rule="evenodd" d="M14.2763 11.166L14.2683 11.1853L14.2891 11.1901L14.3187 11.1862L14.2891 11.2026L14.2723 11.2074L14.2555 11.2046L14.2435 11.191L14.2291 11.1698L14.2203 11.1399L14.2187 11.1206L14.2251 11.0993L14.2379 11.0829L14.2611 11.0742L14.2555 11.0993V11.1196L14.2611 11.1389L14.2683 11.1573L14.2763 11.166Z" fill="#86BC8B"/>
<path fill-rule="evenodd" clip-rule="evenodd" d="M15.0539 11.0879L15.0603 11.0985L15.0651 11.1178L15.0619 11.1506L15.0563 11.1816L15.0523 11.1951L15.0395 11.2086L15.0083 11.2173L15.0235 11.1999L15.0307 11.1815L15.0315 11.1622L15.0291 11.1449L15.0251 11.1265L15.0163 11.1072L15.0315 11.0879H15.0539L15.0539 11.0879Z" fill="#86BC8B"/>
<path fill-rule="evenodd" clip-rule="evenodd" d="M17.0444 11.0878L17.0332 11.0965L17.0212 11.1071L16.9996 11.1119L16.9812 11.1158L16.9749 11.1071L16.9765 11.0965L16.9876 11.0897L17.026 11.0801L17.0356 11.0839L17.0444 11.0878Z" fill="#86BC8B"/>
<path fill-rule="evenodd" clip-rule="evenodd" d="M17.3836 11.1084L17.3892 11.1181L17.39 11.1287L17.3676 11.1557L17.3572 11.1625H17.3436L17.338 11.1576L17.3356 11.1461L17.3436 11.1258L17.3508 11.1161L17.3748 11.1074L17.3836 11.1084Z" fill="#86BC8B"/>
<path fill-rule="evenodd" clip-rule="evenodd" d="M14.9547 11.1904L14.9539 11.2088L14.9459 11.2203L14.9387 11.231H14.9099L14.9011 11.2281L14.8867 11.2039L14.8891 11.1875L14.8971 11.1711L14.9163 11.1441L14.9099 11.1363L14.9043 11.1267L14.9051 11.1132L14.9163 11.1073L14.9307 11.1035L14.9395 11.1073L14.9467 11.117V11.1257L14.9395 11.1441L14.9315 11.1566L14.9331 11.1692L14.9395 11.1817L14.9547 11.1904Z" fill="#86BC8B"/>
<path fill-rule="evenodd" clip-rule="evenodd" d="M17.1468 11.1079L17.1508 11.1195L17.1492 11.1359L17.1364 11.1437L17.114 11.1494L17.1052 11.1437L17.1044 11.1301L17.1132 11.1185L17.1212 11.1118L17.134 11.1079H17.1468Z" fill="#86BC8B"/>
<path fill-rule="evenodd" clip-rule="evenodd" d="M14.7779 11.1157L14.7939 11.1205H14.8139L14.8467 11.1157L14.8155 11.1398L14.7955 11.1572L14.7771 11.1823L14.7667 11.2055L14.7571 11.2287L14.7523 11.2461H14.7451L14.7235 11.2451L14.7251 11.2046L14.7323 11.1698L14.7419 11.1457L14.7571 11.1273L14.7779 11.1157Z" fill="#86BC8B"/>
<path fill-rule="evenodd" clip-rule="evenodd" d="M17.4748 11.1596L17.4668 11.1576L17.4596 11.148L17.4572 11.1422L17.4604 11.1229L17.4684 11.1094L17.478 11.1064L17.4908 11.12L17.4868 11.1354L17.4844 11.1528L17.4748 11.1596Z" fill="#86BC8B"/>
<path fill-rule="evenodd" clip-rule="evenodd" d="M16.6156 11.1776L16.61 11.1911L16.598 11.1901L16.5756 11.1872L16.5476 11.1891L16.5676 11.1717L16.5908 11.1621L16.6028 11.164L16.6116 11.1679L16.6156 11.1776Z" fill="#86BC8B"/>
<path fill-rule="evenodd" clip-rule="evenodd" d="M17.2132 11.2001L17.2036 11.2156L17.1916 11.2243L17.1716 11.2252L17.1516 11.2281L17.1292 11.2088V11.2001L17.138 11.1943H17.1524L17.2132 11.2001Z" fill="#86BC8B"/>
<path fill-rule="evenodd" clip-rule="evenodd" d="M17.2212 11.2634L17.2196 11.2499L17.2284 11.2364L17.2404 11.2277L17.2516 11.2171L17.3052 11.1997L17.302 11.2113L17.2932 11.2277L17.2828 11.2364L17.2444 11.2634L17.2276 11.2683L17.2212 11.2634Z" fill="#86BC8B"/>
<path fill-rule="evenodd" clip-rule="evenodd" d="M16.9212 11.2821L16.9132 11.3014H16.8988L16.8676 11.3294H16.89L16.9067 11.3362L16.9179 11.3497L16.9212 11.3748L16.906 11.3941L16.9212 11.4298L16.9444 11.4549L16.9748 11.4685L17.0212 11.4762L16.9636 11.4936H16.9492L16.9356 11.4887L16.906 11.4385L16.8596 11.3748L16.842 11.3478L16.8284 11.3043L16.8212 11.2637V11.228L16.838 11.256L16.8596 11.2734L16.8788 11.2811L16.9212 11.2821Z" fill="#86BC8B"/>
<path fill-rule="evenodd" clip-rule="evenodd" d="M16.6371 11.228L16.6275 11.2551L16.6236 11.2773L16.6259 11.3062L16.6308 11.342L16.6484 11.3825L16.6308 11.3729L16.6212 11.3574L16.6131 11.3371L16.6083 11.3149V11.2879L16.6148 11.2618L16.6228 11.2444L16.6371 11.228Z" fill="#86BC8B"/>
<path fill-rule="evenodd" clip-rule="evenodd" d="M16.1531 11.228H16.1636L16.1683 11.2367L16.1459 11.2647L16.1379 11.2638L16.1387 11.2541L16.1531 11.228Z" fill="#86BC8B"/>
<path fill-rule="evenodd" clip-rule="evenodd" d="M16.5804 11.3649L16.5628 11.3282L16.5604 11.2915L16.5644 11.2664L16.5756 11.2461H16.5908L16.5804 11.2683L16.574 11.2896L16.5708 11.3118L16.5732 11.332L16.5804 11.3649Z" fill="#86BC8B"/>
<path fill-rule="evenodd" clip-rule="evenodd" d="M17.2212 11.3198L17.31 11.3391H17.3276L17.3404 11.3343L17.3532 11.3304L17.3524 11.3546L17.3436 11.37L17.3276 11.3787L17.302 11.3816L17.29 11.3942L17.2772 11.3913L17.2444 11.3565L17.2212 11.3198Z" fill="#86BC8B"/>
<path fill-rule="evenodd" clip-rule="evenodd" d="M17.1213 11.3291L17.1365 11.3561H17.1213L17.1053 11.3484L17.1133 11.3387L17.1213 11.3291Z" fill="#86BC8B"/>
<path fill-rule="evenodd" clip-rule="evenodd" d="M16.9875 11.3699L16.974 11.3805L16.9595 11.3834L16.9363 11.3747L16.9435 11.3564L16.9603 11.3496H16.9739L16.9851 11.3583L16.9875 11.3699Z" fill="#86BC8B"/>
<path fill-rule="evenodd" clip-rule="evenodd" d="M16.4676 11.5871L16.4452 11.6064L16.4068 11.5958L16.3452 11.5417L16.3908 11.5225L16.4292 11.5504L16.4676 11.5871Z" fill="#86BC8B"/>
<path fill-rule="evenodd" clip-rule="evenodd" d="M17.0556 11.586L17.0444 11.587L17.042 11.5764L17.046 11.558L17.0596 11.5503L17.0708 11.5513L17.0764 11.5677L17.0724 11.5745L17.0556 11.586Z" fill="#86BC8B"/>
<path fill-rule="evenodd" clip-rule="evenodd" d="M16.4372 11.6527L16.3908 11.6613L16.3755 11.6527L16.3988 11.6343L16.422 11.643L16.4372 11.6527Z" fill="#86BC8B"/>
<path fill-rule="evenodd" clip-rule="evenodd" d="M16.8212 11.8003L16.7908 11.8099L16.778 11.8235L16.7684 11.8389L16.762 11.8621L16.7644 11.8939L16.7677 11.9113L16.7364 11.8939L16.7292 11.8746L16.7325 11.8553L16.7413 11.837L16.7549 11.8235L16.7732 11.8099L16.7908 11.8003H16.8212Z" fill="#86BC8B"/>
<path fill-rule="evenodd" clip-rule="evenodd" d="M16.9596 11.9859L16.9292 12.0139L16.9212 12.0322L16.9364 12.0419L16.9596 12.0322L16.99 11.9955L17.0668 12.0506L17.1364 12.1249L17.2132 12.2553L17.2284 12.3103L17.2132 12.348H17.2052L17.198 12.3383L17.1748 12.292L17.1596 12.2456L17.1516 12.264L17.1444 12.2553L17.1212 12.292H17.1052L17.0908 12.2833L17.0668 12.2553L17.0364 12.1809L17.0132 12.1529L16.998 12.1442L17.0212 12.1249L17.0364 12.1076H16.9436L16.9676 12.0699L16.9748 12.0603V12.0419H16.9364L16.8988 12.0603L16.906 12.0322L16.8988 12.0139L16.8596 12.0042L16.8292 12.0139L16.8516 11.9859L16.906 11.9492L16.9364 11.9685L16.9436 11.9859H16.9596L16.9596 11.9859Z" fill="#86BC8B"/>
<path fill-rule="evenodd" clip-rule="evenodd" d="M18.0724 10.6484L18.0924 10.6658L18.1044 10.661L18.1108 10.6581L18.1188 10.6513" fill="#86BC8B"/>
<path fill-rule="evenodd" clip-rule="evenodd" d="M17.9485 10.4273L17.9349 10.4254H17.9205L17.8989 10.4302L17.9021 10.4138L17.91 10.3993L17.9237 10.3926L17.9373 10.3984L17.9445 10.4042L17.9533 10.4196L17.9549 10.4273H17.9485Z" fill="#86BC8B"/>
<path fill-rule="evenodd" clip-rule="evenodd" d="M17.8908 10.6919L17.8692 10.688L17.8484 10.6803L17.8356 10.6687L17.8284 10.6504" fill="#86BC8B"/>
<path fill-rule="evenodd" clip-rule="evenodd" d="M17.9485 10.4939L17.9533 10.4862L17.9453 10.4727H17.9333L17.9277 10.4823L17.9293 10.4891L17.9373 10.4968L17.9485 10.4939Z" fill="#86BC8B"/>
<path fill-rule="evenodd" clip-rule="evenodd" d="M18.0596 10.9046L18.0829 10.8843L18.0772 10.9094H18.07L18.0628 10.9046L18.0596 10.9046Z" fill="#86BC8B"/>
<path fill-rule="evenodd" clip-rule="evenodd" d="M16.2707 10.7944L16.2476 10.8157L16.2259 10.8524L16.2123 10.8582L16.2028 10.8504L16.2044 10.833L16.2155 10.8176L16.2315 10.807L16.2476 10.7944H16.2707Z" fill="#86BC8B"/>
<path fill-rule="evenodd" clip-rule="evenodd" d="M17.0028 10.8955L17.0052 10.9032L17.0028 10.9138L16.9612 10.9418L16.95 10.938L16.9468 10.9293L16.9476 10.9138L16.954 10.9032L16.9636 10.8993L16.994 10.8945L17.0028 10.8955Z" fill="#86BC8B"/>
<path fill-rule="evenodd" clip-rule="evenodd" d="M17.166 11.0243L17.162 11.0165L17.1532 11.0127L17.11 11.0359L17.1052 11.0465L17.1084 11.0571L17.1188 11.0638L17.13 11.0668L17.1388 11.059L17.1612 11.033L17.166 11.0243Z" fill="#86BC8B"/>
<path fill-rule="evenodd" clip-rule="evenodd" d="M17.2324 10.8119V10.8205L17.2292 10.8225L17.2052 10.8254L17.1924 10.8244L17.1844 10.8051L17.1916 10.7964L17.2308 10.8002L17.2324 10.8119Z" fill="#86BC8B"/>
<path fill-rule="evenodd" clip-rule="evenodd" d="M16.1395 10.6879L16.1627 10.6792H16.1907L16.2667 10.6281L16.3019 10.6107L16.3299 10.603L16.3667 10.5971L16.3547 10.5865L16.3507 10.5778L16.3547 10.5653L16.3524 10.5566L16.3403 10.5527L16.3195 10.5546L16.2859 10.5691L16.2507 10.5885L16.2139 10.6136L16.1875 10.6406L16.1627 10.6686L16.1395 10.6879Z" fill="#86BC8B"/>
<path fill-rule="evenodd" clip-rule="evenodd" d="M17.4692 11.2113L17.4628 11.2277L17.4444 11.2403L17.4316 11.2393L17.4236 11.22L17.4308 11.2103L17.4548 11.2017L17.4692 11.2113Z" fill="#86BC8B"/>
<path fill-rule="evenodd" clip-rule="evenodd" d="M17.4637 11.2773L17.4661 11.287L17.4637 11.2976L17.4101 11.3237L17.3957 11.3217L17.3909 11.3121L17.3925 11.2976L17.3997 11.287L17.4125 11.2822L17.4525 11.2764L17.4637 11.2773Z" fill="#86BC8B"/>
<path fill-rule="evenodd" clip-rule="evenodd" d="M16.1924 10.9614L16.1292 10.9836L16.1172 10.9962L16.106 11.0116V11.0502L16.114 11.0628L16.1188 11.0754L16.1116 11.0879L16.0956 11.0966L16.0932 11.1101L16.0956 11.1188L16.1084 11.1227L16.1244 11.1188L16.1508 11.1063L16.1684 11.1005L16.1764 11.0879L16.174 11.0754L16.1684 11.056L16.1716 11.0367L16.1764 11.0116L16.19 10.9933L16.2004 10.9798V10.974L16.1924 10.9614Z" fill="#86BC8B"/>
<path fill-rule="evenodd" clip-rule="evenodd" d="M16.0011 10.9867V10.9587L15.9956 10.9461L15.9852 10.9326H15.9748L15.9667 10.9423L15.9587 10.9635V10.9867L15.9643 11.0089L15.9723 11.0147H15.9827L15.9931 11.0118L15.9852 11.0408L15.9907 11.0562L16.0011 11.0659H16.0139L16.0299 11.0591L16.0459 11.0408L16.0588 11.0215L16.0659 10.9964V10.9771L16.0588 10.9616H16.0484L16.0324 10.9635L16.0035 10.9867H16.0011L16.0011 10.9867Z" fill="#86BC8B"/>
<path fill-rule="evenodd" clip-rule="evenodd" d="M15.8619 10.9323L15.8563 10.9545L15.8619 10.9738L15.8699 10.9863H15.8851L15.8979 10.9767L15.9171 10.9545L15.9355 10.9197L15.9483 10.8917L15.9435 10.8695L15.9355 10.8628L15.9195 10.8589L15.8979 10.8714L15.8803 10.8917L15.8619 10.9323Z" fill="#86BC8B"/>
<path fill-rule="evenodd" clip-rule="evenodd" d="M15.8564 10.838L15.8771 10.8312L15.9044 10.8226L15.9196 10.809L15.9244 10.7936L15.9228 10.7743L15.9092 10.7617H15.9012L15.8828 10.7675L15.8644 10.781L15.846 10.8061L15.8436 10.8245L15.8492 10.8312L15.8564 10.838Z" fill="#86BC8B"/>
<path fill-rule="evenodd" clip-rule="evenodd" d="M16.2308 11.2116L16.2572 11.1951L16.2812 11.1855L16.3044 11.1787L16.3252 11.1855L16.354 11.1951L16.3724 11.2116L16.378 11.2309L16.3756 11.2492L16.3908 11.2685L16.3932 11.2878L16.3908 11.3023L16.3828 11.3062H16.3676L16.3596 11.2994L16.354 11.284L16.3516 11.2714H16.3332L16.3044 11.2743H16.2812L16.2628 11.2685L16.2436 11.2589L16.234 11.2463L16.2308 11.2309V11.2116Z" fill="#86BC8B"/>
<path fill-rule="evenodd" clip-rule="evenodd" d="M16.2916 11.6122L16.294 11.6189L16.3044 11.6315L16.318 11.6344L16.3332 11.6315L16.3412 11.6218L16.3436 11.6122L16.3412 11.5909L16.3332 11.5745L16.3252 11.5581L16.318 11.5552L16.3076 11.561L16.2964 11.5774L16.2916 11.6122Z" fill="#86BC8B"/>
<path fill-rule="evenodd" clip-rule="evenodd" d="M15.878 11.0485L15.8732 11.0311L15.8804 11.0109L15.8956 10.9944L15.9188 10.978H15.9364L15.9436 10.9819L15.9484 10.9925L15.9468 11.0089L15.9404 11.0273L15.9188 11.0524L15.9004 11.0601H15.8884L15.878 11.0485Z" fill="#86BC8B"/>
</g>
</g>
<defs>
<clipPath id="clip0_3973_34349">
<rect width="22" height="18" fill="white" transform="translate(1 3)"/>
</clipPath>
<clipPath id="clip1_3973_34349">
<rect width="4.12344" height="2.38886" fill="white" transform="translate(14.1455 10.1768)"/>
</clipPath>
</defs>
</svg>
