<svg width="37" height="24" viewBox="0 0 37 24" fill="none" xmlns="http://www.w3.org/2000/svg">
<g clip-path="url(#clip0_840_8606)">
<path d="M25.5762 1.56666C25.797 1.65246 26.0134 1.74942 26.2355 1.83194C27.0302 2.02809 28.0471 2.33916 28.7696 2.70512C29.7996 3.21329 29.65 3.3694 32.3047 7.30209C32.3828 7.41322 32.8778 8.14656 32.8778 8.14656C33.3906 8.82814 33.3264 8.71983 33.3331 9.38986C33.3268 9.46075 33.3539 9.5308 33.3395 9.60158C33.3313 9.63805 33.3181 10.0042 33.3168 10.0175C33.2831 10.2205 33.3254 10.3736 33.5289 10.4169C34.0093 10.5233 35.2337 10.4491 35.2472 10.4504C35.5318 10.5107 34.608 11.1025 33.5422 11.2147C33.4838 11.2273 33.2263 11.2026 33.1685 11.4168C33.1685 11.4168 32.9966 12.5647 32.7873 13.3863C32.4561 14.6325 31.0623 17.4119 33.0852 20.656C33.1023 20.6837 33.1222 20.7195 33.1029 20.7515C33.015 20.9008 32.8471 20.9374 32.7404 20.8613C32.6926 20.8336 32.6607 20.7815 32.6072 20.7648C32.4615 20.762 32.428 20.725 32.1897 21.0085C32.1587 21.0438 32.1348 21.0863 32.096 21.1141C32.0027 21.1305 32.001 21.0941 31.9713 21.0055C31.5234 19.5024 30.6634 19.1954 30.4608 16.3343C30.464 15.0977 30.5262 15.6161 30.7415 13.8989C30.7939 13.4952 30.8388 13.0904 30.858 12.6841C30.9084 12.3266 30.8869 10.8704 30.64 10.6009C30.4942 10.4344 28.4961 9.78953 27.7553 9.75057C27.1119 9.83245 26.4317 9.56992 26.2764 9.57643C26.1164 9.56958 25.8903 9.78848 25.8182 9.84766C25.6439 9.99157 25.1571 10.4292 24.9917 10.6102C24.382 11.2718 24.2608 10.7273 26.2234 17.52C26.6778 19.1167 27.1957 20.4282 27.2125 20.4846C27.4376 21.0372 27.3704 20.9828 28.8354 23.03C28.8953 23.1219 29.0251 23.2414 28.8758 23.2696C28.0438 23.4609 25.9118 23.7034 25.1907 23.2564C25.0978 23.2087 25.2327 22.9691 25.2771 22.2516C25.2815 22.2286 25.336 21.74 25.2187 21.5264C24.8988 20.9516 22.0525 16.4233 20.892 14.4523C20.8514 14.3868 20.815 14.3132 20.7471 14.2707C20.4975 14.2256 20.6407 14.4495 19.2355 17.1636C18.1716 19.2261 17.3786 19.9389 17.3157 20.7819C17.3451 21.3168 17.6947 21.6182 18.1083 22.2004C18.606 22.9266 18.2205 22.7393 17.934 22.7519C17.0347 22.7229 15.4536 22.6217 14.6053 22.3268C14.4793 22.2697 14.4961 22.2992 14.5543 21.9137C14.9354 19.9354 15.4663 19.9331 16.1279 16.6136C16.2361 16.0677 16.3308 15.5184 16.3868 14.9648C16.3793 14.8434 16.4661 14.597 16.2692 14.5378C16.0326 14.4979 13.7877 15.1659 12.0817 14.7755C11.9243 14.7522 11.7552 14.6306 11.5952 14.8986C10.915 16.0526 10.2514 16.3699 9.97485 16.565C9.7629 16.7175 9.8208 17.012 9.79949 17.1118C9.76751 17.2843 9.70136 19.2992 9.97657 20.4979C10.0543 20.8347 10.047 20.8687 10.296 21.058C11.0622 21.6001 11.287 22.1353 11.2585 22.2333C11.2259 22.3144 8.91368 23.0978 7.34395 22.2678C7.2403 22.2037 7.26976 22.3853 7.26681 20.6967C7.26623 20.6382 7.22769 18.5682 7.18265 18.3986C7.1576 18.2996 7.0699 18.2515 6.91006 18.3756C6.62428 18.607 6.16698 19.0197 6.07899 19.109C5.3966 19.7787 5.53357 19.7673 5.19826 20.6635C5.13082 20.8023 5.03568 21.0658 4.9083 21.141C4.78613 21.1472 3.13723 20.156 2.59986 18.7452C2.58779 18.7102 2.56992 18.6749 2.57349 18.6373C2.57349 18.6373 4.5841 17.1356 5.46504 16.3116C5.6532 16.1621 6.12164 15.6741 6.13517 15.6616C6.45228 15.3456 6.23957 15.4091 5.67355 13.626C5.20675 12.1541 4.9415 10.7065 4.88512 9.92437C4.87721 9.86294 4.85946 9.64282 4.75905 9.63677C4.4608 9.5985 3.47439 12.5057 2.9344 14.87C2.88712 15.0782 3.04451 15.3323 3.02892 15.8368C3.05313 16.7646 2.30364 17.1506 1.40144 16.8794C1.28228 16.8347 1.35117 16.7586 1.27931 16.7164C1.21723 16.6762 0.899238 16.5684 0.753844 16.1962C0.737448 16.16 0.762589 16.1083 0.804369 16.107C0.969425 16.0986 1.24548 16.1775 1.70815 15.7923C1.95613 15.5921 2.29473 15.07 2.30187 14.9306C2.64997 11.2113 3.22078 9.63899 4.68156 6.87826C4.72346 6.79919 5.12148 6.0431 5.1889 5.96932C5.57984 5.5859 7.78896 3.63527 9.2178 2.94728C10.3197 2.39958 11.7092 2.40763 12.6361 2.75495C15.3354 4.0695 15.9441 3.8764 17.5136 3.69405C17.9285 3.64449 20.2191 3.36758 20.3959 2.99248C20.7262 2.27699 21.3055 1.13978 21.9208 0.645951C22.1701 0.437323 22.1817 0.209757 25.576 1.56651L25.5762 1.56666Z" fill="#86BC8B"/>
<g clip-path="url(#clip1_840_8606)">
<path fill-rule="evenodd" clip-rule="evenodd" d="M27.0256 11.1312L26.9719 11.1814L26.9235 11.2174L26.879 11.2496L26.8227 11.2818L26.79 11.2947L26.7494 11.3075L26.7036 11.3153L26.6551 11.3191L26.5687 11.3243L26.4836 11.3295L26.3933 11.332L26.4587 11.6127L26.4666 11.6423L26.4587 11.6796L26.4443 11.708L26.4155 11.7466L26.3867 11.7659L26.1956 11.8741L26.1694 11.8779L26.1406 11.8882L26.1053 11.8921H26.0673L26.1026 11.9204L26.1458 11.9487L26.2205 11.9848L26.333 12.0466L26.354 12.0594L26.4797 12.1727L26.4993 12.1972L26.5582 12.2925L26.5844 12.38L26.5962 12.4058V12.4521L26.5844 12.4817L26.5621 12.4998L26.5373 12.5062L26.4928 12.4985L26.3514 12.4534L26.2676 12.4225L26.2453 12.4032L26.2204 12.3671L26.1812 12.268L26.1563 12.2551L26.1065 12.2062L25.6627 12.0311L25.6445 12.0169L25.6352 11.9951L25.6182 11.9346L25.5488 11.6539L25.9023 11.6899H25.9874L26.0673 11.6758L26.1484 11.6449L26.1628 11.6333L26.1733 11.6088L26.1667 11.5844L26.1511 11.5522L26.1196 11.5032L26.0699 11.4389L26.0359 11.4724L26.117 11.5522L26.1235 11.5702L26.1196 11.5946L26.1079 11.6127L26.0752 11.6333L26.0123 11.6564L25.9024 11.6899L25.5463 11.6526L25.2334 11.6501L25.3119 11.6938L25.3905 11.7196L25.4494 11.717L25.4952 11.6899L25.5489 11.6552L25.6183 11.9346L25.5188 11.9706L25.4415 11.9809L25.3892 11.9783L25.329 11.9655L25.2753 11.9462L25.2006 11.8985L25.1261 11.8483L24.8865 11.7518L24.8694 11.7376L24.8642 11.7196L24.8721 11.6887L24.8878 11.6629L24.9244 11.6372L24.9742 11.6256L24.9519 11.5908V11.5638L24.9624 11.5381L25.0501 11.3539L25.0566 11.3192L25.0527 11.2793L25.0396 11.2471L25.0187 11.2149L24.986 11.1892L24.9375 11.1686L24.4728 11.045L24.4191 11.0218L24.3536 10.9844L24.3091 10.9471L24.2476 10.8737L24.1743 10.8531L24.1062 10.8454L24.0198 10.8467L23.9347 10.8583L23.5917 10.9471L23.2029 11.0218L23.0196 11.0437L22.8599 11.0591L22.7264 11.0669L22.6203 11.0591L22.5352 11.0488L22.4789 11.0424L22.4187 11.0282L22.3716 11.0115L22.3218 10.9909L22.1019 10.8763L22.0613 10.8621L22.0142 10.857L21.9657 10.8686L21.8571 10.9343L21.7877 10.9613L21.7471 10.9664L21.7131 10.9613L21.6882 10.9471L21.6568 10.9097L21.6438 10.8737L21.6411 10.8299L21.6542 10.7836L21.6752 10.7514L21.7053 10.7166L21.755 10.6818L21.8637 10.6329L21.9291 10.611L21.9737 10.602L22.0221 10.5982L22.0836 10.6136L22.1713 10.6561L22.2721 10.6999L22.3167 10.7192L22.3847 10.7398L22.4541 10.7591L22.5484 10.7733L22.6374 10.7835L22.7696 10.7733L22.9634 10.7488L23.3535 10.6767L23.957 10.5273L24.0356 10.5132L24.0932 10.5055L24.1586 10.5029L24.2791 10.3793L24.3694 10.2892L24.461 10.1965L24.5631 10.1077L24.5946 10.0845L24.609 10.0729L24.6273 10.0652L24.6495 10.0574L24.9127 9.98274L25.0266 9.95828L25.0986 9.94025L25.1941 9.92481L25.2858 9.91192L25.3866 9.90291L25.511 9.89648H25.6406L25.7492 9.90937L25.833 9.92224L25.9233 9.9454L26.0228 9.9789L26.2585 10.0819L26.3828 10.1192L26.6067 10.1308L26.642 10.1347L26.6774 10.1424L26.7861 10.1681L26.8188 10.1759L26.8554 10.1785L26.8855 10.1759L26.9104 10.1681L27.023 10.1256L27.1356 10.0729L27.2246 10.0304L27.311 9.99821L27.4092 9.96989L27.3765 10.0265L27.3529 10.078L27.1971 10.208L27.1487 10.2814L27.112 10.378L27.0885 10.4861L27.0832 10.6484L27.0924 10.7977V10.8904L27.0741 11.0114L27.0597 11.0668L27.0256 11.1312Z" fill="#86BC8B"/>
<path fill-rule="evenodd" clip-rule="evenodd" d="M27.6409 9.82308L27.6501 9.83853L27.6566 9.85655L27.6881 9.84754L27.7103 9.84109L27.7339 9.84754L27.7483 9.85525L27.7614 9.872L27.7679 9.89646L27.7836 9.91704L27.8334 9.93766L27.87 9.96599L27.9603 10.0355L27.9917 10.0638L28.0114 10.0896L28.0232 10.1115L28.0337 10.1359L28.0363 10.1733L28.0428 10.2042L28.1239 10.2788L28.1475 10.3072L28.1645 10.3329L28.1763 10.3509L28.1829 10.3689L28.1868 10.3844L28.1763 10.3973L28.0978 10.4951L28.0847 10.5029L28.069 10.5054L28.0127 10.4977L28.0022 10.5093L27.9983 10.5273L28.0179 10.5453L28.0245 10.5608V10.5801L28.0179 10.6007L28.0048 10.6161L27.9878 10.6265L27.9668 10.6316L27.9485 10.6291L27.9224 10.6213L27.8386 10.5904L27.7823 10.5788L27.7417 10.5737L27.6723 10.5724L27.6422 10.5737L27.6121 10.5814L27.5741 10.5943L27.5362 10.6084L27.4969 10.629L27.4353 10.6715L27.3686 10.7269L27.2796 10.8209L27.1879 10.9226L27.0243 11.1324L27.0557 11.0204L27.074 10.8479L27.0557 10.6805L27.0465 10.5222L27.074 10.3973L27.1159 10.2582L27.1722 10.1849L27.2717 10.114L27.3202 10.0445L27.3764 9.98917L27.4183 9.96471L27.4327 9.93766L27.4484 9.91704L27.4851 9.88228L27.5231 9.84494L27.5545 9.82049L27.5872 9.80762L27.6173 9.81021L27.6409 9.82308Z" fill="#86BC8B"/>
<path fill-rule="evenodd" clip-rule="evenodd" d="M26.2637 10.1465L26.2271 10.122L26.1236 10.0525L26.0569 10.0138L26.0032 9.98808L25.9364 9.96493L25.8631 9.94559L25.7571 9.93015L25.6524 9.91857L25.5385 9.91211L25.3447 9.92501L25.1169 9.96749L25.1051 9.99969L25.0842 10.0306L25.0619 10.0473L25.0292 10.0551L25.0043 10.0525L24.9886 10.0396L24.9847 10.0151L24.9873 9.99581L24.7909 10.0447L24.7831 10.0756L24.7674 10.095L24.7412 10.1091H24.715L24.7032 10.095L24.7006 10.0782L24.5985 10.1194L24.6273 10.131L24.6469 10.1452L24.6548 10.1671V10.1928L24.643 10.2095L24.6168 10.2211L24.588 10.2185L24.554 10.2005L24.5396 10.1915L24.5134 10.234L24.4951 10.2391L24.4755 10.234L24.4323 10.2623L24.4152 10.2894L24.3118 10.4323L24.2856 10.4954V10.5507L24.2987 10.597L24.3262 10.6627L24.3681 10.7052L24.4113 10.7258L24.4755 10.7387H24.4977L24.5396 10.7258L24.5985 10.758L24.6378 10.8005L24.698 10.8172L24.7713 10.8134L24.7373 10.852L24.7203 10.8803L24.7255 10.9086L24.7412 10.9189H24.7596L24.7884 10.915L24.9598 10.8365L24.952 10.8932L24.9389 10.9189L24.9245 10.9357L24.9389 10.9563H24.9756L25.0148 10.9691L25.0397 10.9987L25.0462 11.049L25.096 11.0695L25.1353 11.085L25.206 11.1519L25.2243 11.1867L25.2309 11.2086L25.2086 11.2331L25.1601 11.2421H25.1104L25.1235 11.2717L25.1824 11.3051L25.1902 11.327L25.1772 11.3476L25.1601 11.3605L25.1169 11.3837L25.0384 11.4815L24.99 11.5407L24.986 11.5626L24.9952 11.5807L25.0083 11.5948L25.0345 11.6026L25.0738 11.6012L25.308 11.5717L25.5608 11.5639L25.4769 11.5884L25.4822 11.6012L25.5097 11.609L25.6746 11.5807L25.7205 11.5781L25.7663 11.5871L25.8736 11.6296L25.909 11.6424L25.9208 11.6296L25.9273 11.6154L25.905 11.5755L25.892 11.5601L25.8736 11.5446H25.9024L25.9679 11.6167L25.9993 11.6283L26.0307 11.6296L26.0609 11.6154L26.0634 11.5948L26.0609 11.5807L26.0098 11.5176L26.0504 11.5434L26.0687 11.5575L26.0792 11.5704L26.0831 11.5884L26.0988 11.5704L26.1027 11.5588L26.0962 11.5407L26.0792 11.5228L26.0307 11.4751L25.888 11.4043L25.8566 11.394L25.8291 11.3824H25.7911L25.7623 11.3888L25.5385 11.439L25.5018 11.4442L25.4613 11.4417L25.4246 11.4326L25.3853 11.3876L25.367 11.367L25.3316 11.3528L25.2963 11.349L25.2596 11.3348V11.3142L25.3042 11.3026H25.3369L25.3631 11.3077L25.3958 11.3206L25.3801 11.2846L25.3631 11.2601L25.3395 11.2357L25.308 11.2202L25.274 11.2086L25.3041 11.1932L25.3264 11.1919L25.3447 11.1957L25.3578 11.206L25.3853 11.0219L25.3892 10.9833L25.3866 10.9434L25.3748 10.9215L25.3604 10.8932L25.3343 10.8854L25.308 10.8867L25.2819 10.8932L25.2963 10.852L25.3159 10.8262L25.3526 10.8121L25.3866 10.8031L25.4167 10.8095L25.4613 10.7348L25.4887 10.6807L25.5097 10.6267L25.5136 10.5996L25.5162 10.5649L25.5084 10.5224L25.5005 10.4992L25.4599 10.3486L25.4167 10.2198L25.3945 10.1992L25.3748 10.1825L25.3238 10.1606L25.274 10.1452L25.1667 10.1284L25.2073 10.1155L25.2688 10.1039H25.3264L25.422 10.1091L25.5987 10.1335L25.7872 10.1696L25.8422 10.1799L25.8946 10.1902L25.9548 10.2069L26.0412 10.2468L26.1041 10.2803L26.1276 10.2842L26.1617 10.2726L26.2363 10.2417L26.2559 10.2224L26.2886 10.1966L26.3305 10.1709L26.3109 10.167L26.2637 10.1465Z" fill="#86BC8B"/>
<path fill-rule="evenodd" clip-rule="evenodd" d="M27.8282 9.95437L27.9748 10.0548L27.9944 10.0767L28.0036 10.0909L28.0128 10.105L28.0206 10.1192L28.0232 10.1359L28.0364 10.2093L28.1044 10.2724L28.145 10.3174L28.1712 10.3548L28.179 10.3651L28.1777 10.3767H28.1607L28.1267 10.3728L28.0717 10.3573L28.0926 10.3767L28.1044 10.396V10.4191L28.1096 10.432L28.1227 10.4539L28.1018 10.481L28.0874 10.4951L28.0612 10.4977L28.0376 10.4925L28.0154 10.4797L28.0023 10.4604L27.9944 10.4295L27.9892 10.4063L27.9918 10.387L27.9944 10.3689L28.0167 10.329L28.0691 10.3509L28.0193 10.3136L28.0023 10.2981L27.9892 10.2763L27.9722 10.2351L27.963 10.2119L27.9761 10.2183H27.9918L27.9787 10.208L27.9669 10.1964L27.9538 10.1836L27.9447 10.1642L27.9407 10.1436L27.929 10.1411L27.9159 10.1192L27.9067 10.1037L27.9159 10.0715L27.9067 10.0664L27.8884 10.078L27.8818 10.0973L27.8844 10.1127L27.9015 10.1295L27.8962 10.1359L27.8897 10.1449L27.8242 10.1681L27.7928 10.1964L27.7666 10.2183L27.7326 10.2376L27.7051 10.2454L27.654 10.2544L27.6946 10.2531H27.7208L27.7378 10.2453L27.7614 10.2389L27.802 10.208L27.8177 10.2003L27.8412 10.2041L27.8635 10.217L27.9015 10.2247H27.9316L27.9617 10.2724L27.9774 10.311L27.9761 10.3393L27.9669 10.3625L27.9591 10.3741L27.9564 10.396L27.9617 10.4178L27.9696 10.4423L27.9774 10.4616L27.8818 10.432L27.8596 10.4295L27.8347 10.432L27.6357 10.5208L27.5637 10.4694L27.5454 10.3509L27.5873 10.2762L27.5205 10.235L27.5585 10.2402L27.5663 10.2144L27.5532 10.1758L27.5467 10.1629L27.5532 10.1192L27.5637 10.0908L27.5886 10.0535H27.5663L27.6147 10.0149L27.5925 10.0033L27.6423 9.9917L27.7156 9.94407L27.7339 9.93765L27.7614 9.93506L27.8007 9.94021L27.8282 9.95437Z" fill="#86BC8B"/>
<path fill-rule="evenodd" clip-rule="evenodd" d="M27.5872 10.2722L27.5937 10.2954L27.5807 10.3238L27.5663 10.3662L27.5597 10.3958L27.5675 10.4242L27.5885 10.4615L27.6121 10.4911L27.6225 10.4692L27.6422 10.4538L27.6317 10.4872L27.6513 10.4692L27.6749 10.4589L27.7024 10.4538H27.7325L27.76 10.4589L27.7888 10.4473L27.832 10.4319L27.8464 10.4306L27.8071 10.4499L27.7928 10.4602L27.7849 10.4718L27.7823 10.4808V10.4924L27.798 10.5001L27.8098 10.5027L27.8477 10.5181L27.8844 10.5426L27.9236 10.5555L27.9511 10.5683L27.9812 10.5709L27.9983 10.5671L28.0074 10.558L28.0048 10.5452L28.0179 10.5555V10.5671L28.0153 10.589L28.0022 10.6057L27.9852 10.616L27.9577 10.6186L27.9276 10.616L27.8922 10.6031L27.8412 10.5787L27.7928 10.5683L27.7482 10.5606L27.6395 10.5336L27.616 10.522L27.5951 10.5065L27.5479 10.4615L27.5414 10.4473L27.5283 10.4229L27.5204 10.3958L27.5165 10.3585L27.5204 10.3276L27.5335 10.3005L27.5414 10.2928L27.5427 10.2825L27.5375 10.2696H27.5126L27.4838 10.2799L27.4628 10.2915L27.4458 10.3108L27.4249 10.3443L27.4144 10.3687V10.3958L27.4196 10.419L27.4327 10.4692L27.4406 10.4936L27.4445 10.5233L27.4471 10.5516L27.4367 10.5979L27.4249 10.6263L27.4131 10.6546L27.3921 10.6816L27.3568 10.7164L27.2769 10.7885L27.2822 10.7537L27.256 10.7164L27.2207 10.6919L27.1984 10.6662L27.1853 10.6378L27.1814 10.607L27.1932 10.5438L27.2324 10.4576L27.2887 10.3752L27.3385 10.3224L27.383 10.2863L27.4184 10.2619L27.4524 10.2452L27.4812 10.2387L27.5205 10.2349L27.5584 10.24L27.5767 10.258L27.5872 10.2722Z" fill="#86BC8B"/>
<path fill-rule="evenodd" clip-rule="evenodd" d="M25.6315 10.8365V10.8095H25.6171L25.6105 10.7889L25.6158 10.7683L25.6236 10.7541L25.6105 10.7335H25.5883L25.5948 10.7001L25.5961 10.6588L25.5948 10.6189L25.5883 10.5739L25.5752 10.543L25.57 10.5288L25.6302 10.4838L25.566 10.4799L25.6236 10.4593L25.638 10.4426L25.6302 10.4168L25.6171 10.4026L25.5857 10.3846L25.5543 10.373L25.5241 10.3679L25.5817 10.3331L25.5451 10.3241L25.5752 10.2971L25.5019 10.2558L25.4888 10.2481L25.4456 10.1915L25.4469 10.1735L25.46 10.1632L25.4901 10.1567L25.5136 10.167L25.532 10.1915L25.5568 10.2082L25.5922 10.2044L25.6105 10.1992L25.6629 10.1631L25.7388 10.1709L25.7859 10.1812L25.8186 10.1876L25.892 10.207L25.8593 10.2147L25.8566 10.2211L25.8488 10.2353L25.8187 10.2507L25.8056 10.261L25.803 10.2765L25.8095 10.3048L25.8462 10.3177L25.8789 10.3125L25.9011 10.2932L25.9116 10.27L25.9208 10.2571H25.9313L25.9286 10.2391L25.943 10.2314H25.9601L26.0059 10.2417L26.0307 10.2533L26.0687 10.2803L26.1001 10.3099L26.0687 10.3344L26.0412 10.3576L26.0033 10.4026L25.9745 10.4516L25.9404 10.5146L25.9208 10.5391L25.9025 10.5571L25.871 10.579L25.7178 10.6408L25.6904 10.6511L25.6746 10.6614L25.6655 10.6743V10.6987L25.6746 10.7271L25.7126 10.8365L25.6602 10.8095L25.6524 10.8365L25.6393 10.8455L25.6315 10.8365Z" fill="#86BC8B"/>
<path fill-rule="evenodd" clip-rule="evenodd" d="M26.938 10.522L26.9589 10.4795H26.9785L26.9995 10.4692L27.0152 10.4525L27.0178 10.4293L26.9969 10.4164L26.9759 10.4215L26.9629 10.4396L26.9536 10.4512L26.9458 10.4061L26.917 10.3392L26.9104 10.3095L26.9052 10.2851L26.9209 10.2928L26.9392 10.289L26.9497 10.2825L26.9536 10.2632L26.9458 10.2542L26.9275 10.2529L26.9104 10.2606L26.8974 10.2555L26.8908 10.2439L26.8921 10.2297L26.9 10.2181L26.9144 10.2091L26.934 10.204L26.9536 10.2091L26.9733 10.2117L26.9968 10.2207L27.0217 10.2233L27.0427 10.2181L27.0531 10.2014L27.0479 10.186L27.027 10.1486L27.061 10.1357L27.0976 10.119L27.1422 10.0984L27.1539 10.1074V10.1254L27.1566 10.1422L27.1696 10.1499L27.1984 10.1461L27.2168 10.1306L27.2246 10.1164L27.2272 10.1048L27.2194 10.074L27.2508 10.0533L27.2822 10.043L27.3045 10.0366L27.332 10.0405L27.3516 10.0559L27.3634 10.0701L27.3608 10.0881L27.3438 10.1087L27.2534 10.1692L27.3032 10.1628L27.3438 10.1666L27.3804 10.1692L27.3948 10.1757L27.4026 10.186V10.2078L27.3922 10.2336L27.3228 10.2941L27.3045 10.3134L27.2718 10.3559L27.2338 10.4087L27.1945 10.4654L27.1526 10.5452L27.1395 10.5774L27.1291 10.6198L27.1238 10.6675L27.1304 10.7113L27.1526 10.8233L27.15 10.8683L27.1435 10.9147L27.133 10.9597L27.1042 11.0164L27.0832 11.055L27.0453 11.0962L27.006 11.1413L26.9693 11.1709L26.9222 11.2044L26.8816 11.2314L26.8437 11.2481L26.8005 11.2662L26.8751 11.2186L26.9052 11.1876L26.9235 11.1593L26.9025 11.1464L26.8423 11.1348L26.858 11.1194L26.8292 11.1143V11.0949L26.824 11.0756L26.8057 11.0692L26.7808 11.0614L26.7546 11.0589L26.7363 11.046L26.7232 11.0383L26.6957 11.0357L26.752 11.0138L26.7769 11.0215L26.8096 11.0305L26.8384 11.0215L26.8646 11.0061L26.8724 10.9842L26.8698 10.9597L26.8606 10.9481L26.9222 10.8799L26.9392 10.8477L26.9536 10.8181L26.9693 10.7679L26.9772 10.7215L26.9785 10.692L26.9732 10.6546L26.9379 10.549V10.522L26.938 10.522Z" fill="#86BC8B"/>
<path fill-rule="evenodd" clip-rule="evenodd" d="M26.2768 10.2043L26.2349 10.2287L26.193 10.2661L26.1577 10.297L26.1904 10.2982L26.197 10.3137L26.1904 10.3292L26.1237 10.3742L26.0844 10.4115L26.0098 10.503L26.0674 10.4721L26.1119 10.4541L26.18 10.4373L26.1093 10.4721L26.0792 10.4978L26.0176 10.5776L25.96 10.6188L25.9116 10.6304H25.8959L25.8461 10.6343L25.7597 10.6549L25.7414 10.6691L25.7296 10.7L25.731 10.7669L25.7598 10.866L25.8095 10.9986L25.909 11.1532L25.9889 11.2497L26.0805 11.4042L26.1066 11.4338L26.1499 11.4467L26.2454 11.439L26.2101 11.4956L26.2742 11.5239L26.2454 11.5523L26.286 11.5575L26.3253 11.5703L26.3659 11.6218L26.3789 11.6772L26.303 11.6424L26.2664 11.6565L26.2179 11.7003L26.1524 11.7416L26.0399 11.7286L26.0058 11.7313L25.981 11.7416L25.9378 11.7763L25.888 11.7904L25.8723 11.8072L25.8671 11.8535L25.8723 11.8664L25.888 11.8819L25.9037 11.8922L26.1119 11.8832L26.1407 11.878L26.2742 11.8239L26.3593 11.7775L26.3921 11.7557L26.4169 11.7338L26.4352 11.7094L26.4418 11.6861L26.4457 11.6437L26.4418 11.6012L26.3528 11.3205L26.2284 11.0617L26.1983 11.0502L26.1747 11.0463H26.1629L26.1171 11.0502L26.1524 11.0231L26.1734 11.0218L26.2022 11.027L26.1669 10.9639L26.1407 10.9381L26.0975 10.9137L26.0569 10.8982L26.0137 10.9047L25.981 10.9214L25.909 10.8738L25.8461 10.8583L25.8527 10.8159L25.8776 10.7901L25.9129 10.7888L25.9496 10.7849L25.9915 10.7991L26.0635 10.8442L25.9535 10.6974H25.9784L26.0111 10.7115L26.0739 10.7733L26.1381 10.8583L26.1721 10.9046L26.2035 10.9137L26.303 10.9149L26.3358 10.9266L26.375 10.9562L26.4392 11.0192L26.4811 11.0386L26.574 11.0411L26.6356 11.0334L26.6866 11.0167L26.7887 10.9703L26.8672 10.9214L26.8987 10.8905L26.9183 10.8596L26.9393 10.8248L26.9497 10.7849L26.9524 10.7553L26.9576 10.727L26.9524 10.6909L26.9432 10.6382L26.9288 10.5841L26.9157 10.5455L26.8384 10.4116L26.8057 10.3575L26.7808 10.297L26.7704 10.2584L26.7769 10.2081L26.6827 10.1734L26.6303 10.1567L26.591 10.1489H26.5531L26.4811 10.1554L26.3881 10.1631L26.3501 10.1696L26.3082 10.1876L26.2768 10.2043Z" fill="#86BC8B"/>
<path fill-rule="evenodd" clip-rule="evenodd" d="M27.6213 9.9725L27.6278 9.94545L27.6344 9.91713V9.89653L27.6304 9.87595L27.6226 9.86694L27.6095 9.85664H27.5925L27.5754 9.86694L27.5637 9.87851L27.5454 9.90169L27.5087 9.94676L27.5336 9.89011L27.472 9.93L27.5087 9.89398L27.5362 9.86435L27.5637 9.84116L27.5859 9.83088L27.6042 9.82959L27.6213 9.83088L27.637 9.84116L27.6461 9.85664L27.654 9.8811L27.6566 9.90297L27.6684 9.93002L27.6514 9.95447L27.6213 9.9725Z" fill="#86BC8B"/>
<path fill-rule="evenodd" clip-rule="evenodd" d="M25.761 9.98023L25.7453 9.99826L25.7283 10.006L25.7034 10.0098H25.6733L25.6536 9.99827L25.6471 9.98023L25.6602 9.96607L25.6785 9.96094H25.7139L25.7387 9.96995L25.761 9.98023Z" fill="#86BC8B"/>
<path fill-rule="evenodd" clip-rule="evenodd" d="M27.7914 9.9585H27.811L27.828 9.96365L27.8333 9.97652L27.8228 9.98167H27.8136L27.8032 9.97652L27.7914 9.9585Z" fill="#86BC8B"/>
<path fill-rule="evenodd" clip-rule="evenodd" d="M25.4952 10.0096L25.473 10.0032L25.4678 9.99031L25.4782 9.971L25.4992 9.96973L25.5188 9.97356L25.5437 9.98517L25.5384 10.0019L25.5214 10.0045L25.4952 10.0096Z" fill="#86BC8B"/>
<path fill-rule="evenodd" clip-rule="evenodd" d="M27.5466 10.0807L27.5166 10.1116L27.5008 10.1167L27.4943 10.1193L27.4812 10.1116L27.4746 10.0884L27.472 10.0678L27.4733 10.0498L27.4773 10.0279L27.4864 10.0021L27.5008 9.98154L27.5244 9.94678L27.5126 9.99311L27.5048 10.0202L27.5022 10.0446L27.5087 10.0678V10.0768L27.5192 10.0832L27.5466 10.0807Z" fill="#86BC8B"/>
<path fill-rule="evenodd" clip-rule="evenodd" d="M25.27 9.97994L25.2713 9.99796L25.2609 10.0173L25.236 10.0417L25.202 10.052H25.181L25.1705 10.043L25.1666 10.0276L25.1836 10.0057L25.2504 9.97607L25.27 9.97994Z" fill="#86BC8B"/>
<path fill-rule="evenodd" clip-rule="evenodd" d="M25.3984 10.0419L25.3932 10.06L25.3788 10.0767L25.3578 10.0921L25.3382 10.0883L25.3212 10.069V10.0496L25.3238 10.0381L25.3408 10.0175L25.3565 10.0059H25.3814L25.3958 10.0175L25.3984 10.0419Z" fill="#86BC8B"/>
<path fill-rule="evenodd" clip-rule="evenodd" d="M25.8618 10.0804L25.8383 10.0958L25.8003 10.0881L25.7794 10.0752L25.7728 10.0675V10.043L25.7912 10.0366H25.8212L25.8501 10.0546L25.8618 10.0804Z" fill="#86BC8B"/>
<path fill-rule="evenodd" clip-rule="evenodd" d="M25.6445 10.0731L25.6209 10.0821H25.5659L25.562 10.0756L25.5685 10.0538L25.5973 10.0435L25.6353 10.0551L25.6445 10.0731Z" fill="#86BC8B"/>
<path fill-rule="evenodd" clip-rule="evenodd" d="M24.918 10.1052L24.8944 10.1168L24.8564 10.0923L24.8695 10.0679H24.9075L24.918 10.0808V10.1052Z" fill="#86BC8B"/>
<path fill-rule="evenodd" clip-rule="evenodd" d="M25.8986 10.1049L25.9012 10.0843L25.9195 10.0675L25.9496 10.0547L25.964 10.065V10.0882L25.9496 10.0985L25.9051 10.1113L25.8986 10.1049Z" fill="#86BC8B"/>
<path fill-rule="evenodd" clip-rule="evenodd" d="M27.2534 10.1062L27.2652 10.0972L27.2783 10.0985L27.2862 10.1062L27.2822 10.1165L27.2704 10.1294L27.2587 10.1333L27.2456 10.1281L27.2443 10.1165L27.2534 10.1062Z" fill="#86BC8B"/>
<path fill-rule="evenodd" clip-rule="evenodd" d="M26.0896 10.2043L26.0752 10.1992L26.0621 10.185L26.0648 10.1696L26.0765 10.1567L26.0883 10.1528L26.125 10.167L26.138 10.1902L26.1119 10.2031L26.0896 10.2043Z" fill="#86BC8B"/>
<path fill-rule="evenodd" clip-rule="evenodd" d="M27.1081 10.1772H27.1224L27.1447 10.1914L27.1526 10.221L27.1356 10.2378L27.1224 10.2455L27.108 10.2365L27.0806 10.2133L27.0858 10.1901L27.1081 10.1772Z" fill="#86BC8B"/>
<path fill-rule="evenodd" clip-rule="evenodd" d="M25.0188 10.2774V10.2607L25.0293 10.244L25.0764 10.2182L25.0947 10.2144L25.0934 10.2504L25.0672 10.2671L25.0423 10.2826L25.0292 10.2878L25.0188 10.2774Z" fill="#86BC8B"/>
<path fill-rule="evenodd" clip-rule="evenodd" d="M26.4915 10.2777L26.447 10.2726L26.4025 10.2662L26.3802 10.2584L26.3881 10.2417L26.4156 10.2275H26.4405L26.4653 10.2404L26.4915 10.2777Z" fill="#86BC8B"/>
<path fill-rule="evenodd" clip-rule="evenodd" d="M27.2102 10.2352L27.2377 10.2236L27.2599 10.2197L27.2743 10.2236L27.2835 10.2326L27.2822 10.2442L27.2717 10.2532L27.1893 10.279L27.1814 10.2764L27.1945 10.2532L27.2102 10.2352Z" fill="#86BC8B"/>
<path fill-rule="evenodd" clip-rule="evenodd" d="M26.2388 10.2183L26.2545 10.2208L26.3017 10.2402V10.253L26.2886 10.2659H26.2519L26.2296 10.253L26.2257 10.2337L26.2388 10.2183Z" fill="#86BC8B"/>
<path fill-rule="evenodd" clip-rule="evenodd" d="M24.7804 10.2529L24.7686 10.3019L24.7176 10.3392H24.6796L24.6678 10.3276L24.6718 10.3044L24.6914 10.2838L24.7176 10.2684L24.7438 10.2529H24.7804L24.7804 10.2529Z" fill="#86BC8B"/>
<path fill-rule="evenodd" clip-rule="evenodd" d="M25.757 10.2559V10.2675L25.7505 10.2778L25.6641 10.3061L25.6471 10.3022L25.6366 10.2894L25.6418 10.2726L25.6615 10.261L25.757 10.2559Z" fill="#86BC8B"/>
<path fill-rule="evenodd" clip-rule="evenodd" d="M24.5579 10.3241L24.5435 10.3396L24.5173 10.3408L24.5003 10.3344L24.4924 10.328V10.3022L24.5055 10.2778L24.5291 10.27L24.554 10.2778L24.5605 10.3022L24.5579 10.3241Z" fill="#86BC8B"/>
<path fill-rule="evenodd" clip-rule="evenodd" d="M24.9441 10.2827L24.9559 10.3072L24.918 10.3561H24.8944V10.3329L24.918 10.2827H24.9441Z" fill="#86BC8B"/>
<path fill-rule="evenodd" clip-rule="evenodd" d="M26.6473 10.2851L26.591 10.3134L26.5648 10.3199L26.5399 10.3096L26.5242 10.3006L26.5177 10.289L26.519 10.2774L26.5347 10.2671L26.5779 10.2774L26.6041 10.289L26.6473 10.2851Z" fill="#86BC8B"/>
<path fill-rule="evenodd" clip-rule="evenodd" d="M27.091 10.3008L27.1002 10.3188L27.0923 10.3343L27.0661 10.351L27.0373 10.3562H27.019L27.0072 10.3446V10.3343L27.0138 10.3188L27.0347 10.3124L27.0609 10.3046L27.091 10.3008Z" fill="#86BC8B"/>
<path fill-rule="evenodd" clip-rule="evenodd" d="M27.7352 10.3637L27.6841 10.3379L27.671 10.3302L27.6723 10.3134L27.6881 10.3096L27.7038 10.3173L27.7352 10.3637Z" fill="#86BC8B"/>
<path fill-rule="evenodd" clip-rule="evenodd" d="M25.2074 10.3509L25.1785 10.3676L25.1536 10.3792L25.0738 10.3895L25.0607 10.3856L25.0568 10.3637L25.0843 10.3341L25.1223 10.3199L25.1615 10.3174L25.189 10.3264L25.2074 10.3509Z" fill="#86BC8B"/>
<path fill-rule="evenodd" clip-rule="evenodd" d="M26.0124 10.3276L25.9954 10.3675L25.9744 10.3792L25.9548 10.3779H25.9299L25.9089 10.365V10.3508L25.9207 10.3379L25.9417 10.3328L25.9849 10.3276L26.0124 10.3276Z" fill="#86BC8B"/>
<path fill-rule="evenodd" clip-rule="evenodd" d="M26.3397 10.328L26.2847 10.3627L26.2716 10.3679L26.2559 10.3653L26.2467 10.3524L26.252 10.3396L26.2716 10.3202L26.2899 10.3125L26.3135 10.3138L26.3397 10.328Z" fill="#86BC8B"/>
<path fill-rule="evenodd" clip-rule="evenodd" d="M27.5991 10.3122V10.3329L27.5978 10.3483L27.5873 10.3586H27.5716L27.5637 10.3483L27.565 10.329L27.5742 10.3174L27.5886 10.3071H27.6122L27.5991 10.3122Z" fill="#86BC8B"/>
<path fill-rule="evenodd" clip-rule="evenodd" d="M25.2819 10.3228L25.2963 10.3305L25.308 10.3472L25.2963 10.364L25.2792 10.3678L25.2583 10.364L25.2452 10.3511L25.2583 10.3395L25.2688 10.3279L25.2819 10.3228Z" fill="#86BC8B"/>
<path fill-rule="evenodd" clip-rule="evenodd" d="M27.4812 10.629L27.387 10.6998L27.4145 10.6573L27.438 10.6238L27.4511 10.5942L27.4537 10.5633V10.5401L27.4485 10.508L27.438 10.4771L27.4249 10.4436L27.4171 10.4114V10.3844L27.4249 10.356L27.438 10.3406L27.4537 10.3213L27.4564 10.3753L27.4642 10.4101L27.4839 10.4577L27.5022 10.4848L27.5257 10.5221L27.5336 10.5453L27.531 10.571L27.5218 10.5942L27.5048 10.6084L27.4812 10.629Z" fill="#86BC8B"/>
<path fill-rule="evenodd" clip-rule="evenodd" d="M24.8564 10.4255L24.842 10.441L24.7844 10.4552L24.7687 10.45L24.7556 10.4255L24.7609 10.4011L24.7805 10.3754L24.8185 10.3638L24.8433 10.3754L24.8512 10.3985L24.8564 10.4255Z" fill="#86BC8B"/>
<path fill-rule="evenodd" clip-rule="evenodd" d="M24.6312 10.4154L24.6182 10.4321L24.6051 10.4373L24.5802 10.4257V10.3999L24.6051 10.3639L24.6391 10.3472L24.6312 10.3883L24.6312 10.4154Z" fill="#86BC8B"/>
<path fill-rule="evenodd" clip-rule="evenodd" d="M26.7925 10.3999L26.7886 10.4192H26.7166L26.7009 10.4167L26.6695 10.3973L26.6669 10.3948L26.6682 10.3832L26.6787 10.3755H26.7415L26.7925 10.3999Z" fill="#86BC8B"/>
<path fill-rule="evenodd" clip-rule="evenodd" d="M25.8356 10.3753L25.8409 10.3869L25.8356 10.4011L25.7492 10.4371L25.7243 10.4333L25.7178 10.4217L25.7204 10.4011L25.7322 10.3869L25.7518 10.3818L25.8186 10.374L25.8356 10.3753Z" fill="#86BC8B"/>
<path fill-rule="evenodd" clip-rule="evenodd" d="M26.4157 10.4254L26.4026 10.4473L26.3725 10.4641L26.3528 10.4628L26.3397 10.4371L26.3502 10.4242L26.3895 10.4126L26.4157 10.4254Z" fill="#86BC8B"/>
<path fill-rule="evenodd" clip-rule="evenodd" d="M25.1823 10.4503L25.1431 10.4748L25.0763 10.4876H25.0566L25.0436 10.4748L25.0566 10.4503L25.0894 10.4438H25.1221L25.1823 10.4503Z" fill="#86BC8B"/>
<path fill-rule="evenodd" clip-rule="evenodd" d="M25.2871 10.4409V10.4576L25.2504 10.4769L25.2334 10.4743L25.2203 10.4628L25.2269 10.4499L25.2701 10.437L25.2871 10.4409Z" fill="#86BC8B"/>
<path fill-rule="evenodd" clip-rule="evenodd" d="M25.8735 10.4502L25.8905 10.4643L25.884 10.4888L25.8683 10.5043L25.8211 10.521L25.8107 10.5184L25.8068 10.512L25.8029 10.5056L25.8159 10.4862L25.8395 10.4708L25.85 10.4631L25.8735 10.4502Z" fill="#86BC8B"/>
<path fill-rule="evenodd" clip-rule="evenodd" d="M24.605 10.5349L24.5958 10.5169L24.605 10.4872L24.6272 10.4718L24.6429 10.4692L24.6678 10.477L24.6796 10.4872L24.6678 10.5117L24.6312 10.5375L24.605 10.5349Z" fill="#86BC8B"/>
<path fill-rule="evenodd" clip-rule="evenodd" d="M26.629 10.549L26.6015 10.5388L26.5936 10.5195L26.5963 10.5027L26.608 10.4924L26.6735 10.4692L26.6813 10.4718L26.6905 10.4744V10.4872L26.6787 10.5246L26.6539 10.549L26.629 10.549Z" fill="#86BC8B"/>
<path fill-rule="evenodd" clip-rule="evenodd" d="M25.6562 10.5208L25.6641 10.5079L25.6851 10.4976L25.7348 10.4873L25.7505 10.4938L25.761 10.5118L25.7557 10.5285L25.74 10.5388L25.7177 10.5427L25.6641 10.5363L25.6562 10.5208Z" fill="#86BC8B"/>
<path fill-rule="evenodd" clip-rule="evenodd" d="M26.5282 10.5001L26.5347 10.5207L26.5282 10.5375L26.5151 10.549L26.4915 10.5529L26.4784 10.5426V10.5285L26.4889 10.5066L26.4967 10.5014L26.5203 10.4976L26.5282 10.5001Z" fill="#86BC8B"/>
<path fill-rule="evenodd" clip-rule="evenodd" d="M26.7663 10.5761L26.7598 10.5683L26.7637 10.5529L26.7755 10.5323L26.8043 10.5117L26.8226 10.5143L26.8318 10.5284L26.8252 10.5465L26.8148 10.5568L26.7781 10.5735L26.7663 10.5761Z" fill="#86BC8B"/>
<path fill-rule="evenodd" clip-rule="evenodd" d="M27.027 10.5945L27.006 10.6074L26.9903 10.5971L26.9798 10.5855L26.968 10.561V10.525L26.9798 10.5005H27.0073L27.0191 10.5121L27.027 10.543L27.0296 10.5752L27.027 10.5945Z" fill="#86BC8B"/>
<path fill-rule="evenodd" clip-rule="evenodd" d="M25.0567 10.5117L25.0187 10.598L24.9938 10.6224L24.9598 10.6263L24.9428 10.6224L24.9297 10.598V10.5606L24.9519 10.54L24.9952 10.5169L25.0318 10.5117L25.0567 10.5117Z" fill="#86BC8B"/>
<path fill-rule="evenodd" clip-rule="evenodd" d="M24.8067 10.6109L24.787 10.6199L24.7687 10.6225L24.7556 10.6109V10.5852L24.7687 10.5491L24.7936 10.5247L24.8289 10.5156L24.8394 10.5234V10.5401L24.8067 10.6109Z" fill="#86BC8B"/>
<path fill-rule="evenodd" clip-rule="evenodd" d="M26.3763 10.5983L26.358 10.6111H26.3396L26.3226 10.597L26.3252 10.5738L26.3449 10.5635H26.3724L26.3894 10.5738L26.3763 10.5983Z" fill="#86BC8B"/>
<path fill-rule="evenodd" clip-rule="evenodd" d="M25.3839 10.5852L25.346 10.6109H25.308L25.2583 10.598L25.2334 10.5736L25.2465 10.5633L25.2753 10.5581L25.329 10.5723L25.3839 10.5852Z" fill="#86BC8B"/>
<path fill-rule="evenodd" clip-rule="evenodd" d="M24.1154 10.5737L24.088 10.6188L24.0749 10.669L24.0814 10.7012L24.1011 10.7346L24.0631 10.7436L24.0356 10.7514L24.0146 10.7591V10.7102L24.0212 10.6677L24.0408 10.6278L24.0644 10.5969L24.0893 10.5737H24.1154Z" fill="#86BC8B"/>
<path fill-rule="evenodd" clip-rule="evenodd" d="M23.9386 10.5855L24.0119 10.5752L23.9936 10.5945L23.9766 10.6112H23.9635L23.9386 10.5855Z" fill="#86BC8B"/>
<path fill-rule="evenodd" clip-rule="evenodd" d="M27.2324 10.6728L27.2075 10.6599L27.1997 10.6419L27.2036 10.62L27.2102 10.6033L27.2324 10.5981L27.2403 10.6161V10.6599L27.2363 10.6664L27.2324 10.6728Z" fill="#86BC8B"/>
<path fill-rule="evenodd" clip-rule="evenodd" d="M23.762 10.7951L23.7515 10.8054L23.7306 10.8119L23.6992 10.8093L23.6743 10.7835L23.673 10.7655L23.6874 10.732L23.7502 10.6355L23.8 10.5981L23.7633 10.6599L23.7607 10.6767L23.7568 10.6908L23.7581 10.7166L23.7646 10.7565L23.7659 10.7784L23.762 10.7951Z" fill="#86BC8B"/>
<path fill-rule="evenodd" clip-rule="evenodd" d="M23.8876 10.5981L23.8732 10.6175L23.8719 10.6381L23.8772 10.6586L23.8955 10.6767L23.94 10.7076L23.9492 10.7204L23.9452 10.741L23.919 10.7655L23.9007 10.7719L23.8863 10.7617L23.8627 10.7217L23.8536 10.6934L23.851 10.6625V10.6393L23.8627 10.611L23.8876 10.5981Z" fill="#86BC8B"/>
<path fill-rule="evenodd" clip-rule="evenodd" d="M24.1653 10.5981H24.1889L24.215 10.6084L24.2386 10.6342L24.2687 10.6857L24.2792 10.7217L24.2753 10.7333L24.2661 10.7346L24.2281 10.7462L24.2412 10.7101L24.2334 10.6767L24.2216 10.6509L24.2032 10.6226L24.1653 10.5981Z" fill="#86BC8B"/>
<path fill-rule="evenodd" clip-rule="evenodd" d="M25.155 10.6059L25.1615 10.6381L25.1327 10.6548L25.0869 10.6638L25.0686 10.6599L25.0568 10.6355L25.0686 10.611L25.0948 10.5981H25.1327L25.155 10.6059Z" fill="#86BC8B"/>
<path fill-rule="evenodd" clip-rule="evenodd" d="M23.5865 10.8581L23.5655 10.7796L23.5551 10.7976L23.5446 10.813L23.5276 10.822L23.5145 10.8246L23.5014 10.8169L23.4857 10.8465L23.4661 10.8658L23.4438 10.8774L23.4215 10.8851L23.398 10.8903H23.3639V10.8607L23.3574 10.8259L23.3469 10.795L23.3247 10.7667L23.2932 10.7512L23.2605 10.7461L23.2723 10.7216L23.2972 10.71H23.3286L23.3561 10.7177L23.3849 10.7383L23.3927 10.7615L23.398 10.7834V10.8207L23.4084 10.8349H23.4359L23.4739 10.8207L23.4988 10.8091V10.7834L23.4857 10.7345L23.4608 10.6984L23.4988 10.6727V10.71L23.5145 10.7319L23.5354 10.7383L23.5616 10.7345L23.5865 10.7216L23.5983 10.6726L23.5734 10.6482L23.6991 10.6108L23.6651 10.6495L23.6376 10.692L23.6179 10.7306L23.6087 10.7538L23.5983 10.795L23.5865 10.8581Z" fill="#86BC8B"/>
<path fill-rule="evenodd" clip-rule="evenodd" d="M26.6669 10.6226L26.6472 10.6625L26.608 10.7037L26.5831 10.7204L26.553 10.7217L26.5347 10.7114L26.5294 10.6921L26.5399 10.6766L26.5661 10.6599L26.5909 10.6419L26.6158 10.6354L26.6669 10.6226Z" fill="#86BC8B"/>
<path fill-rule="evenodd" clip-rule="evenodd" d="M22.0784 10.6602L22.0469 10.6718L22.026 10.6833L21.9736 10.7206L21.9906 10.6885L22.0129 10.6718L22.0391 10.6602H22.0784Z" fill="#86BC8B"/>
<path fill-rule="evenodd" clip-rule="evenodd" d="M26.125 10.6856L26.0804 10.6997L26.0674 10.6894L26.0621 10.6726L26.0752 10.6598L26.1066 10.6572L26.1315 10.6623L26.1354 10.6765L26.125 10.6856Z" fill="#86BC8B"/>
<path fill-rule="evenodd" clip-rule="evenodd" d="M26.7783 10.6602H26.7979L26.8149 10.6769L26.8175 10.6988L26.8058 10.7155L26.7743 10.7413L26.7652 10.7541L26.7481 10.7619L26.7298 10.7593L26.7141 10.7413L26.7154 10.7245L26.7285 10.7103L26.7495 10.691L26.7652 10.6692L26.7783 10.6602Z" fill="#86BC8B"/>
<path fill-rule="evenodd" clip-rule="evenodd" d="M26.989 10.651L27.0061 10.6484L27.0191 10.651L27.0244 10.669L27.0152 10.6884L27.0034 10.6935L26.9864 10.6884L26.9799 10.669L26.989 10.651Z" fill="#86BC8B"/>
<path fill-rule="evenodd" clip-rule="evenodd" d="M22.2276 10.6984L22.1661 10.7048L22.1399 10.7151L22.1137 10.7319L22.0993 10.7576L22.0731 10.8014L22.0744 10.7679L22.0823 10.737L22.0993 10.71L22.1229 10.6933L22.1477 10.6855H22.1779L22.2276 10.6984Z" fill="#86BC8B"/>
<path fill-rule="evenodd" clip-rule="evenodd" d="M25.3329 10.6855L25.2701 10.7344L25.2203 10.755H25.2006L25.1954 10.746L25.1993 10.7319L25.2203 10.71L25.2962 10.6856L25.3329 10.6855Z" fill="#86BC8B"/>
<path fill-rule="evenodd" clip-rule="evenodd" d="M26.2821 10.7216L26.252 10.7267H26.2297L26.2088 10.7164L26.2009 10.71V10.6932L26.2219 10.6868L26.2559 10.6816L26.2847 10.6984L26.2913 10.7113L26.2821 10.7216Z" fill="#86BC8B"/>
<path fill-rule="evenodd" clip-rule="evenodd" d="M25.0319 10.7219L24.956 10.7837L24.918 10.7953L24.8827 10.7837L24.8945 10.7464L24.918 10.7219L25.0319 10.6987L25.0437 10.7103L25.0319 10.7219Z" fill="#86BC8B"/>
<path fill-rule="evenodd" clip-rule="evenodd" d="M25.1431 10.7344L25.1483 10.773L25.1431 10.7949L25.1064 10.8335L25.0946 10.8708L25.0606 10.8876L25.0436 10.8825V10.8451L25.0828 10.746L25.1064 10.7344H25.1431Z" fill="#86BC8B"/>
<path fill-rule="evenodd" clip-rule="evenodd" d="M22.3808 10.8198L22.3533 10.8468L22.331 10.8932L22.3166 10.9447L22.2708 10.888L22.2682 10.8494L22.28 10.8095L22.3075 10.7747L22.331 10.7644L22.3546 10.7593L22.4044 10.7721L22.4292 10.7953L22.3808 10.8198Z" fill="#86BC8B"/>
<path fill-rule="evenodd" clip-rule="evenodd" d="M23.1834 10.8339L23.2083 10.8455H23.2214L23.2475 10.8339L23.2606 10.8713L23.2214 10.8957L23.2083 10.9202L23.1716 10.9305L23.1768 10.8983L23.1703 10.8597L23.1598 10.8211L23.1336 10.7837L23.1088 10.7593H23.1467L23.1625 10.7721L23.1769 10.7889L23.1834 10.8095V10.8339Z" fill="#86BC8B"/>
<path fill-rule="evenodd" clip-rule="evenodd" d="M26.6421 10.7808L26.6539 10.7988L26.6473 10.8245L26.629 10.8452L26.591 10.858L26.5622 10.8542L26.5557 10.8464L26.5531 10.8297L26.5662 10.8091L26.5937 10.7885L26.6238 10.7808L26.6421 10.7808Z" fill="#86BC8B"/>
<path fill-rule="evenodd" clip-rule="evenodd" d="M21.7472 10.8879L21.7341 10.9137L21.7681 10.9201L21.8166 10.9149L21.7682 10.9368L21.7407 10.9433L21.7132 10.9394L21.6935 10.9214L21.67 10.8931L21.6556 10.8532L21.653 10.8274L21.6634 10.7991L21.6844 10.7772L21.7223 10.7656L21.7132 10.7991V10.8261L21.7223 10.8519L21.7341 10.8763L21.7472 10.8879Z" fill="#86BC8B"/>
<path fill-rule="evenodd" clip-rule="evenodd" d="M23.0197 10.7837L23.0302 10.7979L23.038 10.8236L23.0328 10.8674L23.0236 10.9086L23.0171 10.9266L22.9961 10.9446L22.9451 10.9562L22.97 10.933L22.9817 10.9086L22.9831 10.8828L22.9791 10.8596L22.9726 10.8352L22.9582 10.8094L22.9831 10.7837H23.0197L23.0197 10.7837Z" fill="#86BC8B"/>
<path fill-rule="evenodd" clip-rule="evenodd" d="M26.2768 10.7837L26.2585 10.7953L26.2389 10.8095L26.2035 10.8159L26.1734 10.8211L26.163 10.8095L26.1656 10.7953L26.1839 10.7863L26.2467 10.7734L26.2624 10.7786L26.2768 10.7837Z" fill="#86BC8B"/>
<path fill-rule="evenodd" clip-rule="evenodd" d="M26.8318 10.8104L26.841 10.8233L26.8423 10.8374L26.8057 10.8735L26.7886 10.8825H26.7664L26.7572 10.876L26.7533 10.8606L26.7664 10.8335L26.7782 10.8207L26.8174 10.8091L26.8318 10.8104Z" fill="#86BC8B"/>
<path fill-rule="evenodd" clip-rule="evenodd" d="M22.8574 10.9201L22.8561 10.9445L22.843 10.96L22.8312 10.9741H22.7841L22.7697 10.9703L22.7461 10.9381L22.75 10.9162L22.7631 10.8943L22.7946 10.8583L22.7841 10.8479L22.7749 10.8351L22.7762 10.817L22.7946 10.8093L22.8181 10.8042L22.8325 10.8093L22.8443 10.8222V10.8338L22.8325 10.8583L22.8194 10.875L22.822 10.8917L22.8325 10.9085L22.8574 10.9201Z" fill="#86BC8B"/>
<path fill-rule="evenodd" clip-rule="evenodd" d="M26.4444 10.8105L26.4509 10.826L26.4483 10.8479L26.4274 10.8582L26.3907 10.8659L26.3763 10.8582L26.375 10.8402L26.3894 10.8247L26.4025 10.8157L26.4235 10.8105H26.4444Z" fill="#86BC8B"/>
<path fill-rule="evenodd" clip-rule="evenodd" d="M22.568 10.8208L22.5942 10.8272H22.6269L22.6806 10.8208L22.6296 10.853L22.5968 10.8761L22.5667 10.9096L22.5497 10.9405L22.534 10.9714L22.5261 10.9946H22.5143L22.479 10.9933L22.4816 10.9392L22.4934 10.8929L22.5091 10.8607L22.534 10.8362L22.568 10.8208Z" fill="#86BC8B"/>
<path fill-rule="evenodd" clip-rule="evenodd" d="M26.981 10.8789L26.9679 10.8763L26.9562 10.8635L26.9523 10.8557L26.9575 10.83L26.9706 10.812L26.9863 10.8081L27.0072 10.8261L27.0007 10.8467L26.9968 10.8699L26.981 10.8789Z" fill="#86BC8B"/>
<path fill-rule="evenodd" clip-rule="evenodd" d="M25.5752 10.9034L25.566 10.9214L25.5463 10.9202L25.5097 10.9163L25.4639 10.9188L25.4966 10.8957L25.5346 10.8828L25.5542 10.8854L25.5686 10.8905L25.5752 10.9034Z" fill="#86BC8B"/>
<path fill-rule="evenodd" clip-rule="evenodd" d="M26.553 10.933L26.5373 10.9536L26.5177 10.9652L26.4849 10.9665L26.4522 10.9703L26.4155 10.9446V10.933L26.4299 10.9253H26.4535L26.553 10.933Z" fill="#86BC8B"/>
<path fill-rule="evenodd" clip-rule="evenodd" d="M26.5661 11.0176L26.5635 10.9996L26.5779 10.9816L26.5975 10.97L26.6158 10.9558L26.7036 10.9326L26.6983 10.9481L26.6839 10.97L26.6669 10.9816L26.604 11.0176L26.5765 11.0241L26.5661 11.0176Z" fill="#86BC8B"/>
<path fill-rule="evenodd" clip-rule="evenodd" d="M26.0751 11.0423L26.062 11.0681H26.0385L25.9874 11.1054H26.0241L26.0515 11.1144L26.0699 11.1324L26.0751 11.1659L26.0503 11.1916L26.0751 11.2393L26.1131 11.2728L26.1629 11.2908L26.2388 11.3011L26.1445 11.3243H26.121L26.0987 11.3178L26.0503 11.2509L25.9744 11.1659L25.9455 11.1299L25.9233 11.0719L25.9115 11.0178V10.9702L25.939 11.0076L25.9744 11.0307L26.0058 11.041L26.0751 11.0423Z" fill="#86BC8B"/>
<path fill-rule="evenodd" clip-rule="evenodd" d="M25.6104 10.9702L25.5947 11.0063L25.5881 11.0359L25.592 11.0745L25.5999 11.1221L25.6287 11.1762L25.5999 11.1633L25.5842 11.1428L25.5711 11.1157L25.5632 11.0861V11.05L25.5737 11.0153L25.5868 10.9921L25.6104 10.9702Z" fill="#86BC8B"/>
<path fill-rule="evenodd" clip-rule="evenodd" d="M24.8183 10.9702H24.8354L24.8432 10.9818L24.8066 11.0191L24.7935 11.0179L24.7948 11.005L24.8183 10.9702Z" fill="#86BC8B"/>
<path fill-rule="evenodd" clip-rule="evenodd" d="M25.5176 11.153L25.4888 11.1041L25.4849 11.0551L25.4914 11.0217L25.5097 10.9946H25.5346L25.5176 11.0243L25.5071 11.0526L25.5019 11.0822L25.5058 11.1092L25.5176 11.153Z" fill="#86BC8B"/>
<path fill-rule="evenodd" clip-rule="evenodd" d="M26.566 11.0928L26.7114 11.1185H26.7402L26.7611 11.1121L26.7821 11.1069L26.7807 11.1391L26.7663 11.1597L26.7402 11.1713L26.6983 11.1752L26.6787 11.1919L26.6577 11.188L26.604 11.1417L26.566 11.0928Z" fill="#86BC8B"/>
<path fill-rule="evenodd" clip-rule="evenodd" d="M26.4025 11.1055L26.4274 11.1415H26.4025L26.3763 11.1312L26.3894 11.1183L26.4025 11.1055Z" fill="#86BC8B"/>
<path fill-rule="evenodd" clip-rule="evenodd" d="M26.1838 11.1594L26.1615 11.1735L26.1379 11.1774L26.1 11.1658L26.1117 11.1413L26.1392 11.1323H26.1615L26.1798 11.1439L26.1838 11.1594Z" fill="#86BC8B"/>
<path fill-rule="evenodd" clip-rule="evenodd" d="M25.333 11.449L25.2963 11.4748L25.2335 11.4606L25.1327 11.3885L25.2073 11.3628L25.2702 11.4001L25.333 11.449Z" fill="#86BC8B"/>
<path fill-rule="evenodd" clip-rule="evenodd" d="M26.2951 11.448L26.2768 11.4493L26.2728 11.4351L26.2794 11.4107L26.3016 11.4004L26.32 11.4017L26.3291 11.4236L26.3226 11.4326L26.2951 11.448Z" fill="#86BC8B"/>
<path fill-rule="evenodd" clip-rule="evenodd" d="M25.2832 11.5367L25.2073 11.5483L25.1824 11.5367L25.2204 11.5122L25.2583 11.5238L25.2832 11.5367Z" fill="#86BC8B"/>
<path fill-rule="evenodd" clip-rule="evenodd" d="M25.9116 11.7339L25.8619 11.7467L25.841 11.7648L25.8252 11.7854L25.8148 11.8163L25.8187 11.8587L25.824 11.8819L25.7729 11.8587L25.7611 11.833L25.7664 11.8073L25.7808 11.7828L25.803 11.7648L25.8331 11.7467L25.8619 11.7339H25.9116Z" fill="#86BC8B"/>
<path fill-rule="evenodd" clip-rule="evenodd" d="M26.138 11.981L26.0883 12.0184L26.0752 12.0428L26.1001 12.0557L26.138 12.0428L26.1878 11.9939L26.3135 12.0673L26.4274 12.1664L26.5531 12.3402L26.5779 12.4136L26.5531 12.4638H26.54L26.5282 12.4509L26.4902 12.3891L26.4653 12.3274L26.4523 12.3518L26.4405 12.3402L26.4025 12.3891H26.3763L26.3528 12.3776L26.3135 12.3402L26.2637 12.2411L26.2258 12.2038L26.2009 12.1922L26.2389 12.1664L26.2637 12.1433H26.1119L26.1512 12.093L26.1629 12.0802V12.0557H26.1001L26.0386 12.0802L26.0504 12.0428L26.0386 12.0184L25.9744 12.0055L25.9247 12.0184L25.9613 11.981L26.0504 11.9321L26.1001 11.9578L26.1119 11.981H26.138L26.138 11.981Z" fill="#86BC8B"/>
<path fill-rule="evenodd" clip-rule="evenodd" d="M27.959 10.1978L27.9917 10.2209L28.0113 10.2145L28.0218 10.2106L28.0349 10.2016" fill="#86BC8B"/>
<path fill-rule="evenodd" clip-rule="evenodd" d="M27.7562 9.90278L27.734 9.90021H27.7104L27.675 9.90665L27.6803 9.88478L27.6933 9.86547L27.7156 9.85645L27.7379 9.86416L27.7497 9.87189L27.7641 9.89249L27.7667 9.90278H27.7562Z" fill="#86BC8B"/>
<path fill-rule="evenodd" clip-rule="evenodd" d="M27.6619 10.2555L27.6266 10.2504L27.5926 10.2401L27.5716 10.2246L27.5598 10.2002" fill="#86BC8B"/>
<path fill-rule="evenodd" clip-rule="evenodd" d="M27.7563 9.99169L27.7641 9.9814L27.751 9.96338H27.7314L27.7222 9.97625L27.7248 9.98528L27.7379 9.99558L27.7563 9.99169Z" fill="#86BC8B"/>
<path fill-rule="evenodd" clip-rule="evenodd" d="M27.9381 10.5388L27.9761 10.5117L27.9669 10.5452H27.9551L27.9434 10.5388L27.9381 10.5388Z" fill="#86BC8B"/>
<path fill-rule="evenodd" clip-rule="evenodd" d="M25.0108 10.3921L24.9729 10.4204L24.9375 10.4693L24.9152 10.4771L24.8995 10.4667L24.9021 10.4436L24.9205 10.423L24.9466 10.4088L24.9728 10.3921H25.0108Z" fill="#86BC8B"/>
<path fill-rule="evenodd" clip-rule="evenodd" d="M26.2087 10.5272L26.2126 10.5375L26.2087 10.5516L26.1406 10.589L26.1223 10.5838L26.1171 10.5722L26.1184 10.5516L26.1289 10.5375L26.1446 10.5323L26.1944 10.5259L26.2087 10.5272Z" fill="#86BC8B"/>
<path fill-rule="evenodd" clip-rule="evenodd" d="M26.4758 10.6985L26.4693 10.6882L26.4549 10.6831L26.3842 10.714L26.3763 10.7282L26.3816 10.7423L26.3986 10.7513L26.4169 10.7552L26.4313 10.7449L26.468 10.7101L26.4758 10.6985Z" fill="#86BC8B"/>
<path fill-rule="evenodd" clip-rule="evenodd" d="M26.5844 10.4152V10.4267L26.5792 10.4293L26.5399 10.4332L26.5189 10.4319L26.5059 10.4061L26.5177 10.3945L26.5818 10.3997L26.5844 10.4152Z" fill="#86BC8B"/>
<path fill-rule="evenodd" clip-rule="evenodd" d="M24.7961 10.2505L24.8341 10.239H24.8799L25.0043 10.1707L25.0619 10.1476L25.1077 10.1373L25.1679 10.1295L25.1483 10.1154L25.1418 10.1038L25.1483 10.087L25.1444 10.0754L25.1247 10.0703L25.0907 10.0729L25.0357 10.0922L24.9781 10.1179L24.9179 10.1514L24.8747 10.1874L24.8341 10.2248L24.7961 10.2505Z" fill="#86BC8B"/>
<path fill-rule="evenodd" clip-rule="evenodd" d="M26.9719 10.9484L26.9615 10.9703L26.9314 10.9871L26.9104 10.9857L26.8973 10.96L26.9091 10.9471L26.9484 10.9355L26.9719 10.9484Z" fill="#86BC8B"/>
<path fill-rule="evenodd" clip-rule="evenodd" d="M26.9629 11.0359L26.9668 11.0488L26.9629 11.063L26.8752 11.0977L26.8516 11.0952L26.8438 11.0823L26.8464 11.063L26.8582 11.0488L26.8791 11.0424L26.9446 11.0347L26.9629 11.0359Z" fill="#86BC8B"/>
<path fill-rule="evenodd" clip-rule="evenodd" d="M24.8827 10.6147L24.7792 10.6443L24.7596 10.6611L24.7413 10.6817V10.7332L24.7544 10.7499L24.7622 10.7667L24.7505 10.7834L24.7243 10.795L24.7203 10.813L24.7243 10.8246L24.7452 10.8298L24.7714 10.8246L24.8146 10.8079L24.8434 10.8001L24.8565 10.7834L24.8526 10.7667L24.8434 10.7409L24.8486 10.7151L24.8565 10.6817L24.8788 10.6572L24.8958 10.6392V10.6315L24.8827 10.6147Z" fill="#86BC8B"/>
<path fill-rule="evenodd" clip-rule="evenodd" d="M24.5696 10.6483V10.6109L24.5605 10.5942L24.5435 10.5762H24.5265L24.5133 10.5891L24.5002 10.6174V10.6483L24.5094 10.6779L24.5225 10.6856H24.5395L24.5565 10.6817L24.5435 10.7204L24.5526 10.741L24.5696 10.7539H24.5906L24.6168 10.7449L24.6429 10.7204L24.6639 10.6946L24.6757 10.6612V10.6354L24.6639 10.6148H24.6469L24.6207 10.6174L24.5736 10.6483H24.5696L24.5696 10.6483Z" fill="#86BC8B"/>
<path fill-rule="evenodd" clip-rule="evenodd" d="M24.3419 10.5764L24.3328 10.606L24.3419 10.6317L24.355 10.6485H24.3799L24.4008 10.6356L24.4322 10.606L24.4624 10.5596L24.4833 10.5223L24.4754 10.4927L24.4624 10.4837L24.4362 10.4785L24.4008 10.4953L24.372 10.5223L24.3419 10.5764Z" fill="#86BC8B"/>
<path fill-rule="evenodd" clip-rule="evenodd" d="M24.3327 10.4498L24.3667 10.4408L24.4113 10.4293L24.4361 10.4112L24.444 10.3906L24.4414 10.3649L24.4191 10.3481H24.406L24.3759 10.3559L24.3458 10.3739L24.3157 10.4074L24.3118 10.4318L24.3209 10.4408L24.3327 10.4498Z" fill="#86BC8B"/>
<path fill-rule="evenodd" clip-rule="evenodd" d="M24.9453 10.9481L24.9885 10.9262L25.0278 10.9133L25.0658 10.9043L25.0998 10.9133L25.1469 10.9262L25.1771 10.9481L25.1862 10.9738L25.1823 10.9983L25.2072 11.024L25.2111 11.0498L25.2072 11.0691L25.1941 11.0742H25.1692L25.1561 11.0652L25.1469 11.0446L25.143 11.0279H25.1129L25.0658 11.0318H25.0278L24.9977 11.024L24.9663 11.0112L24.9506 10.9944L24.9453 10.9738V10.9481Z" fill="#86BC8B"/>
<path fill-rule="evenodd" clip-rule="evenodd" d="M25.0449 11.4827L25.0488 11.4917L25.0659 11.5085L25.0881 11.5123L25.113 11.5085L25.1261 11.4956L25.13 11.4827L25.1261 11.4544L25.113 11.4325L25.0998 11.4106L25.0881 11.4067L25.0711 11.4145L25.0527 11.4364L25.0449 11.4827Z" fill="#86BC8B"/>
<path fill-rule="evenodd" clip-rule="evenodd" d="M24.3681 10.7307L24.3602 10.7075L24.372 10.6805L24.3969 10.6586L24.4348 10.6367H24.4637L24.4754 10.6419L24.4833 10.656L24.4807 10.6779L24.4702 10.7024L24.4348 10.7358L24.4047 10.7461H24.3851L24.3681 10.7307Z" fill="#86BC8B"/>
</g>
</g>
<defs>
<clipPath id="clip0_840_8606">
<rect width="36" height="24" fill="white" transform="translate(0.0223389)"/>
</clipPath>
<clipPath id="clip1_840_8606">
<rect width="6.74744" height="3.18515" fill="white" transform="translate(21.5332 9.56885)"/>
</clipPath>
</defs>
</svg>
