<?xml version="1.0" encoding="UTF-8"?>
<!DOCTYPE svg PUBLIC "-//W3C//DTD SVG 1.1//EN" "http://www.w3.org/Graphics/SVG/1.1/DTD/svg11.dtd">
<!-- Creator: CorelDRAW X8 -->
<svg xmlns="http://www.w3.org/2000/svg" xml:space="preserve" width="148mm" height="105mm" version="1.1" style="shape-rendering:geometricPrecision; text-rendering:geometricPrecision; image-rendering:optimizeQuality; fill-rule:evenodd; clip-rule:evenodd"
viewBox="0 0 14800 10500"
 xmlns:xlink="http://www.w3.org/1999/xlink">
 <defs>
  <style type="text/css">
   <![CDATA[
    .fil0 {fill:none}
    .fil1 {fill:#006CA9;fill-rule:nonzero}
    .fil3 {fill:#05E205;fill-rule:nonzero}
    .fil2 {fill:#E2A90C;fill-rule:nonzero}
   ]]>
  </style>
 </defs>
 <g id="Layer_x0020_1">
  <metadata id="CorelCorpID_0Corel-Layer"/>
  <rect class="fil0" width="14800" height="10500"/>
 </g>
 <g id="__x0023_Layer_x0020_1">
  <metadata id="CorelCorpID_1Corel-Layer"/>
  <g id="_2272464331776">
   <g>
    <path class="fil1" d="M8142 4009c-38,-38 -100,-38 -138,0l0 0c-90,91 47,228 138,138 9,0 59,-79 0,-138zm1671 2024c-69,111 -134,-38 -299,-38 -177,0 -177,142 -134,186 115,119 520,78 520,432 0,470 -601,497 -854,244 25,-40 80,-141 109,-157 85,-46 139,93 317,93 193,0 177,-166 139,-210 -114,-130 -518,-54 -518,-449 0,-388 543,-460 790,-232l-70 131zm-2705 48c-77,0 -63,-86 -64,-125 0,-1 -2,-38 -64,-38l-457 0c-84,0 -84,-128 0,-128l457 0c140,0 192,102 192,166 0,44 11,125 -64,125zm-585 1059c36,0 70,-11 98,-33 66,-53 145,48 79,100 -174,138 -443,10 -364,-90 22,-28 62,-32 90,-10 28,22 62,33 97,33zm470 -150l-921 0c-84,0 -84,-128 0,-128l921 0c67,0 67,-102 0,-102l-940 0c-98,0 -179,-81 -179,-179 0,-99 81,-179 179,-179l940 0c67,0 67,-102 0,-102l-791 0c-181,0 -328,-147 -328,-328 0,-84 128,-84 128,0 0,110 90,199 200,199l791 0c99,0 179,81 179,180 0,98 -80,179 -179,179l-940 0c-67,0 -67,102 0,102l940 0c99,0 179,80 179,179 0,98 -80,179 -179,179zm675 14l-284 0 0 -1218 284 0 0 1218zm1331 -610c0,365 -266,610 -632,610l-473 0 0 -1218 473 0c364,0 632,244 632,608zm-289 0c0,-219 -110,-391 -343,-391l-189 0 0 783c108,0 244,12 334,-27 145,-62 198,-211 198,-365zm-1150 -2200l174 -65 -174 65zm174 -65c32,-12 63,-25 94,-39 -4,-72 23,-138 71,-186l0 0c156,-155 420,-42 420,174 0,68 -28,129 -72,174l0 0c-93,93 -244,96 -341,6 -728,315 -1587,428 -2352,299 13,111 45,219 91,317l-216 -37c-35,-101 -57,-207 -65,-318 -122,-28 -241,-62 -359,-103 -115,-40 -54,-215 61,-175 789,276 1716,224 2494,-47l174 -65z"/>
   </g>
   <path class="fil2" d="M5037 4742c116,36 62,213 -55,177l-17 -5c-117,-36 -62,-213 54,-177l18 5zm1891 144c-90,-90 -228,48 -138,138 0,0 73,65 138,0l0 0c38,-38 37,-101 0,-138zm-1283 -12c323,42 653,46 977,16 47,-170 263,-249 411,-108 94,88 98,249 0,347l0 0c-96,96 -252,96 -348,0l0 0c-16,-16 -30,-35 -41,-55 -290,27 -583,28 -874,0 508,636 1517,449 1768,-317 24,-74 40,-147 47,-225 63,-21 127,-43 189,-66 -15,651 -546,1178 -1206,1178 -440,0 -832,-236 -1044,-601 -71,-11 -141,-24 -211,-38 -120,-25 -81,-207 38,-182l294 51z"/>
   <path class="fil3" d="M6947 3900c-60,-60 -166,-19 -166,69 0,54 44,97 97,97 45,0 68,-29 70,-29 38,-38 36,-103 -1,-137zm613 294c-165,-672 -949,-995 -1540,-618 -130,83 -239,194 -320,325 305,48 625,49 939,11 41,-171 256,-262 413,-117 92,85 99,248 0,347l0 1c-96,96 -251,96 -347,0l0 -1c-14,-14 -27,-30 -37,-47 -380,47 -764,38 -1128,-35 -59,-12 -91,-76 -66,-130l-1 0c385,-828 1517,-943 2061,-214 93,124 161,262 200,413l-174 65z"/>
  </g>
 </g>
</svg>
