<?xml version="1.0" encoding="UTF-8" standalone="no"?>
<!-- Created with Inkscape (http://www.inkscape.org/) -->

<svg
   version="1.1"
   id="svg1099"
   width="106.56001"
   height="106.88"
   viewBox="0 0 106.56001 106.88"
   sodipodi:docname="SANBI logo - 300 dpi CMYK.jpg"
   inkscape:export-filename="../../../../../Documents/favicon1.svg"
   inkscape:export-xdpi="96"
   inkscape:export-ydpi="96"
   xmlns:inkscape="http://www.inkscape.org/namespaces/inkscape"
   xmlns:sodipodi="http://sodipodi.sourceforge.net/DTD/sodipodi-0.dtd"
   xmlns="http://www.w3.org/2000/svg"
   xmlns:svg="http://www.w3.org/2000/svg">
  <defs
     id="defs1103" />
  <sodipodi:namedview
     id="namedview1101"
     pagecolor="#ffffff"
     bordercolor="#000000"
     borderopacity="0.25"
     inkscape:showpageshadow="2"
     inkscape:pageopacity="0.0"
     inkscape:pagecheckerboard="0"
     inkscape:deskcolor="#d1d1d1"
     showgrid="false" />
  <g
     inkscape:groupmode="layer"
     inkscape:label="Image"
     id="g1105"
     transform="translate(-303.44996,-35.782025)">
    <path
       style="fill:#000000;stroke-width:0.32"
       d="m 410.00997,89.222025 v -53.44 h -53.28 -53.28001 v 53.44 53.439995 h 53.28001 53.28 z"
       id="path1702" />
    <path
       style="fill:#997fff;fill-opacity:1;stroke-width:0.32"
       d="m 369.44808,82.436135 c -0.70781,-0.85285 0.76768,-2.98138 4.45523,-6.42716 3.82061,-3.57009 7.36739,-6.08717 11.81197,-8.3827 l 2.8855,-1.4903 -2.81542,3.93538 c -3.65927,5.11492 -8.87091,10.42903 -11.3657,11.58914 -2.30675,1.07265 -4.44784,1.4067 -4.97158,0.77564 z"
       id="path1712" />
    <path
       style="fill:#ff9940;fill-opacity:1;stroke-width:0.32"
       d="m 358.68859,84.360445 c -1.07786,-0.60319 -2.93958,-3.98209 -4.12182,-7.48073 -0.76256,-2.25666 -1.7097,-6.39299 -2.66944,-11.65769 -1.43671,-7.8814 -1.48887,-8.38398 -1.52743,-14.72 -0.0262,-4.32715 0.0817,-6.76567 0.31754,-7.16423 0.30944,-0.52306 0.40973,-0.3726 0.74643,1.12 0.90019,3.99031 1.66243,5.76168 3.13155,7.27733 2.45923,2.53712 4.86039,6.46021 5.25085,8.57902 0.18931,1.02733 0.4415,2.3709 0.56045,2.98571 0.41993,2.17091 1.04944,1.52569 3.19254,-3.27227 1.12163,-2.51106 2.29789,-4.85356 2.61392,-5.20556 0.31603,-0.352 0.98234,-1.64001 1.48071,-2.86224 l 0.90608,-2.22224 0.2784,1.83611 c 0.28758,1.89691 0.80243,2.25045 1.20086,0.82464 0.34406,-1.23119 0.29216,3.84054 -0.0559,5.46373 -0.16982,0.792 -0.44176,3.6 -0.60432,6.24 -0.34195,5.55295 -1.31916,9.8751 -3.07433,13.59727 -1.19655,2.53754 -2.96525,5.34676 -3.50378,5.56502 -3.19027,1.29296 -3.58365,1.39756 -4.12227,1.09613 z"
       id="path1710" />
    <path
       style="fill:#997fff;fill-opacity:1;stroke-width:0.32"
       d="m 326.58792,87.194105 c -6.01812,-1.62223 -11.05783,-3.06529 -11.19934,-3.20681 -0.14152,-0.14151 0.1024,-0.17817 0.54204,-0.0815 4.17845,0.91916 14.38811,1.79008 23.58942,2.01227 6.66036,0.16082 8.62922,0.3081 9.55005,0.71437 l 1.16,0.51178 -3.31008,1.17484 c -1.82051,0.64617 -4.17404,1.26187 -5.23004,1.36824 -1.056,0.10637 -2.42401,0.25255 -3.04001,0.32484 -0.74352,0.0873 -4.79801,-0.85999 -12.06204,-2.81807 z"
       id="path1708" />
    <path
       style="fill:#ff9940;fill-opacity:1;stroke-width:0.32"
       d="m 358.96046,90.987515 c -1.17529,-2.17728 -2.79277,-3.55705 -6.14688,-5.24346 -2.31312,-1.163 -7.21971,-4.35456 -8.85277,-5.7584 -0.335,-0.288 -1.61971,-1.89163 -2.85484,-3.56363 -3.86954,-5.23821 -5.42506,-7.03988 -7.58439,-8.78452 -1.92246,-1.55328 -5.7312,-6.38256 -5.34131,-6.77247 0.0861,-0.0861 0.9055,0.7045 1.82086,1.75691 0.91533,1.0524 2.12739,2.13322 2.69344,2.40183 0.56605,0.26861 1.29536,0.78252 1.62071,1.14202 0.32534,0.35951 1.39385,1.02096 2.37443,1.46989 0.98061,0.44893 2.02973,1.03961 2.33142,1.31263 0.60096,0.54387 1.22884,0.34394 1.22884,-0.39128 0,-0.52374 1.15049,-0.35897 2.56,0.36664 1.14188,0.58783 5.5944,5.21982 6.22342,6.47427 0.29123,0.58076 1.75875,2.38076 3.26122,4 1.50243,1.61924 3.10812,3.59208 3.56816,4.38408 0.46006,0.792 0.92921,1.512 1.04256,1.6 0.11334,0.088 0.29769,0.52 0.40966,0.96 0.11197,0.44 0.93373,1.64854 1.82611,2.68565 1.18698,1.37944 1.59658,2.10301 1.52573,2.69532 -0.16157,1.35071 -0.7072,1.11553 -1.70637,-0.73548 z"
       id="path1706" />
    <path
       style="fill:#66e54c;fill-opacity:1;stroke-width:0.32"
       d="m 344.13701,128.34202 c -3.05821,-10.69488 -3.36292,-12.4006 -3.38672,-18.96 -0.016,-4.44405 0.0981,-6.02935 0.55321,-7.68 0.91258,-3.309465 3.10359,-7.671715 3.85632,-7.677815 0.14845,-10e-4 0.1673,1.36582 0.0419,3.03782 -0.12614,1.68249 -0.10374,3.039915 0.0502,3.039835 0.15293,-9e-5 0.99805,-0.270325 1.87805,-0.600525 0.88,-0.3302 1.9334,-0.70281 2.34089,-0.82803 l 0.74087,-0.22767 -0.66087,1.29544 c -0.73753,1.445695 -0.80867,2.046905 -0.3447,2.913805 0.30544,0.57076 0.37865,0.57156 2.16,0.0237 6.89472,-2.12035 13.7232,-5.544405 27.04976,-13.563715 9.73184,-5.85618 17.19405,-10.06913 17.19405,-9.70728 0,0.0892 -0.54,0.48875 -1.2,0.88787 -5.67863,3.43405 -10.99354,6.98944 -11.92,7.97382 -0.616,0.6545 -1.86116,1.56352 -2.76701,2.02003 -1.79389,0.90403 -3.6969,2.47758 -6.67299,5.51773 -1.056,1.07872 -3.216,2.87559 -4.8,3.99302 -1.584,1.117445 -3.528,2.562935 -4.32,3.212205 -2.98394,2.44621 -7.1562,4.3003 -11.79994,5.2437 -2.00605,0.40754 -3.07219,0.82626 -4.24,1.66525 -1.84538,1.32578 -1.9656,2.02296 -0.62851,3.64506 2.01555,2.44524 3.93856,6.59452 4.54185,9.80005 0.28032,1.48936 0.23056,1.82753 -0.47324,3.21641 -0.44016,0.86859 -1.14487,1.71535 -1.60029,1.92285 -0.44759,0.20394 -1.10154,0.9348 -1.45322,1.62413 -0.35165,0.68933 -0.86153,1.33857 -1.13302,1.44275 -0.36253,0.13911 -0.49363,0.65957 -0.49363,1.95947 0,0.97353 -0.1176,1.77004 -0.26135,1.77004 -0.14374,0 -1.15696,-3.132 -2.25161,-6.96 z"
       id="path1704" />
  </g>
</svg>
