<svg width="112" height="100" viewBox="0 0 112 100" fill="none" xmlns="http://www.w3.org/2000/svg">
<path d="M55.9665 16.667C37.5665 16.667 22.6665 31.6003 22.6665 50.0003C22.6665 68.4003 37.5665 83.3337 55.9665 83.3337C74.3998 83.3337 89.3332 68.4003 89.3332 50.0003C89.3332 31.6003 74.3998 16.667 55.9665 16.667ZM55.9998 76.667C41.2665 76.667 29.3332 64.7337 29.3332 50.0003C29.3332 35.267 41.2665 23.3337 55.9998 23.3337C70.7332 23.3337 82.6665 35.267 82.6665 50.0003C82.6665 64.7337 70.7332 76.667 55.9998 76.667ZM55.2665 33.3337H55.0665C53.7332 33.3337 52.6665 34.4003 52.6665 35.7337V51.467C52.6665 52.6337 53.2665 53.7337 54.2998 54.3337L68.1332 62.6337C69.2665 63.3003 70.7332 62.967 71.3998 61.8337C71.5672 61.5638 71.6786 61.2629 71.7272 60.9491C71.7759 60.6352 71.7609 60.3148 71.6832 60.0069C71.6054 59.699 71.4665 59.4098 71.2746 59.1567C71.0828 58.9036 70.842 58.6917 70.5665 58.5337L57.6665 50.867V35.7337C57.6665 34.4003 56.5998 33.3337 55.2665 33.3337Z" fill="#75B37A"/>
</svg>
