<svg width="112" height="100" viewBox="0 0 112 100" fill="none" xmlns="http://www.w3.org/2000/svg">
<path d="M56 45C63.1797 45 69 37.8366 69 29C69 20.1634 63.1797 13 56 13C48.8203 13 43 20.1634 43 29C43 37.8366 48.8203 45 56 45Z" stroke="#86BC8B" stroke-width="3"/>
<path d="M60.608 72.5381C59.8877 67.2216 63.739 49.9787 70.3941 48.1934C70.5111 48.1632 70.6135 48.1368 70.7198 48.1229L70.8076 48.1003L70.8115 48.1128C72.779 48.135 70.1518 61.0949 71.4757 65.522C75.7788 80.0628 61.4994 77.4165 60.608 72.5381Z" fill="#86BC8B"/>
<path d="M78.1731 65.4512C79.6482 61.0762 77.6468 48.482 79.45 48.0303C79.4792 48.0227 79.5085 48.0152 79.5417 48.0202C79.5749 48.0252 79.6041 48.0177 79.6227 48.0264C86.427 49.2052 89.6955 66.8525 88.7054 72.2707C87.6455 77.1636 73.2669 80.0996 78.1731 65.4512Z" fill="#86BC8B"/>
<path d="M63.2171 80.8045C63.3387 79.795 64.4035 78.9496 65.9057 78.5212C66.5908 78.3308 67.3658 78.2259 68.1836 78.2322C68.3476 78.2307 68.5101 78.2295 68.6995 78.2486C71.5515 78.4093 73.717 79.8204 73.5224 81.4195C73.353 82.9984 70.8941 84.1628 68.0625 83.9968C65.211 83.8224 63.0605 82.3938 63.2171 80.8045Z" fill="#86BC8B"/>
<path d="M75.4317 81.4023C75.3422 80.1075 76.8061 78.901 78.8872 78.3775C79.3553 78.2567 79.8791 78.1623 80.404 78.122C80.5914 78.1144 80.7641 78.1106 80.9329 78.0942C83.553 78.0294 85.6932 79.1075 85.7754 80.5808C85.8784 82.1709 83.6662 83.6385 80.8103 83.8592C77.9584 84.0924 75.5293 82.9803 75.4317 81.4023Z" fill="#86BC8B"/>
<path d="M47.7507 70.9218C47.1921 68.5877 45.9847 66.5293 44.3137 65.0623C42.6427 63.5954 40.6003 62.801 38.5 62.801C36.3996 62.801 34.3573 63.5954 32.6862 65.0623C31.0152 66.5293 29.8078 68.5877 29.2493 70.9218L27.9183 76.4842C27.6793 77.4829 27.6436 78.5317 27.8141 79.5489C27.9845 80.5661 28.3565 81.5242 28.9009 82.3485C29.4454 83.1727 30.1476 83.8408 30.9529 84.3008C31.7582 84.7607 32.6447 85 33.5434 85H43.4566C44.3553 85 45.2418 84.7607 46.0471 84.3008C46.8523 83.8408 47.5546 83.1727 48.099 82.3485C48.6435 81.5242 49.0154 80.5661 49.1859 79.5489C49.3563 78.5317 49.3207 77.4829 49.0817 76.4842L47.7507 70.9218ZM46.2421 80.718C45.9169 81.2143 45.4958 81.6165 45.0123 81.8927C44.5288 82.1689 43.9962 82.3115 43.4566 82.3092H33.5434C33.0042 82.3092 32.4722 82.1657 31.9891 81.8897C31.5059 81.6137 31.0845 81.2129 30.7579 80.7183C30.4312 80.2237 30.208 79.6489 30.1057 79.0386C30.0035 78.4282 30.0249 77.7989 30.1683 77.1997L31.4993 71.6374C31.922 69.871 32.8357 68.3132 34.1003 67.2031C35.3649 66.093 36.9105 65.4918 38.5 65.4918C40.0895 65.4918 41.6351 66.093 42.8997 67.2031C44.1642 68.3132 45.078 69.871 45.5007 71.6374L46.8317 77.1997C46.9772 77.7987 46.9996 78.4285 46.8973 79.0392C46.7949 79.65 46.5706 80.2248 46.2421 80.7183V80.718ZM30.4838 64.677C30.6869 63.2139 30.4176 61.6476 29.7252 60.2656C29.0329 58.8835 27.9907 57.8315 26.7903 57.3027C25.5048 56.7367 24.1936 56.8268 23.0971 57.5564C20.9171 59.0074 20.3434 62.5835 21.8185 65.5282C22.5106 66.9103 23.5529 67.9626 24.7532 68.4911C25.285 68.73 25.8502 68.8546 26.4209 68.8587C27.1319 68.8616 27.8308 68.6472 28.4465 68.2374C29.5424 67.5077 30.266 66.2433 30.4838 64.677ZM28.1789 64.2517C28.0746 65.0025 27.7551 65.5904 27.2793 65.9071C26.8035 66.2237 26.2022 66.2486 25.5859 65.9774C24.8847 65.6688 24.2645 65.0314 23.8396 64.1829C23.0227 62.5516 23.2168 60.5839 24.2641 59.8867C24.5274 59.7145 24.8255 59.6257 25.1282 59.6295C25.4122 59.6329 25.6932 59.6961 25.9574 59.816C26.6586 60.1248 27.2787 60.7621 27.7037 61.6106C28.1286 62.4592 28.2973 63.3973 28.1789 64.2517ZM30.7366 59.1027C31.5654 59.8664 32.5118 60.2641 33.4688 60.2641C33.7555 60.264 34.0413 60.2284 34.3214 60.158C36.7812 59.5416 38.2726 56.3369 37.6461 53.0142C37.3521 51.4547 36.6374 50.0865 35.6338 49.1615C34.559 48.1709 33.2859 47.796 32.049 48.1061C29.5893 48.7225 28.0979 51.9272 28.7243 55.2499C29.0184 56.8094 29.733 58.1776 30.7366 59.1027ZM32.5447 50.7355C32.6581 50.7073 32.7738 50.6932 32.8898 50.6935C33.3237 50.6935 33.7699 50.8891 34.1763 51.2637C34.7625 51.8039 35.1848 52.6287 35.3652 53.5862C35.7124 55.4273 35.0074 57.2329 33.8257 57.5291C33.2887 57.6636 32.7093 57.4762 32.1942 57.0014C31.608 56.4611 31.1857 55.6363 31.0053 54.6788C30.658 52.8373 31.363 51.0317 32.5447 50.7355ZM53.9029 57.5564C52.8068 56.8268 51.4949 56.7367 50.2096 57.3027C49.0093 57.8313 47.967 58.8835 47.2749 60.2656C46.5827 61.6476 46.3134 63.2143 46.5163 64.677C46.7338 66.2433 47.4572 67.5077 48.5536 68.2374C49.1693 68.6473 49.8682 68.8617 50.5792 68.8587C51.1499 68.8546 51.7151 68.73 52.2469 68.4911C53.4473 67.9626 54.4895 66.9103 55.1816 65.5282C56.6566 62.5835 56.0829 59.0074 53.9029 57.5564ZM53.1604 64.1829C52.7354 65.0314 52.1153 65.6688 51.4141 65.9774C50.7981 66.2489 50.1966 66.2239 49.7208 65.9071C49.245 65.5902 48.9257 65.0025 48.8212 64.2517C48.7026 63.3973 48.8713 62.4595 49.2963 61.6114C49.7213 60.7633 50.3414 60.1256 51.0425 59.8167C51.3068 59.6968 51.5878 59.6335 51.8717 59.63C52.1744 59.6261 52.4726 59.7149 52.7359 59.8871C53.7831 60.5838 53.9775 62.5511 53.1604 64.1829ZM42.6785 60.158C42.9586 60.2284 43.2445 60.264 43.5311 60.2641C44.4881 60.2641 45.4349 59.8664 46.2633 59.1027C47.2669 58.1777 47.9816 56.8094 48.2756 55.25C48.9021 51.9273 47.4107 48.7225 44.951 48.1062C43.7141 47.7962 42.441 48.1709 41.3662 49.1616C40.3625 50.0865 39.6478 51.4548 39.3539 53.0142C38.7273 56.3369 40.2188 59.5416 42.6785 60.158ZM41.6347 53.5858C41.8152 52.6283 42.2375 51.8032 42.8237 51.2632C43.2301 50.8887 43.6763 50.693 44.1101 50.693C44.2262 50.6928 44.3419 50.7069 44.4553 50.7351C45.6369 51.0312 46.342 52.8373 45.9948 54.6779C45.8142 55.6354 45.392 56.4606 44.8059 57.0006C44.2909 57.4753 43.7118 57.6627 43.1745 57.5282C41.9926 57.2325 41.2876 55.4266 41.6347 53.5858Z" fill="#86BC8B"/>
</svg>
