<svg width="24" height="24" viewBox="0 0 24 24" fill="none" xmlns="http://www.w3.org/2000/svg">
<path d="M12 22C10.6167 22 9.31667 21.7373 8.1 21.212C6.88333 20.6867 5.825 19.9743 4.925 19.075C4.025 18.175 3.31267 17.1167 2.788 15.9C2.26333 14.6833 2.00067 13.3833 2 12C2 10.6167 2.26267 9.31667 2.788 8.1C3.31333 6.88333 4.02567 5.825 4.925 4.925C5.825 4.025 6.88333 3.31267 8.1 2.788C9.31667 2.26333 10.6167 2.00067 12 2C13.3833 2 14.6833 2.26267 15.9 2.788C17.1167 3.31333 18.175 4.02567 19.075 4.925C19.975 5.825 20.6877 6.88333 21.213 8.1C21.7383 9.31667 22.0007 10.6167 22 12C22 13.3833 21.7373 14.6833 21.212 15.9C20.6867 17.1167 19.9743 18.175 19.075 19.075C18.175 19.975 17.1167 20.6877 15.9 21.213C14.6833 21.7383 13.3833 22.0007 12 22ZM12 20C14.2333 20 16.125 19.225 17.675 17.675C19.225 16.125 20 14.2333 20 12C20 9.76667 19.225 7.875 17.675 6.325C16.125 4.775 14.2333 4 12 4C9.76667 4 7.875 4.775 6.325 6.325C4.775 7.875 4 9.76667 4 12C4 14.2333 4.775 16.125 6.325 17.675C7.875 19.225 9.76667 20 12 20Z" fill="#70B276"/>
<path fill-rule="evenodd" clip-rule="evenodd" d="M10.9062 6C10.2351 6 9.67588 6.53112 9.61692 7.22401C9.49452 8.67174 9.46353 10.1262 9.52414 11.5781L9.30478 11.5943L8.01288 11.6914C7.8242 11.7057 7.64234 11.7705 7.4851 11.8795C7.32786 11.9885 7.20062 12.138 7.11584 12.3133C7.03107 12.4885 6.99166 12.6836 7.00147 12.8795C7.01129 13.0753 7.06999 13.2651 7.17184 13.4303C8.12249 14.9722 9.34743 16.3126 10.7814 17.38L11.2981 17.7656C11.5028 17.918 11.7484 18 12.0004 18C12.2524 18 12.4981 17.918 12.7027 17.7656L13.2195 17.38C14.6531 16.3125 15.8778 14.9721 16.8282 13.4303C16.93 13.2651 16.9887 13.0753 16.9985 12.8795C17.0083 12.6836 16.9689 12.4885 16.8842 12.3133C16.7994 12.138 16.6721 11.9885 16.5149 11.8795C16.3577 11.7705 16.1758 11.7057 15.9871 11.6914L14.6952 11.5943C14.6224 11.5887 14.5496 11.5833 14.4767 11.5781C14.5374 10.1268 14.5062 8.67179 14.3839 7.22401C14.3557 6.88979 14.2077 6.57868 13.969 6.35207C13.7303 6.12547 13.4183 5.99985 13.0946 6H10.9062ZM10.8577 12.1695C10.7589 10.5632 10.7772 8.95146 10.9123 7.34803H13.0886C13.224 8.95144 13.2426 10.5632 13.1441 12.1695C13.1387 12.2585 13.1504 12.3478 13.1786 12.4321C13.2067 12.5164 13.2507 12.5941 13.3081 12.6607C13.3654 12.7272 13.435 12.7813 13.5126 12.8198C13.5903 12.8582 13.6746 12.8804 13.7605 12.8848C14.0415 12.8992 14.3215 12.9172 14.6016 12.9387L15.5389 13.0097C14.7064 14.2805 13.6644 15.3893 12.4608 16.2854L12.0013 16.6278L11.54 16.2854C10.3363 15.3891 9.2944 14.2799 8.46201 13.0088L9.39929 12.9396C9.67934 12.9181 9.96027 12.9001 10.2403 12.8857C10.3264 12.8814 10.4107 12.8593 10.4885 12.8209C10.5663 12.7825 10.6359 12.7284 10.6933 12.6619C10.7508 12.5953 10.7949 12.5176 10.8231 12.4332C10.8513 12.3488 10.863 12.2595 10.8577 12.1704V12.1695Z" fill="#70B276"/>
</svg>
