<svg width="32" height="32" viewBox="0 0 32 32" fill="none" xmlns="http://www.w3.org/2000/svg">
<path d="M16 24.0001C15.8345 24.0001 15.6716 23.9588 15.526 23.8801L2.526 16.8801L3.474 15.1201L16 21.8641L28.526 15.1201L29.474 16.8801L16.474 23.8801C16.3284 23.9588 16.1655 24.0001 16 24.0001Z" fill="#86BC8B"/>
<path d="M16 30.0002C15.8345 30.0002 15.6716 29.959 15.526 29.8802L2.526 22.8802L3.474 21.1202L16 27.8642L28.526 21.1202L29.474 22.8802L16.474 29.8802C16.3284 29.959 16.1655 30.0002 16 30.0002ZM16 18.0002C15.8345 18.0002 15.6716 17.959 15.526 17.8802L2.526 10.8802C2.36725 10.7946 2.23464 10.6675 2.14221 10.5126C2.04978 10.3577 2.00098 10.1806 2.00098 10.0002C2.00098 9.81984 2.04978 9.6428 2.14221 9.48787C2.23464 9.33295 2.36725 9.20592 2.526 9.12024L15.526 2.12024C15.6716 2.04164 15.8345 2.00049 16 2.00049C16.1655 2.00049 16.3284 2.04164 16.474 2.12024L29.474 9.12024C29.6328 9.20592 29.7654 9.33295 29.8578 9.48787C29.9502 9.6428 29.999 9.81984 29.999 10.0002C29.999 10.1806 29.9502 10.3577 29.8578 10.5126C29.7654 10.6675 29.6328 10.7946 29.474 10.8802L16.474 17.8802C16.3284 17.959 16.1655 18.0002 16 18.0002ZM5.11 10.0002L16 15.8642L26.89 10.0002L16 4.13624L5.11 10.0002Z" fill="#86BC8B"/>
</svg>
