<svg width="24" height="24" viewBox="0 0 24 24" fill="none" xmlns="http://www.w3.org/2000/svg">
<path d="M12 17.5C11.8862 17.5 11.7742 17.4716 11.6741 17.4175L2.73663 12.605L3.38838 11.395L12 16.0315L20.6116 11.395L21.2634 12.605L12.3259 17.4175C12.2258 17.4716 12.1138 17.5 12 17.5Z" fill="#75B37A"/>
<path d="M12 21.6248C11.8862 21.6248 11.7742 21.5964 11.6741 21.5423L2.73663 16.7298L3.38838 15.5198L12 20.1563L20.6116 15.5198L21.2634 16.7298L12.3259 21.5423C12.2258 21.5964 12.1138 21.6248 12 21.6248ZM12 13.3748C11.8862 13.3748 11.7742 13.3464 11.6741 13.2923L2.73663 8.47983C2.62749 8.42092 2.53631 8.33358 2.47277 8.22707C2.40922 8.12057 2.37567 7.99885 2.37567 7.87483C2.37567 7.7508 2.40922 7.62909 2.47277 7.52258C2.53631 7.41607 2.62749 7.32873 2.73663 7.26983L11.6741 2.45733C11.7742 2.40329 11.8862 2.375 12 2.375C12.1138 2.375 12.2258 2.40329 12.3259 2.45733L21.2634 7.26983C21.3725 7.32873 21.4637 7.41607 21.5272 7.52258C21.5908 7.62909 21.6243 7.7508 21.6243 7.87483C21.6243 7.99885 21.5908 8.12057 21.5272 8.22707C21.4637 8.33358 21.3725 8.42092 21.2634 8.47983L12.3259 13.2923C12.2258 13.3464 12.1138 13.3748 12 13.3748ZM4.51313 7.87483L12 11.9063L19.4869 7.87483L12 3.84333L4.51313 7.87483Z" fill="#75B37A"/>
</svg>
