<svg width="113" height="100" viewBox="0 0 113 100" fill="none" xmlns="http://www.w3.org/2000/svg">
<g clip-path="url(#clip0_4068_61851)">
<path d="M94.9325 24.4319C94.9325 24.4319 97.67 25.9415 98.3222 27.2645L98.9736 28.5886C98.9736 28.5886 102.625 31.0441 103.538 31.9879C104.45 32.9318 103.798 34.4434 103.407 34.8216C103.407 34.8216 103.407 36.8989 102.494 37.8438C102.494 37.8438 103.275 40.8619 102.103 41.8078C100.931 42.7537 99.1045 41.4307 99.1045 41.4307C99.1045 41.4307 98.5839 39.9211 97.5406 41.2432C96.4972 42.5642 97.67 44.6425 96.7582 45.9635C95.8464 47.2845 94.6722 47.8533 94.6722 47.8533C94.6722 47.8533 94.1516 49.1763 93.1083 48.6086C93.1083 48.6086 91.5429 49.741 90.6304 49.3639C90.6304 49.3639 90.6318 51.6308 90.1098 52.009C90.1098 52.009 90.1098 55.0291 88.9356 57.1075C87.7614 59.1858 88.154 58.8087 88.5444 59.7526C88.9349 60.6964 90.24 64.6625 90.7613 66.3627C91.2826 68.0629 92.7171 72.5977 93.3693 73.5416C94.0215 74.4855 94.0193 75.0532 94.9333 75.4304C95.8472 75.8075 96.4986 74.1094 97.4104 75.0532C98.3222 75.9971 98.8449 77.6963 98.4538 78.6411C98.4538 78.6411 97.931 80.3403 96.8884 80.5299C95.8457 80.7195 94.1509 79.586 93.6303 79.7756C93.1097 79.9652 93.1097 78.6422 92.4575 78.6422C91.8053 78.6422 91.2847 76.943 90.7627 76.3763C90.2407 75.8096 88.8061 73.3551 87.5032 71.6549C86.2002 69.9547 81.896 65.4209 80.7239 62.5872C80.7239 62.5872 79.5511 63.3415 78.5078 62.3976C77.4644 61.4538 77.2041 59.7536 77.2041 59.7536C77.2041 59.7536 74.8578 60.886 74.0748 59.9422C74.0748 59.9422 73.1623 60.3213 72.5108 60.3213C71.8594 60.3213 70.5536 59.7536 70.5536 59.7536L68.0778 59.564C68.0778 59.564 66.905 63.3415 65.3397 66.9305C63.7743 70.5194 64.0346 73.3541 64.8176 74.4865C65.6 75.6179 67.5565 77.8859 67.0352 79.2069C66.5139 80.5279 65.0794 80.3403 65.0794 80.3403C65.0794 80.3403 63.9044 81.2873 63.1228 80.9081C62.3412 80.5289 61.2978 78.6401 60.2545 77.6952C59.2112 76.7514 59.2112 75.2418 59.603 72.9749C59.9949 70.708 59.603 67.4962 59.603 64.4739C59.603 61.4517 60.2545 58.2409 60.2545 58.2409L55.17 54.8416C55.17 54.8416 55.5612 58.2409 54.5179 62.5862C53.4745 66.9315 53.6054 69.5755 54.5179 71.4643C55.4303 73.353 56.734 74.6761 57.3855 75.4304C58.0369 76.1846 59.603 77.6963 58.82 78.8297C58.0369 79.9632 56.9957 79.2069 56.9957 79.2069C56.9957 79.2069 56.038 80.1405 55.1913 79.3995C54.6339 78.9107 54.549 76.6581 53.1187 75.3638C51.2442 73.6666 48.842 70.8238 48.9213 69.1513C49.0726 65.9425 50.8509 68.2197 48.7812 61.6413C47.3106 56.9661 43.5659 51.8194 43.5659 51.8194C43.5659 51.8194 34.9616 59.564 32.6153 62.0185C30.269 64.4739 29.0948 64.0968 28.1823 65.9856C27.2699 67.8743 25.1832 68.8202 24.9222 69.5755C24.6611 70.3308 24.1412 73.5396 24.7927 74.1073C25.4442 74.6751 27.5302 74.4845 27.5302 76.5628C27.5302 78.6412 26.0964 79.2079 26.0964 79.2079C26.0964 79.2079 23.8816 81.2862 23.2287 80.1528C22.5759 79.0193 21.6641 78.6411 21.1428 78.6411C20.6214 78.6411 19.8377 71.6518 20.881 68.4421C21.9244 65.2323 21.9244 63.9093 22.3148 62.7758C22.7053 61.6423 23.8802 62.3976 25.1839 61.6423C26.4875 60.887 29.486 46.9094 31.1815 43.1319C32.8771 39.3544 33.7888 36.8989 33.7888 36.8989C33.7888 36.8989 24.1405 49.1763 20.6214 57.8648C17.1009 66.5543 13.4496 72.032 10.8423 71.0882C8.23495 70.1443 7.58348 66.5523 8.23495 64.8531C8.88643 63.154 11.104 62.5893 11.6246 64.2874C12.1452 65.9856 10.8423 67.6868 10.8423 67.6868C10.8423 67.6868 13.915 67.736 16.5782 60.887C20.62 50.4984 32.7137 32.1324 38.091 29.72C43.5659 27.2645 46.8261 26.8884 55.9517 28.9657C65.0772 31.043 68.3374 29.1543 68.3374 29.1543C68.3374 29.1543 75.2469 21.6013 77.3329 21.2221C79.4188 20.8429 87.5004 18.3885 90.5003 19.1448C93.4994 19.8981 96.2362 20.4648 94.9325 24.4319Z" fill="#75B37A"/>
</g>
<defs>
<clipPath id="clip0_4068_61851">
<rect width="96" height="62" fill="white" transform="translate(8 19)"/>
</clipPath>
</defs>
</svg>
