<?xml version="1.0" encoding="UTF-8"?>
<svg width="112" height="100" fill="none" version="1.1" viewBox="0 0 112 100" xmlns="http://www.w3.org/2000/svg">
 <path d="m76.938 19.491c0.6073 0.2502 1.2024 0.533 1.8131 0.7737 2.1852 0.5721 4.9817 1.4794 6.9687 2.5468 2.8325 1.4821 2.4211 1.9375 9.7215 13.408 0.2147 0.3241 1.5762 2.463 1.5762 2.463 1.4099 1.988 1.2336 1.6721 1.2518 3.6263-0.0173 0.2068 0.0573 0.4111 0.0177 0.6175-0.0226 0.1064-0.0588 1.1744-0.0624 1.2132-0.0926 0.5919 0.0236 1.0387 0.5832 1.165 1.3217 0.3101 4.6887 0.0938 4.7257 0.0976 0.782 0.1759-1.758 1.9018-4.6889 2.2293-0.1608 0.0366-0.8688-0.0353-1.0279 0.5893 0 0-0.4725 3.3481-1.0481 5.7443-0.911 3.6349-4.7439 11.742 0.819 21.203 0.0471 0.081 0.1017 0.1853 0.0488 0.2786-0.2416 0.4355-0.7034 0.5424-0.9969 0.3202-0.1315-0.0806-0.2193-0.2326-0.3664-0.2813-0.4007-0.0082-0.4926-0.1161-1.1481 0.7108-0.0851 0.1028-0.1509 0.2269-0.2576 0.3079-0.2567 0.0478-0.2613-0.0583-0.3429-0.3167-1.2317-4.3841-3.5966-5.2795-4.1539-13.624 0.0088-3.6069 0.18-2.095 0.772-7.1034 0.1441-1.1775 0.2674-2.358 0.3203-3.5432 0.1386-1.0428 0.0795-5.2899-0.5995-6.0761-0.4009-0.4855-5.8959-2.3664-7.9329-2.48-1.7693 0.2388-3.6399-0.5269-4.067-0.5079-0.4401-0.02-1.0619 0.6185-1.2599 0.7911-0.4794 0.4197-1.8182 1.6961-2.2729 2.224-1.6768 1.9296-2.0101 0.3417 3.3871 20.154 1.2496 4.657 2.6737 8.4822 2.7199 8.6467 0.6191 1.6119 0.4343 1.4533 4.463 7.4243 0.1648 0.2678 0.5216 0.6164 0.1111 0.6988-2.2879 0.5578-8.151 1.265-10.134-0.0385-0.2557-0.1392 0.1155-0.8379 0.2376-2.9307 0.0121-0.0672 0.1618-1.4921-0.1606-2.1152-0.8799-1.6764-8.707-14.884-11.898-20.633-0.1115-0.1913-0.2118-0.4058-0.3986-0.5299-0.6863-0.1315-0.2926 0.5217-4.1568 8.4377-2.9257 6.0157-5.1064 8.0947-5.2794 10.554 0.0807 1.5601 1.0421 2.439 2.1797 4.1371 1.3685 2.1182 0.3085 1.5718-0.4795 1.6087-2.4729-0.0845-6.821-0.3798-9.1538-1.24-0.3467-0.1664-0.3003-0.0805-0.1403-1.2047 1.048-5.7702 2.5079-5.7768 4.3275-15.459 0.2976-1.5924 0.5578-3.1943 0.712-4.8091-0.0206-0.354 0.2181-1.0728-0.3236-1.2453-0.6505-0.1164-6.824 1.8319-11.516 0.6931-0.433-0.068-0.8978-0.4225-1.338 0.3592-1.8704 3.3657-3.6953 4.2912-4.4559 4.8602-0.5828 0.4447-0.4236 1.3037-0.4822 1.5949-0.0879 0.503-0.2699 6.3799 0.487 9.8761 0.2136 0.9822 0.1935 1.0816 0.8784 1.6337 2.107 1.5811 2.7251 3.1421 2.647 3.428-0.0898 0.2365-6.4484 2.5214-10.765 0.1004-0.2851-0.1868-0.2041 0.3428-0.2122-4.5823-0.0016-0.1706-0.1075-6.2081-0.2314-6.7028-0.0689-0.2888-0.3101-0.4289-0.7496-0.0671-0.7859 0.6748-2.0435 1.8787-2.2855 2.1392-1.8766 1.9532-1.4999 1.92-2.422 4.5339-0.1855 0.4049-0.4471 1.1734-0.7974 1.3927-0.3359 0.0181-4.8704-2.8729-6.3482-6.9877-0.0332-0.1021-0.0823-0.205-0.0725-0.3149 0 0 5.5292-4.3799 7.9518-6.7833 0.5174-0.4358 1.8056-1.8592 1.8428-1.8956 0.8721-0.9216 0.2871-0.7365-1.2694-5.9371-1.2837-4.2932-2.0132-8.5155-2.1682-10.797-0.0218-0.1791-0.0706-0.8212-0.3467-0.8388-0.8202-0.1116-3.5328 8.3676-5.0178 15.264-0.13 0.6072 0.3028 1.3483 0.2599 2.82 0.0666 2.706-1.9945 3.8319-4.4755 3.041-0.3277-0.1305-0.1383-0.3524-0.3359-0.4754-0.1707-0.1174-1.0452-0.4318-1.445-1.5175-0.04509-0.1057 0.02404-0.2562 0.13894-0.2602 0.4539-0.0245 1.2131 0.2056 2.4854-0.9179 0.682-0.5839 1.6131-2.1065 1.6327-2.5132 0.9573-10.848 2.527-15.434 6.5442-23.486 0.1152-0.2306 1.2098-2.4359 1.3952-2.651 1.0751-1.1184 7.1501-6.8077 11.079-8.8143 3.0304-1.5975 6.8515-1.574 9.4002-0.561 7.4233 3.8341 9.0971 3.2709 13.413 2.7391 1.1408-0.1446 7.44-0.9522 7.9262-2.0463 0.9083-2.0868 2.5014-5.4037 4.1935-6.844 0.6857-0.6085 0.7174-1.2723 10.052 2.6849z" fill="#75B37A"/>
</svg>