<svg width="24" height="24" viewBox="0 0 24 24" fill="none" xmlns="http://www.w3.org/2000/svg">
<path d="M12 5C12.8509 5 13.667 5.38146 14.2686 6.06048C14.8703 6.73949 15.2083 7.66042 15.2083 8.62069C15.2083 9.58096 14.8703 10.5019 14.2686 11.1809C13.667 11.8599 12.8509 12.2414 12 12.2414C11.1491 12.2414 10.333 11.8599 9.73137 11.1809C9.12969 10.5019 8.79167 9.58096 8.79167 8.62069C8.79167 7.66042 9.12969 6.73949 9.73137 6.06048C10.333 5.38146 11.1491 5 12 5ZM5.58333 7.58621C6.09667 7.58621 6.57333 7.74138 6.98583 8.02069C6.84833 9.5 7.23333 10.969 8.02167 12.1172C7.56333 13.1103 6.64667 13.7931 5.58333 13.7931C4.85399 13.7931 4.15451 13.4661 3.63879 12.8841C3.12306 12.3021 2.83333 11.5127 2.83333 10.6897C2.83333 9.86657 3.12306 9.07719 3.63879 8.49519C4.15451 7.91318 4.85399 7.58621 5.58333 7.58621ZM18.4167 7.58621C19.146 7.58621 19.8455 7.91318 20.3612 8.49519C20.8769 9.07719 21.1667 9.86657 21.1667 10.6897C21.1667 11.5127 20.8769 12.3021 20.3612 12.8841C19.8455 13.4661 19.146 13.7931 18.4167 13.7931C17.3533 13.7931 16.4367 13.1103 15.9783 12.1172C16.7776 10.9528 17.1485 9.48572 17.0142 8.02069C17.4267 7.74138 17.9033 7.58621 18.4167 7.58621ZM6.04167 18.1897C6.04167 16.0483 8.70917 14.3103 12 14.3103C15.2908 14.3103 17.9583 16.0483 17.9583 18.1897V20H6.04167V18.1897ZM1 20V18.4483C1 17.0103 2.7325 15.8 5.07917 15.4483C4.53833 16.1517 4.20833 17.1241 4.20833 18.1897V20H1ZM23 20H19.7917V18.1897C19.7917 17.1241 19.4617 16.1517 18.9208 15.4483C21.2675 15.8 23 17.0103 23 18.4483V20Z" fill="#75B37A"/>
</svg>
