<svg width="112" height="100" viewBox="0 0 112 100" fill="none" xmlns="http://www.w3.org/2000/svg">
<path d="M56.5 22.2295C60.4064 22.2295 64.1528 23.7199 66.9151 26.3727C69.6773 29.0256 71.2292 32.6236 71.2292 36.3753C71.2292 40.127 69.6773 43.7251 66.9151 46.3779C64.1528 49.0308 60.4064 50.5212 56.5 50.5212C52.5936 50.5212 48.8472 49.0308 46.0849 46.3779C43.3227 43.7251 41.7708 40.127 41.7708 36.3753C41.7708 32.6236 43.3227 29.0256 46.0849 26.3727C48.8472 23.7199 52.5936 22.2295 56.5 22.2295ZM27.0417 32.3337C29.3983 32.3337 31.5867 32.9399 33.4804 34.0312C32.8492 39.8107 34.6167 45.5499 38.2358 50.0362C36.1317 53.9162 31.9233 56.5837 27.0417 56.5837C23.6933 56.5837 20.4821 55.3062 18.1144 53.0323C15.7468 50.7585 14.4167 47.6744 14.4167 44.4587C14.4167 41.2429 15.7468 38.1589 18.1144 35.885C20.4821 33.6111 23.6933 32.3337 27.0417 32.3337ZM85.9583 32.3337C89.3067 32.3337 92.5179 33.6111 94.8856 35.885C97.2532 38.1589 98.5833 41.2429 98.5833 44.4587C98.5833 47.6744 97.2532 50.7585 94.8856 53.0323C92.5179 55.3062 89.3067 56.5837 85.9583 56.5837C81.0767 56.5837 76.8683 53.9162 74.7642 50.0362C78.4333 45.4869 80.1364 39.755 79.5196 34.0312C81.4133 32.9399 83.6017 32.3337 85.9583 32.3337ZM29.1458 73.7607C29.1458 65.3945 41.3921 58.6045 56.5 58.6045C71.6079 58.6045 83.8542 65.3945 83.8542 73.7607V80.8337H29.1458V73.7607ZM6 80.8337V74.7712C6 69.1532 13.9537 64.4245 24.7271 63.0503C22.2442 65.7987 20.7292 69.5978 20.7292 73.7607V80.8337H6ZM107 80.8337H92.2708V73.7607C92.2708 69.5978 90.7558 65.7987 88.2729 63.0503C99.0462 64.4245 107 69.1532 107 74.7712V80.8337Z" fill="#75B37A"/>
</svg>
