<svg width="32" height="32" viewBox="0 0 32 32" fill="none" xmlns="http://www.w3.org/2000/svg">
<g id="Icons">
<path id="Vector" d="M10.6667 12C10.2889 12 9.972 11.872 9.716 11.616C9.46 11.36 9.33245 11.0436 9.33334 10.6667C9.33334 10.2889 9.46134 9.97202 9.71734 9.71602C9.97334 9.46002 10.2898 9.33246 10.6667 9.33335H26.6667C27.0444 9.33335 27.3613 9.46135 27.6173 9.71735C27.8733 9.97335 28.0009 10.2898 28 10.6667C28 11.0445 27.872 11.3613 27.616 11.6173C27.36 11.8733 27.0436 12.0009 26.6667 12H10.6667ZM10.6667 17.3333C10.2889 17.3333 9.972 17.2053 9.716 16.9493C9.46 16.6933 9.33245 16.3769 9.33334 16C9.33334 15.6222 9.46134 15.3053 9.71734 15.0493C9.97334 14.7933 10.2898 14.6658 10.6667 14.6667H26.6667C27.0444 14.6667 27.3613 14.7947 27.6173 15.0507C27.8733 15.3067 28.0009 15.6231 28 16C28 16.3778 27.872 16.6947 27.616 16.9507C27.36 17.2067 27.0436 17.3342 26.6667 17.3333H10.6667ZM10.6667 22.6667C10.2889 22.6667 9.972 22.5387 9.716 22.2827C9.46 22.0267 9.33245 21.7102 9.33334 21.3333C9.33334 20.9556 9.46134 20.6387 9.71734 20.3827C9.97334 20.1267 10.2898 19.9991 10.6667 20H26.6667C27.0444 20 27.3613 20.128 27.6173 20.384C27.8733 20.64 28.0009 20.9565 28 21.3333C28 21.7111 27.872 22.028 27.616 22.284C27.36 22.54 27.0436 22.6676 26.6667 22.6667H10.6667ZM5.33334 12C4.95556 12 4.63867 11.872 4.38267 11.616C4.12667 11.36 3.99912 11.0436 4 10.6667C4 10.2889 4.128 9.97202 4.384 9.71602C4.64 9.46002 4.95645 9.33246 5.33334 9.33335C5.71112 9.33335 6.028 9.46135 6.284 9.71735C6.54 9.97335 6.66756 10.2898 6.66667 10.6667C6.66667 11.0445 6.53867 11.3613 6.28267 11.6173C6.02667 11.8733 5.71023 12.0009 5.33334 12ZM5.33334 17.3333C4.95556 17.3333 4.63867 17.2053 4.38267 16.9493C4.12667 16.6933 3.99912 16.3769 4 16C4 15.6222 4.128 15.3053 4.384 15.0493C4.64 14.7933 4.95645 14.6658 5.33334 14.6667C5.71112 14.6667 6.028 14.7947 6.284 15.0507C6.54 15.3067 6.66756 15.6231 6.66667 16C6.66667 16.3778 6.53867 16.6947 6.28267 16.9507C6.02667 17.2067 5.71023 17.3342 5.33334 17.3333ZM5.33334 22.6667C4.95556 22.6667 4.63867 22.5387 4.38267 22.2827C4.12667 22.0267 3.99912 21.7102 4 21.3333C4 20.9556 4.128 20.6387 4.384 20.3827C4.64 20.1267 4.95645 19.9991 5.33334 20C5.71112 20 6.028 20.128 6.284 20.384C6.54 20.64 6.66756 20.9565 6.66667 21.3333C6.66667 21.7111 6.53867 22.028 6.28267 22.284C6.02667 22.54 5.71023 22.6676 5.33334 22.6667Z" fill="#86BC8B"/>
</g>
</svg>
