<svg width="24" height="24" viewBox="0 0 24 24" fill="none" xmlns="http://www.w3.org/2000/svg">
<path d="M20.0813 5.3658C19.6131 4.883 18.9783 4.61182 18.3164 4.61182C17.6546 4.61182 17.0198 4.883 16.5515 5.3658C16.3627 5.55915 16.2053 5.78258 16.0853 6.02752L13.4795 5.28845C13.5037 4.9233 13.4515 4.55704 13.3266 4.21452C13.2016 3.872 13.0067 3.56124 12.7552 3.3033C12.2869 2.8205 11.6521 2.54932 10.9902 2.54932C10.3284 2.54932 9.69359 2.8205 9.22529 3.3033C8.8338 3.70643 8.58299 4.23228 8.51218 4.79839C8.44136 5.3645 8.55456 5.93886 8.83401 6.43142L5.81196 9.24158C5.33133 8.87547 4.73949 8.69929 4.1438 8.74502C3.54812 8.79074 2.98803 9.05533 2.56514 9.4908C2.09743 9.9742 1.83472 10.6295 1.83472 11.3127C1.83472 11.9959 2.09743 12.6511 2.56514 13.1345C2.79573 13.3756 3.07062 13.5666 3.3737 13.6965C3.67678 13.8263 4.00193 13.8924 4.33008 13.8908C4.95193 13.8913 5.55159 13.6522 6.01177 13.2205L12.0475 17.801C11.8382 18.28 11.7746 18.8134 11.8653 19.3305C11.956 19.8476 12.1966 20.3242 12.5554 20.697C12.7867 20.9371 13.0617 21.1277 13.3646 21.2577C13.6675 21.3877 13.9923 21.4546 14.3203 21.4546C14.6483 21.4546 14.9731 21.3877 15.276 21.2577C15.5789 21.1277 15.8539 20.9371 16.0853 20.697C16.553 20.2136 16.8157 19.5584 16.8157 18.8752C16.8157 18.192 16.553 17.5367 16.0853 17.0533C15.9418 16.9026 15.7794 16.7725 15.6024 16.6666L17.9751 9.74002C18.0881 9.75745 18.2022 9.76607 18.3164 9.7658C18.6446 9.7674 18.9697 9.70133 19.2728 9.57146C19.5759 9.4416 19.8508 9.25056 20.0813 9.00955C20.5491 8.52615 20.8118 7.87088 20.8118 7.18767C20.8118 6.50447 20.5491 5.8492 20.0813 5.3658ZM9.93293 4.03377C10.1422 3.81675 10.4092 3.66875 10.7001 3.60852C10.991 3.54828 11.2926 3.57852 11.5668 3.6954C11.841 3.81228 12.0755 4.01054 12.2404 4.26507C12.4054 4.5196 12.4934 4.81894 12.4934 5.12517C12.4934 5.4314 12.4054 5.73075 12.2404 5.98527C12.0755 6.2398 11.841 6.43807 11.5668 6.55495C11.2926 6.67183 10.991 6.70206 10.7001 6.64183C10.4092 6.58159 10.1422 6.43359 9.93293 6.21658C9.65332 5.92668 9.49634 5.53426 9.49634 5.12517C9.49634 4.71609 9.65332 4.32366 9.93293 4.03377ZM3.27278 12.4041C2.99317 12.1142 2.83619 11.7218 2.83619 11.3127C2.83619 10.9036 2.99317 10.5112 3.27278 10.2213C3.48209 10.0043 3.74909 9.85626 4.03996 9.79602C4.33082 9.73578 4.63247 9.76602 4.90667 9.8829C5.18087 9.99978 5.4153 10.198 5.58025 10.4526C5.7452 10.7071 5.83326 11.0064 5.83326 11.3127C5.83326 11.6189 5.7452 11.9182 5.58025 12.1728C5.4153 12.4273 5.18087 12.6256 4.90667 12.7424C4.63247 12.8593 4.33082 12.8896 4.03996 12.8293C3.74909 12.7691 3.48209 12.6211 3.27278 12.4041ZM15.3776 19.9666C15.0915 20.2252 14.7209 20.3618 14.3408 20.3488C13.9608 20.3358 13.5997 20.1741 13.3308 19.8966C13.062 19.619 12.9053 19.2463 12.8927 18.854C12.8802 18.4617 13.0125 18.0791 13.263 17.7838C13.5491 17.5252 13.9197 17.3886 14.2998 17.4016C14.6798 17.4146 15.0409 17.5762 15.3098 17.8538C15.5787 18.1313 15.7353 18.504 15.7479 18.8964C15.7605 19.2887 15.6281 19.6713 15.3776 19.9666ZM14.6616 16.3228C14.2993 16.2702 13.9301 16.3006 13.5804 16.412C13.2308 16.5234 12.9092 16.713 12.6386 16.9674L6.60286 12.3869C6.76707 12.0088 6.84213 11.596 6.82187 11.1822C6.80161 10.7684 6.68661 10.3655 6.4863 10.0064L9.50835 7.19627C9.80064 7.41914 10.1365 7.57349 10.4926 7.64854C10.8486 7.72359 11.2162 7.71754 11.5698 7.6308C11.9233 7.54407 12.2543 7.37874 12.5395 7.14635C12.8248 6.91397 13.0575 6.62012 13.2214 6.28533L15.8272 7.02439C15.803 7.38954 15.8551 7.7558 15.9801 8.09832C16.105 8.44084 16.2999 8.75161 16.5515 9.00955C16.6949 9.16023 16.8573 9.2903 17.0343 9.39627L14.6616 16.3228ZM19.3737 8.27908C19.0876 8.53766 18.717 8.67429 18.3369 8.66129C17.9569 8.64829 17.5958 8.48663 17.3269 8.20907C17.058 7.93151 16.9014 7.55881 16.8888 7.16649C16.8762 6.77418 17.0086 6.39159 17.2591 6.09627C17.5452 5.83769 17.9158 5.70106 18.2959 5.71406C18.6759 5.72706 19.037 5.88872 19.3059 6.16628C19.5748 6.44384 19.7314 6.81654 19.744 7.20885C19.7566 7.60117 19.6242 7.98375 19.3737 8.27908Z" fill="#75B37A"/>
</svg>
