<svg width="112" height="100" viewBox="0 0 112 100" fill="none" xmlns="http://www.w3.org/2000/svg">
<path d="M96.3221 24.6689C94.0809 22.8255 91.0428 21.79 87.8752 21.79C84.7076 21.79 81.6696 22.8255 79.4283 24.6689C78.525 25.4071 77.7716 26.2602 77.1971 27.1954L64.726 24.3736C64.8419 22.9793 64.5924 21.5809 63.9943 20.2731C63.3962 18.9653 62.4635 17.7787 61.2596 16.7939C59.0184 14.9505 55.9803 13.915 52.8127 13.915C49.6451 13.915 46.6071 14.9505 44.3658 16.7939C42.4922 18.3331 41.2918 20.3409 40.9529 22.5024C40.614 24.6639 41.1558 26.857 42.4932 28.7376L28.0299 39.4673C25.7296 38.0694 22.8971 37.3968 20.0462 37.5714C17.1953 37.7459 14.5148 38.7562 12.4908 40.4189C10.2524 42.2646 8.99512 44.7665 8.99512 47.3751C8.99512 49.9837 10.2524 52.4857 12.4908 54.3314C13.5944 55.2516 14.9101 55.981 16.3606 56.4769C17.8111 56.9727 19.3672 57.225 20.9377 57.2189C23.9139 57.2207 26.7838 56.308 28.9862 54.6595L57.8729 72.1486C56.8709 73.9776 56.5668 76.0141 57.0007 77.9886C57.4347 79.9631 58.5864 81.7826 60.3033 83.2064C61.4104 84.1231 62.7266 84.8505 64.1762 85.3469C65.6258 85.8433 67.1803 86.0989 68.7502 86.0989C70.3202 86.0989 71.8746 85.8433 73.3242 85.3469C74.7738 84.8505 76.09 84.1231 77.1971 83.2064C79.4355 81.3607 80.6928 78.8587 80.6928 76.2501C80.6928 73.6415 79.4355 71.1396 77.1971 69.2939C76.5107 68.7186 75.7334 68.2219 74.8862 67.8173L86.2416 41.3704C86.7824 41.437 87.3285 41.4699 87.8752 41.4689C89.4457 41.475 91.0019 41.2227 92.4524 40.7269C93.9029 40.231 95.2185 39.5016 96.3221 38.5814C98.5605 36.7357 99.8178 34.2337 99.8178 31.6251C99.8178 29.0165 98.5605 26.5146 96.3221 24.6689ZM47.7526 19.5829C48.7543 18.7543 50.0322 18.1893 51.4242 17.9593C52.8163 17.7293 54.2599 17.8447 55.5722 18.291C56.8846 18.7373 58.0065 19.4943 58.796 20.4661C59.5854 21.4379 60.0068 22.5809 60.0068 23.7501C60.0068 24.9194 59.5854 26.0623 58.796 27.0342C58.0065 28.006 56.8846 28.763 55.5722 29.2093C54.2599 29.6555 52.8163 29.771 51.4242 29.541C50.0322 29.311 48.7543 28.7459 47.7526 27.9173C46.4144 26.8104 45.6631 25.3121 45.6631 23.7501C45.6631 22.1882 46.4144 20.6898 47.7526 19.5829ZM15.8776 51.5423C14.5394 50.4354 13.7881 48.9371 13.7881 47.3751C13.7881 45.8132 14.5394 44.3148 15.8776 43.2079C16.8793 42.3793 18.1572 41.8143 19.5492 41.5843C20.9413 41.3543 22.3849 41.4697 23.6972 41.916C25.0096 42.3623 26.1315 43.1193 26.921 44.0911C27.7104 45.0629 28.1318 46.2059 28.1318 47.3751C28.1318 48.5444 27.7104 49.6873 26.921 50.6592C26.1315 51.631 25.0096 52.388 23.6972 52.8343C22.3849 53.2805 20.9413 53.396 19.5492 53.166C18.1572 52.936 16.8793 52.3709 15.8776 51.5423ZM73.8104 80.4173C72.4411 81.4046 70.6673 81.9263 68.8484 81.8767C67.0295 81.827 65.3015 81.2098 64.0147 80.15C62.7278 79.0902 61.9783 77.6672 61.918 76.1693C61.8577 74.6713 62.4912 73.2106 63.6901 72.0829C65.0593 71.0956 66.8331 70.574 68.652 70.6236C70.4709 70.6732 72.1989 71.2905 73.4858 72.3503C74.7726 73.41 75.5222 74.8331 75.5824 76.331C75.6427 77.8289 75.0092 79.2897 73.8104 80.4173ZM70.3838 66.5048C68.6495 66.3037 66.8827 66.42 65.2093 66.8453C63.5358 67.2707 61.9967 67.9947 60.7018 68.9658L31.8151 51.4767C32.601 50.0332 32.9602 48.4569 32.8633 46.8769C32.7663 45.297 32.2159 43.7585 31.2573 42.3876L45.7205 31.6579C47.1194 32.5089 48.727 33.0982 50.431 33.3848C52.135 33.6714 53.8944 33.6483 55.5864 33.3171C57.2784 32.9859 58.8623 32.3546 60.2276 31.4674C61.5928 30.5801 62.7065 29.4581 63.4908 28.1798L75.9619 31.0017C75.846 32.3959 76.0956 33.7943 76.6937 35.1021C77.2918 36.41 78.2244 37.5965 79.4283 38.5814C80.1147 39.1567 80.892 39.6533 81.7393 40.0579L70.3838 66.5048ZM92.9354 35.7923C91.5661 36.7796 89.7923 37.3013 87.9734 37.2517C86.1545 37.202 84.4265 36.5848 83.1397 35.525C81.8528 34.4652 81.1033 33.0422 81.043 31.5443C80.9827 30.0463 81.6162 28.5855 82.8151 27.4579C84.1843 26.4706 85.9581 25.949 87.777 25.9986C89.5959 26.0482 91.3239 26.6655 92.6108 27.7253C93.8976 28.785 94.6472 30.2081 94.7074 31.706C94.7677 33.2039 94.1342 34.6647 92.9354 35.7923Z" fill="#75B37A"/>
</svg>
