<svg width="32" height="32" viewBox="0 0 32 32" fill="none" xmlns="http://www.w3.org/2000/svg">
<path d="M28.65 6.35C27.9469 5.64774 26.9937 5.2533 26 5.2533C25.0062 5.2533 24.0531 5.64774 23.35 6.35C23.0666 6.63124 22.8302 6.95622 22.65 7.3125L18.7375 6.2375C18.7739 5.70637 18.6956 5.17363 18.5079 4.67542C18.3203 4.17721 18.0277 3.72518 17.65 3.35C16.9469 2.64774 15.9937 2.2533 15 2.2533C14.0062 2.2533 13.0531 2.64774 12.35 3.35C11.7622 3.93637 11.3856 4.70124 11.2793 5.52467C11.173 6.34811 11.3429 7.18355 11.7625 7.9L7.225 11.9875C6.50334 11.455 5.61471 11.1987 4.72031 11.2652C3.82591 11.3317 2.98496 11.7166 2.35 12.35C1.64774 13.0531 1.2533 14.0062 1.2533 15C1.2533 15.9937 1.64774 16.9469 2.35 17.65C2.69622 18.0006 3.10897 18.2784 3.56403 18.4673C4.01909 18.6562 4.50729 18.7523 5 18.75C5.93369 18.7507 6.83406 18.403 7.525 17.775L16.5875 24.4375C16.2731 25.1343 16.1777 25.9101 16.3139 26.6623C16.45 27.4145 16.8113 28.1076 17.35 28.65C17.6973 28.9992 18.1102 29.2763 18.565 29.4654C19.0198 29.6545 19.5075 29.7519 20 29.7519C20.4925 29.7519 20.9802 29.6545 21.435 29.4654C21.8898 29.2763 22.3027 28.9992 22.65 28.65C23.3522 27.9469 23.7467 26.9937 23.7467 26C23.7467 25.0062 23.3522 24.0531 22.65 23.35C22.4347 23.1308 22.1908 22.9416 21.925 22.7875L25.4875 12.7125C25.6571 12.7379 25.8285 12.7504 26 12.75C26.4927 12.7523 26.9809 12.6562 27.436 12.4673C27.891 12.2784 28.3038 12.0006 28.65 11.65C29.3522 10.9469 29.7467 9.99375 29.7467 9C29.7467 8.00624 29.3522 7.05312 28.65 6.35ZM13.4125 4.4125C13.7268 4.09684 14.1277 3.88157 14.5644 3.79395C15.0011 3.70634 15.454 3.75032 15.8657 3.92033C16.2774 4.09033 16.6294 4.37871 16.8771 4.74894C17.1248 5.11916 17.257 5.55457 17.257 6C17.257 6.44542 17.1248 6.88083 16.8771 7.25105C16.6294 7.62128 16.2774 7.90966 15.8657 8.07967C15.454 8.24967 15.0011 8.29365 14.5644 8.20604C14.1277 8.11842 13.7268 7.90315 13.4125 7.5875C12.9927 7.16583 12.757 6.59503 12.757 6C12.757 5.40497 12.9927 4.83417 13.4125 4.4125ZM3.4125 16.5875C2.99267 16.1658 2.75697 15.595 2.75697 15C2.75697 14.405 2.99267 13.8342 3.4125 13.4125C3.72677 13.0968 4.12766 12.8816 4.56439 12.794C5.00112 12.7063 5.45402 12.7503 5.86573 12.9203C6.27744 13.0903 6.62942 13.3787 6.87709 13.7489C7.12476 14.1192 7.25697 14.5546 7.25697 15C7.25697 15.4454 7.12476 15.8808 6.87709 16.2511C6.62942 16.6213 6.27744 16.9097 5.86573 17.0797C5.45402 17.2497 5.00112 17.2937 4.56439 17.206C4.12766 17.1184 3.72677 16.9032 3.4125 16.5875ZM21.5875 27.5875C21.1579 27.9636 20.6014 28.1623 20.0308 28.1434C19.4602 28.1245 18.9181 27.8894 18.5143 27.4857C18.1106 27.0819 17.8755 26.5398 17.8566 25.9692C17.8376 25.3985 18.0364 24.8421 18.4125 24.4125C18.8421 24.0364 19.3985 23.8376 19.9692 23.8566C20.5398 23.8755 21.0819 24.1106 21.4857 24.5143C21.8894 24.9181 22.1245 25.4602 22.1434 26.0308C22.1623 26.6014 21.9636 27.1579 21.5875 27.5875ZM20.5125 22.2875C19.9684 22.2109 19.4141 22.2552 18.8891 22.4172C18.3641 22.5793 17.8813 22.8551 17.475 23.225L8.4125 16.5625C8.65906 16.0126 8.77176 15.4121 8.74134 14.8102C8.71092 14.2083 8.53825 13.6222 8.2375 13.1L12.775 9.0125C13.2139 9.33668 13.7182 9.56118 14.2528 9.67035C14.7874 9.77952 15.3393 9.77071 15.8702 9.64455C16.401 9.51839 16.8979 9.27791 17.3262 8.93989C17.7545 8.60188 18.1039 8.17447 18.35 7.6875L22.2625 8.7625C22.2261 9.29363 22.3044 9.82636 22.4921 10.3246C22.6797 10.8228 22.9723 11.2748 23.35 11.65C23.5653 11.8692 23.8092 12.0584 24.075 12.2125L20.5125 22.2875ZM27.5875 10.5875C27.1579 10.9636 26.6014 11.1623 26.0308 11.1434C25.4602 11.1245 24.9181 10.8894 24.5143 10.4857C24.1106 10.0819 23.8755 9.53983 23.8566 8.96919C23.8376 8.39855 24.0364 7.84206 24.4125 7.4125C24.8421 7.03639 25.3985 6.83765 25.9692 6.85656C26.5398 6.87547 27.0819 7.11061 27.4857 7.51433C27.8894 7.91806 28.1245 8.46017 28.1434 9.0308C28.1623 9.60144 27.9636 10.1579 27.5875 10.5875Z" fill="#86BC8B"/>
</svg>
