<svg width="32" height="32" viewBox="0 0 32 32" fill="none" xmlns="http://www.w3.org/2000/svg">
<path d="M15.9867 2.66669C8.62669 2.66669 2.66669 8.64002 2.66669 16C2.66669 23.36 8.62669 29.3334 15.9867 29.3334C23.36 29.3334 29.3334 23.36 29.3334 16C29.3334 8.64002 23.36 2.66669 15.9867 2.66669ZM16 26.6667C10.1067 26.6667 5.33335 21.8934 5.33335 16C5.33335 10.1067 10.1067 5.33335 16 5.33335C21.8934 5.33335 26.6667 10.1067 26.6667 16C26.6667 21.8934 21.8934 26.6667 16 26.6667ZM15.7067 9.33335H15.6267C15.0934 9.33335 14.6667 9.76002 14.6667 10.2934V16.5867C14.6667 17.0534 14.9067 17.4934 15.32 17.7334L20.8534 21.0534C21.3067 21.32 21.8934 21.1867 22.16 20.7334C22.227 20.6254 22.2715 20.5051 22.291 20.3795C22.3105 20.254 22.3045 20.1258 22.2734 20.0026C22.2423 19.8795 22.1867 19.7638 22.1099 19.6626C22.0332 19.5613 21.9369 19.4766 21.8267 19.4134L16.6667 16.3467V10.2934C16.6667 9.76002 16.24 9.33335 15.7067 9.33335Z" fill="#86BC8B"/>
</svg>
