<?xml version="1.0" encoding="UTF-8" standalone="no"?>
<!-- Created with Inkscape (http://www.inkscape.org/) -->

<svg
   width="161.20514mm"
   height="42.151821mm"
   viewBox="0 0 161.20514 42.151821"
   version="1.1"
   id="svg1"
   xml:space="preserve"
   xmlns="http://www.w3.org/2000/svg"
   xmlns:svg="http://www.w3.org/2000/svg"><defs
     id="defs1" /><g
     id="layer1"
     transform="translate(-18.194239,-94.344518)"><g
       id="g193"><g
         id="g192"><path
           style="fill:#000000"
           d="M 151.12072,108.48385 V 94.344515 h 14.13933 14.13934 v 14.139335 14.13933 h -14.13934 -14.13933 z"
           id="path178" /><path
           style="fill:#000000"
           d="M 120.13272,108.48385 V 94.344515 h 14.13933 14.13934 v 14.139335 14.13933 h -14.13934 -14.13933 z"
           id="path177" /><path
           style="fill:#000000"
           d="M 89.060048,108.48385 V 94.344515 h 14.139332 14.13934 v 14.139335 14.13933 H 103.19938 89.060048 Z"
           id="path176" /></g><path
         id="path123"
         style="fill:#000000"
         d="m 177.54368,130.08663 c -1.36141,0.0386 -2.33486,1.5285 -1.8712,3.16208 0.14279,0.50309 0.73248,1.14216 1.18701,1.28623 v 5.2e-4 c 0.39811,0.12599 1.48578,0.12248 1.90479,-0.006 0.30952,-0.095 0.33756,-0.12808 0.32556,-0.38086 -0.0172,-0.36255 -0.0402,-0.37713 -0.42323,-0.27078 -0.45212,0.12553 -1.1675,0.11364 -1.49241,-0.0248 -0.34143,-0.14548 -0.60193,-0.43454 -0.72657,-0.80667 -0.18024,-0.53813 -0.23974,-0.51676 1.42782,-0.51676 h 1.52394 l -0.001,-0.48679 c -0.001,-0.88546 -0.52994,-1.67986 -1.25057,-1.87999 -0.20725,-0.0576 -0.40961,-0.0815 -0.6041,-0.076 z m -0.0145,0.66508 c 0.21917,0 0.47668,0.0581 0.58187,0.13177 0.23651,0.16565 0.44184,0.55498 0.44184,0.83768 v 0.21549 h -1.09503 -1.0945 l 0.0692,-0.24185 c 0.18484,-0.64452 0.53201,-0.94309 1.09658,-0.94309 z" /><path
         id="path114"
         style="fill:#000000"
         d="m 128.9544,130.07475 c -1.19881,-0.003 -2.05038,0.99407 -2.04638,2.39468 0.003,0.99005 0.3546,1.60005 1.14101,1.98024 0.37341,0.18001 0.51334,0.20089 1.18546,0.17209 0.4191,-0.018 0.87999,-0.0866 1.02423,-0.15245 0.24466,-0.11168 0.25715,-0.13835 0.18655,-0.40049 -0.0716,-0.26597 -0.0901,-0.27747 -0.34675,-0.21187 -0.14918,0.0382 -0.5638,0.0698 -0.92139,0.0698 -0.52883,0 -0.69509,-0.0334 -0.88935,-0.17828 -0.28405,-0.21191 -0.49523,-0.56498 -0.56483,-0.94362 l -0.0506,-0.27543 h 1.52187 c 1.70622,0 1.56477,0.0587 1.52497,-0.63511 -0.0592,-1.0304 -0.82232,-1.81752 -1.76475,-1.81952 z m -0.0904,0.67334 c 0.23557,-0.007 0.47043,0.063 0.65784,0.22066 0.21375,0.17986 0.43001,0.63214 0.43201,0.90434 2.6e-4,0.0349 -0.49482,0.0636 -1.10019,0.0636 -1.2265,0 -1.22892,-9.6e-4 -0.95963,-0.56844 0.18235,-0.38426 0.57736,-0.60862 0.96997,-0.62012 z" /><path
         id="path112"
         style="fill:#000000"
         d="m 119.62474,128.11776 -0.40204,0.0258 -0.40205,0.0253 -0.0238,1.20251 -0.0233,1.20251 -0.29559,-0.2005 c -0.97602,-0.66234 -2.424,-0.0665 -2.78381,1.14515 -0.36713,1.23624 0.0758,2.54588 1.00356,2.96726 0.64457,0.29276 1.48941,0.16629 1.94716,-0.29146 0.21832,-0.21827 0.30231,-0.16121 0.30231,0.20464 0,0.13681 0.062,0.16227 0.39274,0.16227 h 0.39326 l -0.0537,-0.44442 c -0.0293,-0.24448 -0.0533,-1.69442 -0.0537,-3.22203 z m -1.96887,2.68614 c 0.82718,3.9e-4 1.12241,0.41123 1.12241,1.56321 0,0.89749 -0.14574,1.23652 -0.62839,1.46555 -0.39546,0.18763 -0.73529,0.17023 -1.06918,-0.0548 -0.45562,-0.30704 -0.63097,-0.68933 -0.63097,-1.37563 0,-1.01174 0.44307,-1.59871 1.20613,-1.59835 z" /><path
         id="path110"
         style="fill:#000000"
         d="m 112.86908,130.09077 c -1.50734,-0.048 -2.57802,1.441 -2.08359,3.12177 0.15756,0.53564 0.74405,1.17058 1.22214,1.32292 0.16152,0.0515 0.48847,0.0973 0.72709,0.10232 1.30066,0.0259 2.18901,-0.89805 2.18901,-2.27738 0,-1.15279 -0.58055,-1.96566 -1.57406,-2.204 -0.16402,-0.0393 -0.32466,-0.0607 -0.48059,-0.0656 z m -0.0202,0.68058 c 0.70803,0.008 1.18804,0.63151 1.18804,1.57561 0,0.66944 -0.23793,1.22386 -0.6258,1.46038 -0.16402,0.10006 -0.42013,0.16103 -0.67852,0.16123 -0.37351,2.9e-4 -0.44721,-0.0331 -0.73277,-0.33332 -0.52135,-0.54805 -0.61855,-1.4633 -0.23616,-2.22622 0.19784,-0.39471 0.47873,-0.58337 0.94051,-0.63097 0.0492,-0.005 0.0975,-0.007 0.1447,-0.007 z" /><path
         id="path107"
         style="fill:#000000"
         d="m 105.42251,128.47123 c -0.35137,-0.003 -0.71606,0.008 -0.90899,0.0326 l -0.46767,0.0584 v 2.99465 2.99516 l 0.36018,0.0377 c 0.51527,0.0542 1.82989,-0.0143 2.19005,-0.11421 0.96478,-0.26762 1.51273,-1.17731 1.26452,-2.09909 -0.10407,-0.38648 -0.58899,-0.92088 -0.90796,-1.00098 -0.1914,-0.048 -0.19011,-0.0529 0.0765,-0.23254 0.14979,-0.10095 0.36232,-0.31613 0.47232,-0.47801 0.16687,-0.2461 0.19438,-0.37435 0.16588,-0.78238 -0.0646,-0.92344 -0.64014,-1.34761 -1.90479,-1.40301 -0.10741,-0.005 -0.22291,-0.007 -0.34003,-0.008 z m -0.52969,0.65422 0.72657,0.03 c 0.69756,0.0287 0.73641,0.041 0.97359,0.30645 0.41544,0.46495 0.27664,1.13574 -0.29094,1.40508 -0.17841,0.0846 -0.50888,0.13849 -0.8506,0.13849 h -0.55862 v -0.93999 z m 0,2.53576 0.66456,0.0382 c 1.01027,0.0585 1.45211,0.40396 1.45211,1.13482 0,0.41846 -0.19747,0.74991 -0.54467,0.91467 -0.30391,0.14427 -1.27449,0.25598 -1.46606,0.16898 -0.0768,-0.0349 -0.10594,-0.35087 -0.10594,-1.15238 z" /><path
         id="path105"
         style="fill:#000000"
         d="m 97.053507,130.09594 c -0.320318,0.009 -0.658429,0.0766 -0.982368,0.20618 -0.31292,0.1252 -0.334721,0.15502 -0.287321,0.39223 0.0282,0.14111 0.06635,0.2715 0.08475,0.2899 0.01838,0.0183 0.209707,-0.0265 0.425297,-0.0997 0.458889,-0.15583 0.970959,-0.17134 1.261938,-0.0388 0.21857,0.0996 0.348699,0.30725 0.431499,0.68885 0.04957,0.22884 0.04318,0.2331 -0.35295,0.23409 -0.50577,0.001 -1.202584,0.18308 -1.569414,0.4098 -0.431429,0.26663 -0.683986,0.78245 -0.634586,1.29656 0.04729,0.4921 0.257189,0.81574 0.663008,1.02267 0.53608,0.27335 1.373534,0.13955 1.834514,-0.29352 l 0.191719,-0.18035 v 0.26872 c 0,0.26276 0.008,0.26923 0.389641,0.26923 h 0.390157 l -0.03669,-1.62987 c -0.03979,-1.7597 -0.08415,-1.97085 -0.505395,-2.40761 -0.285737,-0.29627 -0.769932,-0.44364 -1.303797,-0.42839 z m 0.663526,2.26446 h 0.31781 v 0.42736 c 0,0.48336 -0.153804,0.84235 -0.440283,1.02836 -0.63947,0.41519 -1.337903,0.11402 -1.337903,-0.57722 0,-0.45525 0.701237,-0.8775 1.460376,-0.8785 z" /><path
         id="path103"
         style="fill:#000000"
         d="m 87.748649,130.08095 c -0.210689,-3e-4 -0.420432,0.0391 -0.684196,0.11782 -0.540847,0.16136 -0.959512,0.5136 -1.222664,1.02888 -0.178609,0.34973 -0.210837,0.52889 -0.210323,1.1746 4.93e-4,0.61832 0.03539,0.82591 0.183451,1.10071 0.245948,0.45648 0.697985,0.87698 1.096574,1.01906 0.408744,0.14566 1.050241,0.15594 1.491382,0.0238 0.514206,-0.15406 1.125348,-0.75111 1.296561,-1.26659 0.193098,-0.58137 0.178918,-1.48668 -0.03049,-1.96008 -0.230044,-0.52005 -0.722486,-0.96729 -1.230932,-1.11828 -0.267069,-0.0795 -0.478675,-0.11959 -0.689364,-0.11989 z m -0.04082,0.68109 c 0.272286,-0.003 0.54678,0.0828 0.731221,0.2527 0.730861,0.67304 0.704567,2.08943 -0.05064,2.7249 -0.217431,0.18293 -0.359206,0.22944 -0.699699,0.22944 -0.381025,0 -0.461051,-0.0347 -0.747241,-0.32091 -0.72601,-0.72601 -0.631501,-2.15819 0.178801,-2.71353 0.165404,-0.11338 0.375783,-0.17002 0.587561,-0.1726 z" /><path
         id="path100"
         style="fill:#000000"
         d="m 78.091357,130.08767 c -0.251697,-0.003 -0.530269,0.0359 -0.840775,0.11679 -0.65676,0.17106 -0.731908,0.23767 -0.622184,0.55242 0.100202,0.28744 0.117169,0.2915 0.522965,0.12195 0.167174,-0.0698 0.498479,-0.12712 0.736389,-0.12712 0.36521,0 0.471111,0.0386 0.680062,0.24753 0.160987,0.16099 0.24753,0.33411 0.24753,0.49558 0,0.2467 -0.0037,0.2487 -0.606681,0.2992 -0.758075,0.0636 -1.466608,0.39538 -1.750281,0.82011 -0.166726,0.24957 -0.192554,0.37952 -0.165364,0.82114 0.03461,0.56204 0.150902,0.76107 0.617533,1.05833 0.378367,0.24103 1.177335,0.17954 1.639176,-0.12609 l 0.347266,-0.22944 0.05271,0.21187 c 0.04602,0.18339 0.100556,0.21187 0.404626,0.21187 h 0.3514 l -0.02532,-1.5875 c -0.02817,-1.7667 -0.111163,-2.15702 -0.534851,-2.51354 -0.290116,-0.24411 -0.634703,-0.36753 -1.0542,-0.3731 z m 0.465088,2.27273 h 0.258899 l -0.0026,0.52916 c -0.0028,0.55586 -0.07342,0.71151 -0.420646,0.92759 -0.323129,0.20109 -0.608476,0.2373 -0.897619,0.11369 -0.295935,-0.12651 -0.372587,-0.26894 -0.372587,-0.69246 0,-0.4975 0.621755,-0.87798 1.434537,-0.87798 z" /><path
         id="path98"
         style="fill:#000000"
         d="m 61.073275,130.08767 c -0.251698,-0.003 -0.53027,0.0359 -0.840776,0.11679 -0.65676,0.17106 -0.731908,0.23767 -0.622184,0.55242 0.100202,0.28744 0.117169,0.2915 0.522965,0.12195 0.167174,-0.0698 0.498479,-0.12712 0.73639,-0.12712 0.365209,0 0.471111,0.0386 0.680061,0.24753 0.160987,0.16099 0.247531,0.33411 0.247531,0.49558 0,0.2467 -0.0037,0.2487 -0.606682,0.2992 -0.758075,0.0636 -1.466608,0.39538 -1.750281,0.82011 -0.166725,0.24957 -0.192554,0.37952 -0.165364,0.82114 0.03461,0.56204 0.150904,0.76107 0.617533,1.05833 0.378367,0.24103 1.177335,0.17954 1.639177,-0.12609 l 0.347265,-0.22944 0.05323,0.21187 c 0.04602,0.18339 0.100039,0.21187 0.40411,0.21187 h 0.351399 l -0.02532,-1.5875 c -0.02817,-1.7667 -0.111162,-2.15702 -0.534851,-2.51354 -0.290116,-0.24411 -0.634703,-0.36753 -1.054199,-0.3731 z m 0.465088,2.27273 h 0.258899 v 0.54157 c 0,0.51393 -0.01519,0.55471 -0.299207,0.80408 -0.164604,0.14452 -0.352092,0.26303 -0.416512,0.26303 -0.06442,0 -0.16794,0.0177 -0.22996,0.0393 -0.164351,0.0572 -0.628364,-0.16627 -0.692464,-0.33332 -0.125118,-0.32604 -0.05629,-0.7289 0.158646,-0.9281 0.225371,-0.20886 0.786246,-0.38654 1.220598,-0.38654 z" /><path
         id="path126"
         style="fill:#000000"
         d="m 44.144592,128.46038 -1.034045,3.05046 -1.033529,3.05097 h 0.443901 0.4439 l 0.299207,-0.91054 0.29869,-0.91002 1.055232,-0.0233 1.054716,-0.0238 0.299207,0.9126 0.299723,0.91261 0.43925,0.0253 c 0.241571,0.014 0.43925,-0.01 0.43925,-0.0537 0,-0.0437 -0.452305,-1.40785 -1.005107,-3.03134 l -1.005107,-2.95176 -0.497644,-0.0238 z m 0.465605,1.02526 c 0.03332,2.1e-4 0.702833,1.95907 0.83044,2.42982 0.02158,0.0796 -0.184673,0.10594 -0.831474,0.10594 -0.651643,0 -0.850792,-0.0257 -0.822172,-0.10594 0.02078,-0.0582 0.204981,-0.62886 0.409278,-1.26814 0.204298,-0.63927 0.390648,-1.16183 0.413928,-1.16168 z" /><path
         id="path93"
         style="fill:#000000"
         d="m 24.761279,130.07423 c -0.760415,0.001 -1.498825,0.44082 -1.871203,1.11311 -0.226048,0.40809 -0.251179,0.52814 -0.250631,1.21491 4.92e-4,0.61831 0.03539,0.8259 0.183451,1.10071 0.245949,0.45647 0.697986,0.87646 1.096574,1.01854 0.44031,0.157 1.101268,0.15336 1.575615,-0.008 0.413398,-0.14086 0.918466,-0.57201 1.115177,-0.9524 0.319795,-0.61841 0.326344,-1.77098 0.01344,-2.37608 -0.328707,-0.63565 -1.127466,-1.11153 -1.862419,-1.11053 z m -0.06666,0.6904 c 0.282684,-0.001 0.577127,0.0879 0.754992,0.25166 0.768688,0.70772 0.691955,2.23543 -0.141076,2.8081 -0.127032,0.0873 -0.372232,0.14418 -0.623735,0.14418 -0.366154,0 -0.451821,-0.0374 -0.732772,-0.31833 -0.758144,-0.75814 -0.603561,-2.32904 0.273885,-2.78278 0.133419,-0.069 0.299095,-0.10218 0.468706,-0.10283 z" /><path
         id="path184"
         style="fill:#000000"
         d="m 69.852584,94.485189 c -1.161375,6.68e-4 -2.404426,0.0488 -3.288172,0.144694 -0.707692,0.07679 -1.345701,0.162429 -1.418001,0.190169 -0.117581,0.04512 -0.131775,0.920489 -0.131775,8.291488 v 8.24084 l 0.359668,0.0527 c 0.197908,0.0291 0.76007,0.086 1.24902,0.12609 1.342971,0.11011 4.626268,0.0365 5.670454,-0.12713 1.869355,-0.29294 3.101238,-0.85424 4.026111,-1.83451 0.836838,-0.88696 1.225249,-1.87121 1.225249,-3.1042 0,-1.80766 -1.117256,-3.36523 -2.853056,-3.97651 l -0.429948,-0.15141 0.562239,-0.28887 c 1.226915,-0.63119 2.018465,-1.76984 2.104265,-3.02617 0.155748,-2.280419 -1.430088,-3.909963 -4.277775,-4.395598 -0.557409,-0.09506 -1.636904,-0.142262 -2.798279,-0.141593 z m 0.456819,2.822567 c 1.329675,0 2.228245,0.337685 2.552299,0.959114 0.212799,0.408074 0.277771,0.899862 0.180351,1.369426 -0.11044,0.532334 -0.684635,1.128244 -1.304313,1.353924 -0.297641,0.1084 -0.757075,0.1626 -1.621606,0.1912 l -1.206645,0.0398 v -1.903758 -1.90376 l 0.264583,-0.05271 c 0.145521,-0.02911 0.656353,-0.05323 1.135331,-0.05323 z m -1.399914,6.664714 1.121895,0.0481 c 0.617008,0.0264 1.350475,0.10929 1.629875,0.18449 1.193547,0.32142 1.820044,1.06819 1.820044,2.16886 0,1.0171 -0.540514,1.74957 -1.568897,2.12493 -0.407692,0.14883 -0.746564,0.19168 -1.754414,0.22118 l -1.248503,0.0362 v -2.39158 z" /><path
         id="path187"
         style="fill:#000000"
         d="m 35.927006,94.59836 -2.529045,8.2765 c -1.391182,4.55188 -2.547175,8.34279 -2.568835,8.42429 -0.03669,0.13807 0.09683,0.14779 1.95647,0.14779 h 1.99626 l 0.09198,-0.31729 c 0.05057,-0.17462 0.313035,-1.13667 0.583427,-2.13785 l 0.49196,-1.82056 h 2.402437 2.402438 l 0.636653,2.13733 0.637171,2.13682 2.053104,10e-4 c 1.528781,6.3e-4 2.053105,-0.0249 2.053105,-0.0997 0,-0.0553 -1.129,-3.72263 -2.508891,-8.14937 -1.379891,-4.426743 -2.543825,-8.172184 -2.586405,-8.323524 l -0.07752,-0.275436 h -2.517159 z m 2.36213,2.905766 c 0.01089,-0.01089 0.186301,0.65497 0.38964,1.479496 0.203339,0.824527 0.611149,2.318518 0.905888,3.319698 0.294738,1.00119 0.536254,1.8487 0.536918,1.8836 6.65e-4,0.0349 -0.798737,0.0636 -1.776636,0.0636 -1.19591,0 -1.778186,-0.0295 -1.778186,-0.0899 0,-0.0494 0.243811,-0.93504 0.541569,-1.96836 0.297759,-1.03331 0.680597,-2.506109 0.851111,-3.273183 0.170513,-0.767076 0.318806,-1.404011 0.329696,-1.414901 z" /><g
         id="g191"
         transform="translate(-0.9636375,-58.726423)"><path
           id="path68"
           style="fill:#fe993f;fill-opacity:1"
           d="m 138.17089,166.08754 0.0315,0.0946 0.0315,0.0951 0.92449,0.38654 0.92449,0.38654 0.29611,0.15503 0.2961,0.15503 0.71986,0.48576 0.71985,0.48627 0.88883,0.44235 0.88884,0.44235 0.56069,0.37052 0.56069,0.37104 0.13022,0.2682 0.12971,0.26872 -0.0625,0.17673 -0.063,0.17673 -0.28888,0.15452 -0.28938,0.15451 -0.84646,-0.0424 -0.84698,-0.0418 -0.19947,0.16278 -0.19999,0.16278 -0.30799,5.1e-4 -0.30851,5.2e-4 -1.23455,0.16278 -1.23455,0.1633 -0.34623,-0.0398 -0.34623,-0.0398 -0.32401,0.32608 -0.32453,0.32607 -0.0925,0.16227 -0.093,0.16226 -0.22169,-0.0181 -0.22169,-0.0186 -0.27131,0.33745 -0.27078,0.33745 h -0.27647 -0.27595 l -0.14625,0.48679 -0.14624,0.48731 -0.008,1.06195 -0.008,1.06195 -0.14986,0.22841 -0.14935,0.22892 -0.0982,-0.0207 -0.0982,-0.0207 -0.0661,0.36381 -0.0656,0.3638 -0.0455,0.38705 -0.0455,0.38706 0.12971,0.44648 0.1297,0.44701 0.27182,0.1359 0.27182,0.13591 0.20774,-0.0212 0.20722,-0.0212 0.1664,-0.28525 0.16588,-0.28526 -0.10077,-1.24953 -0.10128,-1.24902 0.0987,-0.4129 0.0987,-0.41289 0.0837,-0.23306 0.0832,-0.23255 h 0.31626 0.31574 l 0.20309,-0.20515 0.20257,-0.20516 0.1974,-0.26045 0.19689,-0.26045 h 0.33538 0.3359 l 0.2589,-0.41651 0.25838,-0.41599 0.2067,-0.0517 0.20619,-0.0522 0.0822,-0.21601 0.0822,-0.21549 0.2341,0.0512 0.23409,0.0512 0.54881,-0.0827 0.54828,-0.0827 1.18546,-0.22117 1.18546,-0.22169 0.81959,-0.14832 0.8201,-0.14831 0.34417,-0.23874 0.34416,-0.23823 0.092,-0.34313 0.0925,-0.34262 -0.0481,-0.23978 -0.0481,-0.23977 -0.21653,-0.45837 -0.21704,-0.45837 -0.48886,-0.45269 -0.48937,-0.45269 -0.60617,-0.3607 -0.60668,-0.36018 -0.53123,-0.23771 -0.53072,-0.23772 -0.80408,-0.26303 -0.80461,-0.26303 -1.31206,-0.29404 -1.31258,-0.29352 -0.23616,-0.0382 z m -2.01383,11.57707 h 0.0832 0.0832 l 0.12299,0.29352 0.12247,0.29352 v 0.29921 0.29921 l -0.31729,-10e-4 -0.31781,-0.001 -0.11782,-0.0755 -0.11834,-0.0749 0.0543,-0.26975 0.0537,-0.26975 0.1757,-0.2465 z" /><path
           id="path74"
           style="fill:#fe993f;fill-opacity:1"
           d="m 134.70237,155.31248 -0.32504,0.20516 -0.32505,0.20567 -0.23099,0.39378 -0.23099,0.39429 -1.0325,1.5384 -1.03301,1.53841 -0.14521,0.30903 -0.1447,0.30902 v 0.13539 0.1354 h -0.20567 -0.20515 l -0.24443,0.20619 -0.24495,0.20618 -0.3731,0.0269 -0.37259,0.0269 -0.24081,0.35915 -0.24082,0.35967 -0.22789,0.0501 -0.22737,0.0501 -0.28009,0.0858 -0.2806,0.0853 -0.13695,0.28732 -0.13694,0.2868 -0.13487,0.0429 -0.13488,0.0429 -0.29404,-0.0842 -0.29352,-0.0842 -0.21239,-5.2e-4 h -0.21239 l -0.26717,-0.14779 -0.26768,-0.14831 -0.61754,-0.32143 -0.61753,-0.32143 -0.10077,-0.0837 -0.10077,-0.0837 -0.41651,-0.0491 -0.41651,-0.0491 -0.14263,0.14262 -0.14314,0.14315 v 0.3793 0.37931 l 0.31006,0.2837 0.31006,0.2837 0.76636,0.21911 0.76688,0.21911 0.0708,-0.12609 0.0703,-0.12609 h 0.32453 0.32401 l 0.49713,0.21756 0.49713,0.21756 0.33848,0.15451 0.33899,0.15451 0.56379,0.0574 0.56431,0.0568 0.11317,-0.23617 0.11317,-0.23616 0.39791,-0.11214 0.39739,-0.11213 0.0584,-0.18655 0.0584,-0.18707 0.094,-0.062 0.0946,-0.0625 0.19844,-10e-4 0.19895,-0.001 0.22428,-0.12041 0.22479,-0.11989 0.14831,-0.0465 0.14831,-0.0465 v -0.19276 l 5.2e-4,-0.19327 0.76171,-1.33738 0.76171,-1.33739 v -0.0749 -0.0744 l 0.30954,-0.25529 0.31006,-0.25528 0.20051,-0.63665 0.20102,-0.63614 0.28267,-0.29972 0.28267,-0.29972 h 0.25993 0.26045 l 0.13488,0.19017 0.13487,0.19068 0.12196,0.42323 0.12195,0.42323 0.12609,1.48208 0.12609,1.48156 0.1385,0.59273 0.13849,0.59273 0.0258,1.22732 0.0258,1.22783 0.008,0.0212 0.008,0.0212 h 0.047 0.0465 l 0.11472,-0.27595 0.11472,-0.27492 0.23565,-1.31258 0.23564,-1.31206 0.005,-1.48208 0.005,-1.48157 -0.15348,-0.71158 -0.15348,-0.71159 -0.20929,-0.41341 -0.20929,-0.41289 -0.31471,-0.34882 -0.31419,-0.3483 -0.27233,-0.1142 -0.27285,-0.11421 h -0.30076 z m -10.48721,6.16604 0.19843,0.13022 0.19793,0.12971 0.21549,0.3855 0.21549,0.38551 -0.35399,-10e-4 -0.35398,-0.001 -0.20309,-0.10542 -0.2036,-0.10438 -0.0925,-0.15297 -0.093,-0.15347 0.14779,-0.11007 0.14831,-0.11008 v -0.0915 -0.0915 l 0.0884,-0.0548 z" /><path
           style="fill:#997eff;fill-opacity:1"
           d="m 168.0228,163.48841 0.59267,-0.28279 0.14967,-0.11537 0.14966,-0.11536 0.0524,-0.44271 0.0524,-0.44271 -0.14849,-0.057 -0.14848,-0.057 -0.22293,0.0779 -0.22293,0.0779 -0.23814,0.44287 -0.23813,0.44288 -0.41799,0.35996 -0.41799,0.35996 -4e-5,0.0727 -4e-5,0.0727 0.23283,-0.0555 0.23284,-0.0555 z"
           id="path83" /><path
           style="fill:#997eff;fill-opacity:1"
           d="m 170.16393,165.79006 0.0875,-0.10583 -0.0442,-0.2301 -0.0442,-0.23009 -0.13882,-0.0403 -0.13882,-0.0404 -0.50238,-0.0894 -0.50239,-0.0894 h -0.15644 -0.15644 l -0.0529,0.13783 -0.0529,0.13784 0.20371,0.16411 0.20372,0.16412 0.33867,0.16186 0.33866,0.16185 0.2648,0.002 0.2648,0.002 z"
           id="path82" /><path
           style="fill:#66e54d;fill-opacity:1"
           d="m 160.84535,167.35917 0.15012,-0.23005 -0.0118,-0.57369 -0.0118,-0.57369 0.30812,-0.0895 0.30812,-0.0895 0.61383,0.1586 0.61383,0.15861 v -0.23209 -0.2321 l -0.29771,-0.18399 -0.29771,-0.18399 -0.42195,0.058 -0.42196,0.058 v -0.0859 -0.0859 l 0.24256,-0.0533 0.24256,-0.0533 0.18077,-0.16842 0.18078,-0.16842 v -0.12636 -0.12636 l -0.11268,-0.0432 -0.11268,-0.0432 -0.54349,-0.0599 -0.54349,-0.0599 -0.15213,-0.31121 -0.15214,-0.31121 -0.0946,-0.53546 -0.0946,-0.53545 -0.0518,-0.0614 -0.0518,-0.0614 -0.27377,0.16649 -0.27377,0.16649 -0.16825,0.27594 -0.16824,0.27594 -3.2e-4,0.22059 -3.1e-4,0.22059 0.27516,0.0789 0.27517,0.0789 0.1597,0.44394 0.1597,0.44395 -0.035,0.035 -0.035,0.035 -0.37162,-0.0835 -0.37161,-0.0835 -0.2852,-0.25041 -0.28521,-0.25041 h -0.0436 -0.0436 l -0.23838,0.12327 -0.23838,0.12327 -0.14958,0.31523 -0.14959,0.31523 0.0811,0.12864 0.0812,0.12864 0.23786,0.0636 0.23787,0.0636 0.76104,-0.25284 0.76103,-0.25284 0.28174,0.093 0.28174,0.093 0.0562,0.17704 0.0562,0.17704 -0.30003,0.26223 -0.30004,0.26223 -0.18708,0.381 -0.18708,0.381 -0.15769,0.20191 -0.1577,0.20192 v 0.1097 0.10969 l 0.1905,0.0367 0.1905,0.0367 0.35788,0.0115 0.35788,0.0115 z"
           id="path81" /><path
           style="fill:#997eff;fill-opacity:1"
           d="m 168.6195,168.93506 -0.55853,-0.52248 -0.47743,-0.77151 -0.47744,-0.77151 -0.19781,-0.44691 -0.19782,-0.44692 v -0.23873 -0.23872 l 0.32735,-0.14762 0.32735,-0.14761 0.2722,-0.28858 0.27219,-0.28858 h 0.12012 0.12012 v 0.0876 0.0876 l -0.13673,0.20869 -0.13674,0.20869 h 0.13376 0.13376 l 0.0876,-0.16377 0.0876,-0.16377 v -0.16516 -0.16516 l 0.21767,-0.14262 0.21767,-0.14263 0.73514,0.0575 0.73515,0.0575 0.19276,-0.15745 0.19276,-0.15746 0.0503,-0.31449 0.0504,-0.31449 -0.21864,-0.0996 -0.21864,-0.0996 -0.3029,0.26594 -0.30289,0.26595 h -0.15078 -0.15078 l -0.63923,0.32495 -0.63923,0.32494 -0.78851,-0.19394 -0.78851,-0.19395 -0.2177,-0.0911 -0.2177,-0.0911 -0.42333,-0.82212 -0.42334,-0.82212 -0.58426,-0.97466 -0.58427,-0.97466 -0.46744,-0.635 -0.46745,-0.635 -0.4297,-0.49628 -0.4297,-0.49628 -0.66731,-0.50283 -0.66731,-0.50283 -0.47594,-0.24001 -0.47595,-0.24 -0.59267,-0.18905 -0.59266,-0.18904 -0.84667,0.005 -0.84667,0.005 -0.57066,0.17707 -0.57067,0.17706 -0.53,0.36257 -0.53,0.36258 -0.273,0.35768 -0.27299,0.35769 -0.13348,0.44076 -0.13348,0.44077 -0.0494,0.56046 -0.0494,0.56046 0.10345,0.70954 0.10345,0.70954 0.24588,0.762 0.24588,0.762 0.25565,0.44317 0.25564,0.44318 0.21336,0.13979 0.21335,0.1398 0.0525,-0.0525 0.0526,-0.0525 -0.35544,-0.76502 -0.35544,-0.76503 -0.17309,-0.65439 -0.17309,-0.6544 -0.0135,-0.762 -0.0135,-0.762 0.20177,-0.381 0.20176,-0.381 0.23651,-0.30065 0.2365,-0.30066 0.42699,-0.23239 0.42699,-0.2324 0.57407,-0.12165 0.57408,-0.12164 0.762,-0.007 0.762,-0.007 -0.16934,-0.0706 -0.16933,-0.0706 -0.56191,-0.1046 -0.56191,-0.1046 -0.77531,0.19158 -0.77531,0.19157 -0.0376,-0.0376 -0.0376,-0.0376 0.25357,-0.18748 0.25357,-0.18747 0.48622,-0.0899 0.48622,-0.0899 0.97367,0.0342 0.97366,0.0342 0.31538,0.1382 0.31537,0.1382 -0.14567,0.39305 -0.14567,0.39305 0.3046,0.26832 0.30461,0.26832 0.44168,0.36955 0.44167,0.36954 0.15783,0.35012 0.15783,0.35013 0.21611,0.72806 0.2161,0.72806 0.4453,0.66894 0.4453,0.66894 0.007,0.33866 0.007,0.33867 0.0626,0.18954 0.0626,0.18954 -0.23495,0.21774 -0.23496,0.21775 0.10987,0.0679 0.10987,0.0679 -0.0264,0.36513 -0.0264,0.36513 0.0963,0.0321 0.0963,0.0321 0.15557,-0.22635 0.15558,-0.22636 0.19415,-0.19349 0.19415,-0.19348 0.1109,-0.85641 0.11091,-0.8564 0.0624,-0.0618 0.0624,-0.0618 0.20404,0.254 0.20404,0.254 0.62719,1.22766 0.62718,1.22767 0.39735,0.889 0.39735,0.889 0.38117,0.57475 0.38116,0.57475 0.40918,0.42009 0.40918,0.4201 0.23833,0.0917 0.23832,0.0917 0.33866,0.0606 0.33867,0.0606 0.0273,-0.0648 0.0273,-0.0648 z"
           id="path80" /><path
           style="fill:#fe993f;fill-opacity:1"
           d="m 171.4518,175.18322 v -0.0901 l -0.18004,-0.19165 -0.18005,-0.19165 0.0504,-0.13131 0.0504,-0.1313 h 0.16801 0.168 l 0.19449,0.0901 0.19448,0.0901 0.127,0.26939 0.127,0.26939 0.21167,0.10497 0.21166,0.10497 0.38863,0.001 0.38862,0.001 0.62906,-0.16089 0.62907,-0.16089 0.84498,-0.37253 0.84498,-0.37253 0.48782,-0.31283 0.48782,-0.31283 0.16803,-0.27558 0.16803,-0.27559 3.1e-4,-0.35334 3.2e-4,-0.35333 -0.22377,-0.26594 -0.22377,-0.26594 -1.12802,-0.54236 -1.12802,-0.54235 -0.22157,-0.33482 -0.22157,-0.33482 -0.35281,-0.14454 -0.3528,-0.14454 -0.59745,-0.0413 -0.59744,-0.0413 -0.33389,0.16909 -0.33389,0.16908 -0.27649,0.0597 -0.27648,0.0597 -0.87308,-0.14868 -0.87307,-0.14868 -0.15114,0.058 -0.15114,0.058 0.0984,0.11856 0.0984,0.11856 0.4403,0.10355 0.44031,0.10355 0.52638,0.16043 0.52638,0.16043 0.0663,0.11344 0.0663,0.11344 0.35646,0.18035 0.35646,0.18035 h 0.12001 0.12001 l 0.10533,-0.12692 0.10534,-0.12692 -0.10719,-0.25879 -0.1072,-0.25879 0.0891,-0.0891 0.0891,-0.0891 0.3253,0.10227 0.32529,0.10227 0.30287,0.31804 0.30287,0.31803 0.33213,0.0586 0.33213,0.0586 0.45032,0.12699 0.45032,0.12699 0.0823,0.22878 0.0823,0.22878 0.49993,0.28678 0.49994,0.28677 0.0442,0.11522 0.0442,0.11522 -0.20734,0.13586 -0.20734,0.13585 -0.74025,0.24713 -0.74025,0.24714 -0.73938,0.13527 -0.73939,0.13527 -0.19413,-0.0507 -0.19414,-0.0507 -0.29634,-0.47575 -0.29633,-0.47575 -0.22863,-0.11863 -0.22863,-0.11862 h -0.3105 -0.31049 l -0.3261,0.3261 -0.3261,0.3261 0.0981,0.25978 0.0981,0.25978 -0.11104,0.13379 -0.11103,0.13379 h -0.29366 -0.29365 l -1.17836,-0.63956 -1.17835,-0.63956 -0.0931,0.0575 -0.0931,0.0575 0.0539,0.33692 0.0539,0.33692 0.1233,0.23844 0.1233,0.23844 0.25706,0.18304 0.25706,0.18304 0.45872,0.16123 0.45872,0.16123 0.59783,0.0556 0.59783,0.0556 v 0.15112 0.15113 l 0.12464,0.12464 0.12465,0.12465 0.34102,-0.0866 0.34102,-0.0866 z"
           id="path79" /><path
           style="fill:#66e54d;fill-opacity:1"
           d="m 164.15714,178.44773 0.15945,-0.3175 0.14568,-0.44531 0.14568,-0.4453 0.17283,-0.0925 0.17284,-0.0925 0.22226,0.16761 0.22226,0.16761 -0.0271,0.381 -0.0271,0.381 0.27258,0.095 0.27259,0.095 h 0.072 0.072 l 0.16933,-0.16933 0.16933,-0.16933 v -0.28977 -0.28977 l -0.28127,-0.0928 -0.28127,-0.0928 -0.28444,-0.29347 -0.28444,-0.29347 0.0609,-0.0609 0.0609,-0.0609 0.27193,0.11903 0.27194,0.11903 0.40216,-0.004 0.40217,-0.004 v 0.10835 0.10836 l 0.13305,0.13305 0.13304,0.13304 h 0.21873 0.21873 l 0.33035,-0.34727 0.33035,-0.34727 -0.026,-0.22423 -0.026,-0.22423 -0.69034,0.0276 -0.69035,0.0276 -0.24735,-0.12791 -0.24735,-0.1279 -0.31114,-0.3444 -0.31113,-0.34439 v -0.21036 -0.21035 l 0.57175,-0.28794 0.57176,-0.28793 0.19024,-0.33849 0.19025,-0.3385 v -0.31561 -0.31561 l -0.18468,-0.32859 -0.18469,-0.3286 -0.49221,-0.3867 -0.49221,-0.38671 -0.24335,-0.35456 -0.24336,-0.35456 -0.36329,-0.71967 -0.36328,-0.71966 -0.60188,-1.43281 -0.60188,-1.4328 -0.0931,-0.031 -0.0931,-0.031 -0.0872,0.34344 -0.0872,0.34344 0.33504,1.58607 0.33504,1.58606 0.20862,0.40437 0.20862,0.40436 0.37121,0.57914 0.37122,0.57913 0.26425,0.18816 0.26425,0.18817 0.27273,0.0717 0.27274,0.0718 0.34979,0.0907 0.3498,0.0906 0.10435,0.25192 0.10434,0.25191 -0.0493,0.12853 -0.0493,0.12852 h -0.50206 -0.50206 l -0.47792,0.2514 -0.47792,0.2514 -0.0502,-0.13076 -0.0502,-0.13075 0.19122,-0.40826 0.19121,-0.40826 -0.0554,-0.0897 -0.0554,-0.0897 -0.12915,0.0496 -0.12916,0.0496 0.0479,0.12471 0.0479,0.12471 -0.34403,0.41091 -0.34403,0.4109 -0.0462,0.28466 -0.0462,0.28467 0.22239,0.70399 0.22239,0.70398 -0.0578,0.17931 -0.0578,0.17931 0.0166,0.38268 0.0166,0.38267 -0.2652,0.40037 -0.26519,0.40037 -0.2461,0.14538 -0.2461,0.14538 v 0.13414 0.13415 l 0.1016,0.1016 0.1016,0.1016 h 0.27768 0.27767 z"
           id="path78" /><path
           style="fill:#66e54d;fill-opacity:1"
           d="m 138.18205,163.78195 0.35048,-0.58994 0.1613,-0.51827 0.1613,-0.51827 v -0.36309 -0.36309 l -0.12994,-0.10784 -0.12994,-0.10784 -0.16639,0.1786 -0.16639,0.1786 v 0.0882 0.0882 h 0.0847 0.0847 v 0.25667 0.25667 l -0.17527,0.52029 -0.17527,0.52028 -0.24275,0.53538 -0.24276,0.53538 h 0.11791 0.11791 z"
           id="path76" /><path
           style="fill:#66e54d;fill-opacity:1"
           d="m 139.23768,164.83833 0.92979,-0.2109 0.24733,-7.7e-4 0.24733,-7.7e-4 0.15518,0.14044 0.15518,0.14043 0.21132,-0.0963 0.21133,-0.0963 v -0.11845 -0.11845 l -0.10584,-0.0834 -0.10583,-0.0834 -0.24322,-0.0582 -0.24322,-0.0582 -0.63317,0.096 -0.63317,0.096 -0.48449,0.18341 -0.48449,0.18341 -0.20545,0.14373 -0.20546,0.14372 0.12855,0.004 0.12854,0.004 z"
           id="path73" /><path
           style="fill:#66e54d;fill-opacity:1"
           d="m 131.76258,166.82798 0.44622,-0.33791 0.50327,-0.17009 0.50328,-0.17009 h 0.25449 0.25449 l -0.0946,-0.0946 -0.0946,-0.0946 -0.57852,0.0976 -0.57852,0.0976 -1.00036,0.3089 -1.00036,0.30889 -0.39664,-0.0907 -0.39664,-0.0907 -0.42278,-0.16152 -0.42278,-0.16151 -0.18966,-0.33485 -0.18966,-0.33485 -10e-4,-0.43137 -0.001,-0.43138 -0.17476,-0.15815 -0.17475,-0.15815 -0.73541,-0.18626 -0.73542,-0.18626 -0.0807,0.0776 -0.0807,0.0776 0.003,0.52885 0.003,0.52884 0.0869,0.35829 0.0869,0.35828 0.0982,0.11835 0.0982,0.11834 0.26884,0.0538 0.26884,0.0538 0.2161,0.14301 0.21609,0.14302 0.66867,0.23514 0.66867,0.23515 0.0439,0.0439 0.0439,0.0439 h 1.08484 1.08484 z"
           id="path72" /><path
           style="fill:#997eff;fill-opacity:1"
           d="m 133.30326,169.09186 0.33245,-0.16667 0.42955,-0.40374 0.42954,-0.40374 0.55033,-0.27525 0.55034,-0.27526 0.35231,-0.25194 0.35231,-0.25194 0.4463,-0.55006 0.44629,-0.55007 0.31308,-0.19764 0.31309,-0.19764 0.087,-0.24971 0.0871,-0.2497 -0.16032,-0.26364 -0.16033,-0.26363 h -0.24113 -0.24114 l -0.24694,0.25564 -0.24695,0.25564 -0.59266,0.28612 -0.59267,0.28611 -0.20282,0.0605 -0.20283,0.0605 -0.36492,0.33637 -0.36492,0.33638 -0.22803,0.39484 -0.22803,0.39484 -0.79173,0.82092 -0.79172,0.82092 v 0.15698 0.15698 l 0.0995,0.0995 0.0995,0.0995 0.218,-0.0522 0.21801,-0.0522 z"
           id="path71" /><path
           style="fill:#66e54d;fill-opacity:1"
           d="m 135.17179,175.35739 0.0569,-0.35983 0.0885,-0.30933 0.0885,-0.30934 -0.0584,-0.31154 -0.0585,-0.31154 -0.39701,-0.17462 -0.39701,-0.17462 -0.26718,-0.30517 -0.26717,-0.30517 0.0402,-0.75646 0.0403,-0.75645 0.11635,-0.21721 0.11635,-0.21722 0.52192,-0.59266 0.52193,-0.59267 0.37182,-0.54943 0.37182,-0.54943 v -0.1622 -0.16219 l -0.33229,0.51411 -0.33229,0.51412 -0.45087,0.34587 -0.45088,0.34587 -0.24102,0.23264 -0.24102,0.23264 -0.34134,0.71967 -0.34135,0.71966 -0.0211,1.43382 -0.0211,1.43381 0.18013,0.14899 0.18012,0.149 0.31135,0.26205 0.31134,0.26206 0.36599,0.072 0.36599,0.072 0.0561,0.009 0.0561,0.009 z"
           id="path70" /><path
           style="fill:#997eff;fill-opacity:1"
           d="m 108.29843,165.38929 0.38897,-0.14443 0.38765,-0.26671 0.38765,-0.26671 0.68199,-0.74127 0.682,-0.74128 0.76141,-1.05376 0.7614,-1.05375 -0.0357,-0.0357 -0.0357,-0.0357 -0.74501,0.4024 -0.74501,0.40241 -0.69665,0.45832 -0.69665,0.45833 -0.9324,0.84729 -0.9324,0.8473 -0.21245,0.36251 -0.21245,0.36252 v 0.13652 0.13652 l 0.14765,0.0826 0.14765,0.0826 0.25452,-0.0478 0.25452,-0.0478 z"
           id="path66" /><path
           style="fill:#fe993f;fill-opacity:1"
           d="m 105.10119,165.86347 0.45621,-0.20176 0.21385,-0.28508 0.21385,-0.28507 0.25895,-0.46567 0.25894,-0.46566 0.25533,-0.76433 0.25534,-0.76432 0.13006,-0.80201 0.13007,-0.80201 4.5e-4,-0.635 4.6e-4,-0.635 0.12677,-0.71967 0.12677,-0.71966 1.1e-4,-0.43758 1.2e-4,-0.43757 -0.0612,-0.1551 -0.0612,-0.15509 -0.0447,0.2492 -0.0447,0.2492 -0.0847,0.005 -0.0847,0.005 -0.0458,-0.39861 -0.0458,-0.3986 -0.0476,-0.0476 -0.0476,-0.0476 -0.27478,0.6546 -0.27477,0.65459 -0.11356,0.0879 -0.11356,0.0879 -0.57088,1.25823 -0.57087,1.25822 -0.11156,-0.15257 -0.11157,-0.15257 v -0.2617 -0.2617 l -0.11347,-0.43744 -0.11346,-0.43743 -0.45804,-0.70105 -0.45803,-0.70105 -0.28015,-0.24778 -0.28016,-0.24779 -0.15656,-0.3069 -0.15657,-0.30689 -0.1302,-0.46312 -0.1302,-0.46312 -0.0932,-0.36239 -0.0932,-0.36239 -0.0709,0.0438 -0.0709,0.0438 -0.10583,0.56088 -0.10583,0.56089 0.0592,1.28167 0.0592,1.28166 0.41123,2.286 0.41123,2.286 0.27025,0.762 0.27025,0.762 0.19527,0.38594 0.19527,0.38593 0.25244,0.27023 0.25243,0.27024 h 0.13295 0.13295 z"
           id="path65" /><path
           style="fill:#997eff;fill-opacity:1"
           d="m 99.950796,167.41575 0.592674,-0.0855 0.71966,-0.26157 0.71967,-0.26157 0.0781,-0.0722 0.0781,-0.0722 -0.37439,-0.16985 -0.37439,-0.16985 -1.651004,-0.002 -1.651,-0.002 -1.18533,-0.0862 -1.185334,-0.0863 -1.381905,-0.17244 -1.381904,-0.17244 -0.09976,0.0375 -0.09976,0.0375 0.16387,0.0673 0.16387,0.0673 2.75713,0.7413 2.757127,0.74129 0.381,0.004 0.381,0.004 z"
           id="path64" /><path
           style="fill:#fe993f;fill-opacity:1"
           d="m 104.94911,168.09241 0.0553,-0.0895 -0.0516,-0.20544 -0.0516,-0.20545 -0.37709,-0.42459 -0.37709,-0.42458 -0.26718,-0.55398 -0.26718,-0.55397 -0.83599,-0.93177 -0.83599,-0.93177 -0.13906,-0.2689 -0.13905,-0.26891 -0.69492,-0.69805 -0.69493,-0.69806 -0.23001,-0.0874 -0.230014,-0.0874 h -0.24583 -0.24584 l 0.0487,0.127 0.0487,0.127 h -0.0834 -0.0833 l -0.0962,-0.11596 -0.0962,-0.11595 -0.40097,-0.15088 -0.40096,-0.15088 -0.31775,-0.2835 -0.31774,-0.2835 h -0.0999 -0.0999 l -0.57905,-0.60488 -0.57906,-0.60488 -0.0552,0.0552 -0.05524,0.0552 0.486188,0.71574 0.48618,0.71575 0.54986,0.43211 0.54986,0.43212 0.53825,0.69295 0.53825,0.69295 0.53601,0.71462 0.535996,0.71461 0.889,0.6249 0.889,0.62489 0.61374,0.28547 0.61374,0.28546 0.34117,0.28003 0.34117,0.28002 0.30006,0.48684 0.30005,0.48683 h 0.11587 0.11588 z"
           id="path63" /><path
           style="fill:#66e54d;fill-opacity:1"
           d="m 101.24711,179.01306 0.0263,-0.45852 0.12245,-0.0685 0.12245,-0.0685 0.16732,-0.32797 0.16732,-0.32797 0.1725,-0.0547 0.1725,-0.0548 0.20992,-0.41426 0.20992,-0.41426 v -0.33905 -0.33904 l -0.25005,-0.68515 -0.25005,-0.68516 -0.269,-0.43912 -0.26901,-0.43911 -0.24759,-0.31439 -0.24759,-0.31438 0.0871,-0.16279 0.0871,-0.1628 0.27735,-0.17704 0.27736,-0.17704 0.127,-0.0762 0.127,-0.0762 0.67733,-0.12705 0.67733,-0.12705 0.67734,-0.26883 0.67733,-0.26882 0.57158,-0.3977 0.57159,-0.39769 0.91008,-0.66687 0.91008,-0.66686 0.508,-0.5224 0.508,-0.52239 0.40356,-0.33474 0.40355,-0.33474 0.47045,-0.26454 0.47046,-0.26454 0.32013,-0.32813 0.32014,-0.32813 1.82966,-1.13897 1.82967,-1.13897 -0.0303,-0.0303 -0.0303,-0.0303 -1.13083,0.56571 -1.13083,0.56571 -2.74098,1.64992 -2.74098,1.64992 -0.94202,0.49384 -0.94202,0.49384 -0.71967,0.31071 -0.71967,0.3107 -0.84175,0.28681 -0.84175,0.28681 -0.0671,-0.1057 -0.0671,-0.10571 -0.001,-0.13892 -10e-4,-0.13892 0.16432,-0.36703 0.16433,-0.36703 -0.023,-0.023 -0.023,-0.023 -0.62179,0.21148 -0.62179,0.21149 h -0.0672 -0.0672 l 0.0333,-0.10584 0.0333,-0.10583 0.0552,-0.70596 0.0552,-0.70595 -0.14315,0.0286 -0.14316,0.0286 -0.31394,0.51965 -0.31394,0.51964 -0.179474,0.54669 -0.17946,0.54669 -0.10082,0.754 -0.10083,0.754 0.0521,0.889 0.0521,0.889 0.12106,0.67733 0.12106,0.67733 0.18275,0.71967 0.182744,0.71967 0.33693,1.143 0.33692,1.143 0.0885,0.27955 0.0885,0.27955 0.0978,-0.0322 0.0978,-0.0322 z"
           id="path62" /></g><path
         style="fill:#000000"
         d="m 79.831381,103.02285 v -8.424335 h 1.947333 1.947334 v 8.424335 8.42433 h -1.947334 -1.947333 z"
         id="path190" /><path
         style="fill:#000000"
         d="m 48.081379,103.02285 v -8.424335 l 2.264834,0.0012 2.264833,0.0012 1.905,3.364096 c 2.003309,3.537699 2.893875,5.247709 3.701783,7.107939 0.268905,0.61916 0.501335,1.0885 0.516512,1.04297 0.01518,-0.0455 -0.01624,-0.62676 -0.06982,-1.29162 -0.05358,-0.66486 -0.118788,-3.23766 -0.144916,-5.717336 l -0.04751,-4.5085 h 1.789639 1.789639 v 8.424336 8.42433 l -2.010833,-1e-5 -2.010834,-1e-5 -2.07316,-3.74649 c -2.202613,-3.98043 -3.471359,-6.41916 -4.072177,-7.82738 -0.202641,-0.474956 -0.37549,-0.855956 -0.38411,-0.846666 -0.0086,0.0093 0.01671,0.68364 0.05628,1.498556 0.03957,0.81492 0.07395,3.60574 0.07639,6.20183 l 0.0044,4.72017 h -1.778 -1.778 z"
         id="path189" /><path
         style="fill:#000000"
         d="m 21.567605,111.60475 c -1.010292,-0.11582 -2.825499,-0.62001 -3.279104,-0.9108 -0.09688,-0.0621 -0.05295,-0.33493 0.25325,-1.57281 0.203752,-0.82372 0.392535,-1.5334 0.419516,-1.57705 0.02722,-0.044 0.309833,0.0389 0.634778,0.1862 1.425376,0.6463 3.603237,0.93646 4.733136,0.63061 1.211493,-0.32794 1.775413,-1.30353 1.325719,-2.29353 -0.274788,-0.60495 -0.917416,-1.01419 -2.565252,-1.63363 -3.228689,-1.2137 -4.732208,-2.81579 -4.7248,-5.034539 0.0063,-1.884667 1.103716,-3.500452 2.970883,-4.374159 1.73412,-0.81145 4.563605,-0.905172 6.723525,-0.222707 1.112362,0.35147 1.067148,0.205446 0.595105,1.921949 -0.22273,0.809921 -0.415703,1.484644 -0.428828,1.499383 -0.01312,0.01474 -0.418203,-0.107136 -0.900175,-0.270833 -2.077766,-0.705691 -3.883275,-0.591351 -4.685606,0.296733 -0.265491,0.293868 -0.297041,0.37941 -0.297041,0.805385 0,0.955568 0.52998,1.381418 2.8213,2.266998 1.735585,0.67079 2.742657,1.27255 3.454041,2.06392 0.769118,0.8556 1.09066,1.7549 1.09066,3.0504 0,1.45603 -0.406854,2.46218 -1.393631,3.44646 -1.418019,1.41441 -3.901702,2.04828 -6.747476,1.72202 z"
         id="path183" /><g
         id="g190"
         style="fill:#66e54d;fill-opacity:1"><path
           id="path164"
           style="fill:#66e54d;fill-opacity:1"
           d="m 82.108683,118.47597 c -0.804982,-0.003 -1.389364,0.35928 -1.741496,1.07901 -0.263613,0.53881 -0.315372,1.35174 -0.121956,1.91151 0.150302,0.435 0.567282,0.89508 0.982369,1.08365 0.393447,0.17876 1.288904,0.20889 1.868103,0.0631 0.298582,-0.0752 0.376171,-0.1322 0.375171,-0.27544 -0.0025,-0.34253 -0.11227,-0.41511 -0.473873,-0.31471 -0.490936,0.1363 -1.047368,0.10837 -1.44539,-0.0723 -0.365834,-0.16609 -0.553135,-0.42658 -0.658357,-0.91519 l -0.05943,-0.27492 h 1.445906 1.446424 l -5.17e-4,-0.35967 c -0.0014,-1.10359 -0.688647,-1.92195 -1.616956,-1.92495 z m -0.134358,0.59118 c 0.197568,0 0.444526,0.0596 0.548286,0.13229 0.22263,0.15593 0.441317,0.55001 0.441317,0.79479 0,0.16554 -0.04762,0.17363 -1.050065,0.17363 h -1.050582 l 0.0925,-0.30127 c 0.139735,-0.45529 0.57795,-0.79944 1.018543,-0.79944 z" /><path
           id="path162"
           style="fill:#66e54d;fill-opacity:1"
           d="m 64.760905,118.5168 c -0.573262,0 -0.695734,0.0296 -1.056266,0.25424 -0.283611,0.17668 -0.487827,0.39542 -0.67076,0.71934 -0.234046,0.41443 -0.262783,0.54028 -0.261483,1.14308 0.0011,0.52835 0.04153,0.75179 0.182934,1.01596 0.205114,0.38319 0.542235,0.72096 0.916224,0.91778 0.357958,0.1884 1.263901,0.17843 1.693436,-0.0186 0.774102,-0.3551 1.138216,-0.98333 1.141016,-1.96887 0.0025,-0.86011 -0.27743,-1.43251 -0.884184,-1.80764 -0.365192,-0.2258 -0.487611,-0.25528 -1.060917,-0.25528 z m 0.02584,0.5643 c 0.389324,0.004 0.687917,0.18498 0.91829,0.55553 0.162394,0.26118 0.198438,0.43543 0.198438,0.95446 0,0.72231 -0.206829,1.17606 -0.638721,1.3994 -0.391186,0.20229 -0.872684,0.15966 -1.186491,-0.10439 -0.359928,-0.30286 -0.502811,-0.6711 -0.502811,-1.29501 0,-0.89512 0.367105,-1.42488 1.039213,-1.50068 0.05939,-0.007 0.116464,-0.01 0.172082,-0.009 z" /><path
           id="path158"
           style="fill:#66e54d;fill-opacity:1"
           d="m 41.527698,118.47649 c -1.187794,0.005 -2.00124,1.04725 -1.890841,2.42259 0.06746,0.84039 0.502606,1.45607 1.205611,1.70532 0.346046,0.12279 1.456737,0.11745 1.820044,-0.009 0.260343,-0.0905 0.292958,-0.13356 0.268718,-0.3545 -0.01517,-0.13831 -0.03991,-0.26417 -0.05529,-0.27957 -0.01538,-0.0154 -0.174475,0.0128 -0.353467,0.0625 -1.07879,0.29955 -1.979391,-0.10294 -2.11615,-0.94568 l -0.05116,-0.31368 1.428853,-0.0232 1.428853,-0.0233 -0.02274,-0.50074 c -0.04848,-1.04822 -0.714093,-1.74498 -1.662431,-1.74098 z m -0.0093,0.59376 c 0.187956,8.4e-4 0.369396,0.0294 0.479557,0.0884 0.164148,0.0879 0.48961,0.68353 0.49351,0.9033 0.0014,0.0791 -0.265053,0.10594 -1.056266,0.10594 -0.676142,0 -1.058333,-0.0316 -1.058333,-0.0879 0,-0.17861 0.342084,-0.75155 0.525549,-0.88005 0.122358,-0.0857 0.374326,-0.13078 0.615983,-0.12971 z" /><path
           id="path156"
           style="fill:#66e54d;fill-opacity:1"
           d="m 31.994946,116.69675 v 1.14619 1.14618 l -0.183451,-0.17053 c -0.267018,-0.24872 -0.709624,-0.3694 -1.187524,-0.3235 -0.944194,0.0907 -1.625025,0.98089 -1.631425,2.13217 -0.005,0.89735 0.337125,1.58241 0.95343,1.9079 0.350052,0.18486 1.051545,0.22543 1.42937,0.0827 0.131089,-0.0495 0.342683,-0.18991 0.470255,-0.31161 l 0.232028,-0.22118 0.05374,0.26924 c 0.04934,0.24669 0.08102,0.26872 0.381889,0.26872 h 0.328145 v -2.96313 -2.96313 h -0.42323 z m -1.088305,2.40089 c 0.278519,-0.007 0.56508,0.10723 0.806669,0.34882 0.27864,0.27862 0.281286,0.2884 0.280086,1.0728 -0.0014,0.89497 -0.08199,1.12186 -0.499194,1.40301 -0.592717,0.39943 -1.338152,0.12365 -1.610755,-0.59583 -0.160847,-0.42452 -0.109022,-1.24719 0.10232,-1.62419 0.218005,-0.38888 0.562777,-0.59616 0.920874,-0.60461 z" /><path
           id="path154"
           style="fill:#66e54d;fill-opacity:1"
           d="m 26.426811,118.48166 c -0.612169,0.008 -1.254244,0.26966 -1.586984,0.7059 -0.432809,0.56745 -0.582807,1.45701 -0.366902,2.17764 0.123166,0.41109 0.585529,0.95826 0.99012,1.17202 0.413734,0.21863 1.283761,0.22393 1.752865,0.0109 0.422776,-0.19203 0.908441,-0.74468 1.03973,-1.18288 0.336206,-1.12216 -0.113387,-2.2981 -1.044381,-2.73006 -0.234015,-0.10858 -0.50619,-0.15713 -0.784448,-0.15348 z m -0.01395,0.59531 c 0.171765,-0.001 0.341117,0.0342 0.486792,0.10955 0.835727,0.43217 0.878352,2.27229 0.06408,2.76883 -0.310943,0.18961 -0.847733,0.20197 -1.170471,0.0269 -0.273089,-0.14816 -0.527376,-0.61146 -0.610816,-1.1126 -0.08113,-0.48725 0.13082,-1.1887 0.452686,-1.49706 0.198913,-0.19058 0.491456,-0.29377 0.77773,-0.29559 z" /><path
           id="path151"
           style="fill:#66e54d;fill-opacity:1"
           d="m 19.202445,116.95255 c -0.304989,0.003 -0.583464,0.0186 -0.743623,0.0506 l -0.264584,0.0532 v 2.77709 c 0,2.57186 0.01058,2.78053 0.147795,2.82102 0.08149,0.0244 0.571804,0.0339 1.089339,0.0222 0.848623,-0.0192 0.989743,-0.0457 1.439189,-0.27027 0.630674,-0.31511 0.875982,-0.70628 0.877982,-1.40043 0.0012,-0.39177 -0.04202,-0.53414 -0.248047,-0.81855 -0.143761,-0.19846 -0.372106,-0.38857 -0.539502,-0.44907 l -0.290421,-0.10491 0.349333,-0.26561 c 0.423269,-0.32187 0.615119,-0.78864 0.523999,-1.27434 -0.07901,-0.42117 -0.567756,-0.92208 -1.023194,-1.04852 -0.228216,-0.0633 -0.809949,-0.097 -1.318266,-0.0925 z m -0.246496,0.59066 h 0.580326 c 0.461672,0 0.637656,0.0391 0.861963,0.19069 0.516514,0.34909 0.499425,1.09981 -0.03256,1.4242 -0.193013,0.11768 -0.424184,0.16255 -0.838192,0.16278 l -0.571541,5.2e-4 v -0.88935 z m 0,2.34611 0.599447,0.0558 c 0.897647,0.0834 1.311225,0.35521 1.403015,0.92088 0.068,0.41905 -0.162346,0.86159 -0.542086,1.04179 -0.329009,0.15578 -1.293244,0.26633 -1.396814,0.15968 -0.03492,-0.036 -0.06356,-0.54036 -0.06356,-1.12137 z" /><path
           style="fill:#66e54d;fill-opacity:1"
           d="m 76.154428,117.74882 c -0.178421,-0.17842 -0.168233,-0.4862 0.02179,-0.65817 0.422794,-0.38262 0.965077,0.11132 0.688855,0.62745 -0.107908,0.20162 -0.52184,0.21952 -0.710641,0.0307 z"
           id="path182" /><path
           style="fill:#66e54d;fill-opacity:1"
           d="m 50.155415,117.68162 c -0.268095,-0.40917 0.18614,-0.88681 0.621678,-0.65372 0.245306,0.13128 0.306198,0.40147 0.145689,0.64643 -0.183411,0.27993 -0.586223,0.28375 -0.767367,0.007 z"
           id="path181" /><path
           style="fill:#66e54d;fill-opacity:1"
           d="m 34.043645,117.78022 c -0.172367,-0.17237 -0.124978,-0.64193 0.07562,-0.74929 0.444744,-0.23802 0.907292,0.2235 0.637173,0.63575 -0.153312,0.23399 -0.532021,0.29431 -0.712793,0.11354 z"
           id="path180" /><path
           style="fill:#66e54d;fill-opacity:1"
           d="m 22.736834,117.72702 c -0.186213,-0.20577 -0.176813,-0.40115 0.02921,-0.60717 0.203393,-0.20339 0.447747,-0.21749 0.628952,-0.0363 0.157451,0.15745 0.175298,0.55283 0.03145,0.69669 -0.151828,0.15182 -0.530486,0.12259 -0.689611,-0.0532 z"
           id="path179" /><path
           style="fill:#66e54d;fill-opacity:1"
           d="m 78.13805,120.88752 v -1.73566 h -0.296333 c -0.282222,0 -0.296333,-0.0141 -0.296333,-0.29634 0,-0.27987 0.0158,-0.29633 0.284488,-0.29633 0.282131,0 0.284882,-0.004 0.331953,-0.45989 0.101502,-0.98346 0.512945,-1.41735 1.397437,-1.47367 0.616169,-0.0392 0.735971,0.0324 0.656871,0.39249 -0.05227,0.23801 -0.07557,0.251 -0.37736,0.21052 -0.176905,-0.0237 -0.406563,0.002 -0.510352,0.0579 -0.231123,0.1237 -0.42837,0.57202 -0.42837,0.97365 v 0.29905 h 0.508 0.508 v 0.29633 0.29633 h -0.508 -0.508 v 1.73567 1.73567 h -0.381001 -0.381 z"
           id="path175" /><path
           style="fill:#66e54d;fill-opacity:1"
           d="m 76.10605,120.59119 v -2.032 h 0.381 0.381 v 2.032 2.032 h -0.381 -0.381 z"
           id="path174" /><path
           style="fill:#66e54d;fill-opacity:1"
           d="m 72.146742,119.80802 0.02231,-2.81516 0.402167,-0.0258 0.402167,-0.0258 v 2.54463 2.54464 h 1.185333 1.185333 v 0.29634 0.29633 h -1.609813 -1.609808 z"
           id="path173" /><path
           style="fill:#66e54d;fill-opacity:1"
           d="m 67.639383,120.59119 v -2.032 h 0.338667 0.338667 l 5.58e-4,0.35983 5.57e-4,0.35984 0.167161,-0.254 c 0.199195,-0.30268 0.627712,-0.55034 0.952236,-0.55034 0.221072,0 0.234154,0.0213 0.234154,0.381 v 0.381 h -0.322704 c -0.212785,0 -0.388996,0.0618 -0.517331,0.18133 -0.359194,0.33464 -0.429968,0.65972 -0.429968,1.97495 v 1.23039 h -0.381 -0.381 z"
           id="path172" /><path
           style="fill:#66e54d;fill-opacity:1"
           d="m 60.781383,120.88752 v -1.73566 H 60.48505 c -0.282223,0 -0.296334,-0.0141 -0.296334,-0.29634 0,-0.27989 0.01579,-0.29633 0.284574,-0.29633 h 0.284574 l 0.04602,-0.50752 c 0.08754,-0.9654 0.570812,-1.43981 1.466689,-1.43981 0.293048,0 0.553944,0.0342 0.579768,0.076 0.02582,0.0418 0.02368,0.19235 -0.0048,0.33459 -0.04631,0.23156 -0.07696,0.25358 -0.292841,0.2104 -0.586429,-0.11728 -1.008432,0.28695 -1.00903,0.96653 l -3.16e-4,0.35984 h 0.465667 0.465666 v 0.29633 0.29633 h -0.465666 -0.465667 v 1.73567 1.73567 h -0.381 -0.381 z"
           id="path171" /><path
           style="fill:#66e54d;fill-opacity:1"
           d="m 50.198049,120.59119 v -2.032 h 0.381 0.381 v 2.032 2.032 h -0.381 -0.381 z"
           id="path170" /><path
           style="fill:#66e54d;fill-opacity:1"
           d="m 44.102049,120.59119 v -2.032 h 0.338666 0.338667 l 5.58e-4,0.35983 5.58e-4,0.35984 0.16716,-0.254 c 0.199195,-0.30268 0.627713,-0.55034 0.952236,-0.55034 0.221072,0 0.234155,0.0213 0.234155,0.381 v 0.381 h -0.322702 c -0.212785,0 -0.388995,0.0618 -0.51733,0.18133 -0.359194,0.33464 -0.429968,0.65972 -0.429968,1.97495 v 1.23039 h -0.381 -0.381 z"
           id="path169" /><path
           style="fill:#66e54d;fill-opacity:1"
           d="m 36.897056,122.39036 c -0.713487,-1.87075 -1.431008,-3.77634 -1.431008,-3.80048 0,-0.0169 0.184108,-0.0307 0.409128,-0.0307 0.386518,0 0.414144,0.0152 0.499891,0.27517 0.04992,0.15134 0.298544,0.87881 0.552497,1.61661 l 0.461734,1.34145 0.322379,-0.91812 c 0.177309,-0.50496 0.433981,-1.23244 0.570383,-1.61661 l 0.248003,-0.6985 h 0.372993 c 0.205146,0 0.372992,0.0355 0.372992,0.0788 0,0.0433 -0.345949,0.95775 -0.768776,2.032 l -0.768777,1.95318 h -0.376319 c -0.332558,0 -0.386645,-0.0271 -0.46512,-0.23284 z"
           id="path168" /><path
           style="fill:#66e54d;fill-opacity:1"
           d="m 34.026715,120.59119 v -2.032 h 0.381 0.381 v 2.032 2.032 h -0.381 -0.381 z"
           id="path167" /><path
           style="fill:#66e54d;fill-opacity:1"
           d="m 22.681381,120.59119 v -2.032 h 0.381 0.381 v 2.032 2.032 h -0.381 -0.381 z"
           id="path166" /><path
           style="fill:#66e54d;fill-opacity:1"
           d="m 52.770277,122.54621 c -0.387016,-0.236 -0.455561,-0.54479 -0.455561,-2.05229 v -1.34203 h -0.338667 c -0.330603,0 -0.338667,-0.007 -0.338667,-0.29634 0,-0.28928 0.0081,-0.29633 0.338667,-0.29633 h 0.338667 v -0.37272 c 0,-0.34193 0.02202,-0.38039 0.266634,-0.46567 0.461723,-0.16095 0.495366,-0.13564 0.495366,0.37272 v 0.46567 h 0.508 0.508 v 0.29633 0.29634 h -0.508 -0.508 v 1.29615 c 0,1.50582 0.04105,1.621 0.5777,1.621 0.309113,0 0.344733,0.0228 0.390226,0.25031 0.0316,0.15798 0.01066,0.27533 -0.05677,0.31813 -0.205593,0.13051 -0.944754,0.0751 -1.2176,-0.0913 z"
           id="path161" /><path
           style="fill:#66e54d;fill-opacity:1"
           d="m 46.921384,122.61421 c -0.345582,-0.0999 -0.382566,-0.16651 -0.270746,-0.48727 l 0.09123,-0.2617 0.299098,0.12497 c 0.444182,0.18559 1.086478,0.16358 1.294418,-0.0444 0.384735,-0.38473 0.171102,-0.77297 -0.624968,-1.13575 -0.960362,-0.43765 -1.233145,-0.92573 -0.900928,-1.612 0.309257,-0.63884 1.238421,-0.91672 2.00053,-0.59829 0.253998,0.10613 0.290976,0.15469 0.241765,0.3175 -0.08828,0.29205 -0.159965,0.33343 -0.41179,0.23769 -0.750821,-0.28546 -1.486633,0.14462 -1.153444,0.67418 0.04395,0.0699 0.374576,0.2794 0.73473,0.46567 0.731406,0.37827 0.953914,0.62135 1.014259,1.108 0.05423,0.43735 -0.18172,0.86606 -0.612634,1.11311 -0.357618,0.20502 -1.170081,0.25194 -1.701518,0.0982 z"
           id="path160" /><path
           style="fill:#66e54d;fill-opacity:1"
           d="m 54.829461,124.42579 c -0.02173,-0.0368 -0.06488,-0.18538 -0.09589,-0.33014 -0.05067,-0.23653 -0.02995,-0.27415 0.204616,-0.37131 0.304184,-0.12599 0.914501,-0.78819 0.984879,-1.0686 0.03246,-0.12933 -0.204472,-0.83157 -0.716531,-2.12372 l -0.765026,-1.9305 0.388911,-0.0263 c 0.2536,-0.0172 0.413117,0.0123 0.458487,0.0847 0.03827,0.061 0.307027,0.77308 0.597244,1.58228 l 0.527667,1.47128 0.518253,-1.55595 0.518252,-1.55594 0.395528,-0.0258 c 0.220026,-0.0144 0.395529,0.0111 0.395529,0.0574 0,0.12402 -1.472484,3.89628 -1.673579,4.28743 -0.286446,0.55717 -0.676654,1.04174 -1.013937,1.25914 -0.372263,0.23994 -0.668636,0.34065 -0.724403,0.24614 z"
           id="path150" /></g><path
         style="fill:#000000"
         d="m 163.02951,129.32628 c -0.18841,-0.20819 -0.17668,-0.48594 0.0292,-0.69183 0.20342,-0.20342 0.40523,-0.21493 0.65849,-0.0375 0.20981,0.14695 0.26085,0.60832 0.0866,0.7826 -0.15423,0.15422 -0.61522,0.12253 -0.77428,-0.0532 z"
         id="path149" /><path
         style="fill:#000000"
         d="m 138.12919,129.29298 c -0.182,-0.25984 -0.16522,-0.42825 0.0642,-0.64374 0.2387,-0.22424 0.40342,-0.23202 0.65192,-0.0308 0.20983,0.16992 0.25121,0.5336 0.0837,0.73546 -0.16455,0.19827 -0.64377,0.16177 -0.79974,-0.0609 z"
         id="path148" /><path
         style="fill:#000000"
         d="m 120.87776,129.26608 c -0.22855,-0.5016 0.2809,-0.98031 0.73006,-0.68601 0.23348,0.15299 0.28566,0.44757 0.13059,0.73732 -0.0641,0.11987 -0.17813,0.16377 -0.42515,0.16377 -0.27927,0 -0.35442,-0.0371 -0.4355,-0.21508 z"
         id="path147" /><path
         style="fill:#000000"
         d="m 108.85509,129.26608 c -0.22854,-0.5016 0.28091,-0.98031 0.73007,-0.68601 0.23348,0.15299 0.28565,0.44757 0.13058,0.73732 -0.0642,0.11987 -0.17812,0.16377 -0.42515,0.16377 -0.27927,0 -0.35441,-0.0371 -0.4355,-0.21508 z"
         id="path146" /><path
         style="fill:#000000"
         d="m 83.827648,129.37956 c -0.174273,-0.17428 -0.123236,-0.63565 0.08657,-0.7826 0.253262,-0.17739 0.455073,-0.16589 0.658494,0.0375 0.202936,0.20293 0.219582,0.53032 0.03629,0.71362 -0.157072,0.15707 -0.636435,0.17636 -0.781352,0.0315 z"
         id="path145" /><path
         style="fill:#000000"
         d="m 53.660343,129.45076 c -0.292431,-0.145 -0.329807,-0.66255 -0.06142,-0.85053 0.257782,-0.18056 0.458668,-0.17017 0.663126,0.0343 0.415392,0.41539 -0.07325,1.07826 -0.601703,0.81624 z"
         id="path144" /><path
         style="fill:#000000"
         d="m 162.97405,132.35936 v -2.20134 h 0.42334 0.42333 v 2.20134 2.20133 h -0.42333 -0.42334 z"
         id="path143" /><path
         style="fill:#000000"
         d="m 151.54405,132.35936 v -2.20134 h 0.381 0.381 v 0.3275 0.3275 l 0.29993,-0.28287 c 0.76434,-0.72086 1.9846,-0.53187 2.4666,0.38202 0.18632,0.35327 0.19681,0.46041 0.19681,2.01084 v 1.63768 h -0.42334 -0.42333 V 133.085 c 0,-1.54966 -0.0393,-1.78279 -0.34945,-2.07171 -0.2658,-0.24763 -0.89719,-0.24447 -1.21573,0.006 -0.40342,0.31733 -0.46682,0.60826 -0.46682,2.14206 v 1.39972 h -0.42333 -0.42334 z"
         id="path142" /><path
         style="fill:#000000"
         d="m 149.34272,131.51269 v -3.048 h 0.42333 0.42334 v 3.048 3.048 h -0.42334 -0.42333 z"
         id="path141" /><path
         style="fill:#000000"
         d="m 138.08205,132.35936 v -2.20134 h 0.42333 0.42334 v 2.20134 2.20133 h -0.42334 -0.42333 z"
         id="path140" /><path
         style="fill:#000000"
         d="m 131.64738,132.35936 v -2.20134 h 0.381 0.381 l 9.4e-4,0.35984 9.4e-4,0.35983 0.22487,-0.2854 c 0.241,-0.30586 0.65086,-0.51893 0.9982,-0.51893 0.20082,0 0.21439,0.0268 0.21439,0.42333 v 0.42333 h -0.32971 c -0.4152,0 -0.79934,0.33377 -0.93134,0.80922 -0.051,0.18358 -0.0929,0.89576 -0.0932,1.58262 l -4.7e-4,1.24883 h -0.42333 -0.42334 z"
         id="path139" /><path
         style="fill:#000000"
         d="m 124.08533,134.49719 c -0.0941,-0.16285 -1.58195,-4.1483 -1.58195,-4.23766 0,-0.0652 0.14939,-0.10151 0.41725,-0.10151 h 0.41725 l 0.16405,0.4445 c 0.0902,0.24448 0.35014,1.00487 0.57759,1.68976 0.22744,0.6849 0.43258,1.2466 0.45586,1.24823 0.0233,0.002 0.1138,-0.21585 0.20114,-0.48327 0.0873,-0.26742 0.34868,-1.02914 0.58074,-1.69272 l 0.42194,-1.2065 h 0.42397 c 0.37993,0 0.41944,0.0173 0.38041,0.16656 -0.024,0.0916 -0.39988,1.08168 -0.83538,2.20015 l -0.79182,2.03358 -0.39717,0.001 c -0.21844,6.5e-4 -0.41369,-0.0274 -0.43388,-0.0623 z"
         id="path138" /><path
         style="fill:#000000"
         d="m 120.89472,132.35936 v -2.20134 h 0.42333 0.42333 v 2.20134 2.20133 h -0.42333 -0.42333 z"
         id="path137" /><path
         style="fill:#000000"
         d="m 108.87205,132.35936 v -2.20134 h 0.42333 0.42334 v 2.20134 2.20133 h -0.42334 -0.42333 z"
         id="path136" /><path
         style="fill:#000000"
         d="m 100.06672,131.34336 v -3.21734 h 0.42333 0.42333 v 3.21734 3.21733 h -0.42333 -0.42333 z"
         id="path135" /><path
         style="fill:#000000"
         d="m 90.753381,132.36378 v -2.20576 h 0.381 0.381 l 4.21e-4,0.35984 4.21e-4,0.35983 0.190079,-0.23069 c 0.231272,-0.28067 0.852037,-0.56926 1.229966,-0.57178 0.31829,-0.002 0.826621,0.19111 1.061524,0.40353 0.08815,0.0797 0.240404,0.29734 0.33834,0.48361 0.158839,0.3021 0.18169,0.51464 0.211637,1.9685 l 0.03357,1.62983 h -0.42287 -0.422872 l -0.03449,-1.50283 c -0.03647,-1.58902 -0.115786,-1.93629 -0.487698,-2.13533 -0.407087,-0.21786 -1.160816,-0.0219 -1.378014,0.3582 -0.07188,0.12581 -0.12259,0.70252 -0.150676,1.71363 l -0.04233,1.524 -0.444501,0.0256 -0.4445,0.0256 z"
         id="path134" /><path
         style="fill:#000000"
         d="m 83.810714,132.35978 v -2.20133 h 0.423334 0.423333 v 2.20133 2.20133 h -0.423333 -0.423334 z"
         id="path133" /><path
         style="fill:#000000"
         d="m 70.772047,131.51311 v -3.048 l 0.4445,0.003 0.4445,0.003 1.131368,1.81506 c 0.622252,0.99828 1.272238,2.08276 1.444412,2.40996 l 0.313044,0.59491 -0.03711,-2.41323 -0.03711,-2.41323 h 0.434197 0.434198 v 3.048 3.048 l -0.4445,-0.003 -0.4445,-0.003 -1.185333,-1.90953 c -0.651933,-1.05024 -1.30731,-2.14421 -1.456392,-2.43105 l -0.271059,-0.52153 -0.0041,2.43417 -0.0041,2.43417 h -0.381 -0.381 z"
         id="path132" /><path
         style="fill:#000000"
         d="m 63.82938,132.36421 v -2.20576 h 0.381 0.381 l 4.21e-4,0.35983 4.2e-4,0.35983 0.19008,-0.23068 c 0.231271,-0.28068 0.852037,-0.56926 1.229965,-0.57179 0.31829,-0.002 0.826621,0.19111 1.061525,0.40354 0.08815,0.0797 0.240404,0.29733 0.33834,0.4836 0.158839,0.3021 0.18169,0.51464 0.211637,1.9685 l 0.03357,1.62983 h -0.422872 -0.422872 l -0.03449,-1.50283 c -0.03647,-1.58901 -0.115786,-1.93628 -0.487699,-2.13532 -0.237061,-0.12687 -0.737335,-0.10671 -1.023461,0.0413 -0.452702,0.2341 -0.520388,0.50069 -0.534671,2.10586 l -0.01289,1.4487 -0.4445,0.0256 -0.4445,0.0256 z"
         id="path131" /><path
         style="fill:#000000"
         d="m 53.500046,132.36021 v -2.20134 h 0.423334 0.423333 v 2.20134 2.20133 H 53.92338 53.500046 Z"
         id="path130" /><path
         style="fill:#000000"
         d="m 50.535557,132.55071 c -6.36e-4,-1.10596 -0.02413,-2.09656 -0.05221,-2.20134 -0.04744,-0.17703 -0.02394,-0.1905 0.332381,-0.1905 0.380987,0 0.383796,0.002 0.44032,0.33671 l 0.05689,0.33671 0.221768,-0.26355 c 0.24291,-0.28868 0.654565,-0.49453 0.988956,-0.49453 0.200819,0 0.214386,0.0268 0.214386,0.42333 v 0.42333 h -0.327249 c -0.207495,0 -0.412638,0.0672 -0.560593,0.18355 -0.401096,0.3155 -0.466825,0.61114 -0.466825,2.09973 v 1.35739 h -0.423333 -0.423333 z"
         id="path129" /><path
         style="fill:#000000"
         d="m 47.996713,132.69887 v -1.86269 h -0.296334 c -0.289278,0 -0.296333,-0.008 -0.296333,-0.33867 0,-0.3306 0.0071,-0.33866 0.296333,-0.33866 0.279135,0 0.296334,-0.0163 0.296334,-0.28097 0,-1.1285 0.830304,-1.94626 1.824708,-1.79714 0.440541,0.0661 0.469366,0.0998 0.408302,0.47738 -0.04654,0.2878 -0.0476,0.28839 -0.51616,0.28839 -0.41028,0 -0.490952,0.0286 -0.639343,0.22653 -0.09574,0.1277 -0.187828,0.41396 -0.211102,0.65617 l -0.04128,0.42964 h 0.518772 0.518772 v 0.33866 0.33867 h -0.508 -0.508 v 1.86267 1.86266 h -0.423333 -0.423333 z"
         id="path128" /><path
         style="fill:#000000"
         d="m 35.655523,131.36983 0.02219,-3.20062 h 0.423333 0.423334 l 0.02346,1.25442 0.02346,1.25443 0.254334,-0.21401 c 0.449403,-0.37814 1.059084,-0.47819 1.582196,-0.25962 0.405596,0.16947 0.592447,0.34444 0.810296,0.75878 0.158839,0.3021 0.18169,0.51464 0.211637,1.9685 l 0.03357,1.62983 h -0.422872 -0.422872 l -0.03449,-1.50283 c -0.03647,-1.58902 -0.115786,-1.93629 -0.487698,-2.13533 -0.407087,-0.21786 -1.160816,-0.0219 -1.378013,0.3582 -0.07188,0.12581 -0.122591,0.70252 -0.150677,1.71363 l -0.04233,1.524 -0.445523,0.0256 -0.445522,0.0256 z"
         id="path125" /><path
         style="fill:#000000"
         d="m 173.64205,134.46019 c -0.43114,-0.29222 -0.49775,-0.58422 -0.50322,-2.20582 l -0.005,-1.41816 h -0.33866 -0.33867 v -0.3387 -0.33866 h 0.33867 0.33866 v -0.3831 c 0,-0.40647 0.0353,-0.43978 0.61384,-0.57979 l 0.23283,-0.0563 v 0.50962 0.50961 h 0.55033 0.55034 v 0.33867 0.33866 h -0.55034 -0.55033 v 1.30835 c 0,0.79777 0.0376,1.39089 0.0964,1.51984 0.10226,0.22443 0.46082,0.35403 0.73699,0.26637 0.13212,-0.0419 0.16868,0.004 0.21096,0.26441 0.0281,0.17333 0.0318,0.33448 0.008,0.35811 -0.0236,0.0236 -0.27963,0.0575 -0.56889,0.0754 -0.44599,0.0275 -0.57095,0.002 -0.82225,-0.16845 z"
         id="path122" /><path
         style="fill:#000000"
         d="m 168.82869,134.50259 c -0.67248,-0.33133 -0.8811,-1.10646 -0.84062,-3.12332 l 0.0237,-1.17804 h 0.42333 0.42334 l 0.0423,1.58164 c 0.0384,1.43567 0.0587,1.60367 0.21978,1.82033 0.37427,0.50346 1.20403,0.419 1.55605,-0.15838 0.1544,-0.25325 0.1709,-0.4251 0.17119,-1.78309 l 3.1e-4,-1.50284 h 0.42334 0.42333 l 9.3e-4,1.88384 c 5.1e-4,1.03611 0.0246,2.02671 0.0534,2.20133 l 0.0525,0.3175 h -0.38824 c -0.37377,0 -0.39023,-0.0106 -0.44174,-0.28516 l -0.0535,-0.28516 -0.20515,0.20515 c -0.44312,0.44312 -1.31784,0.58527 -1.88423,0.3062 z"
         id="path121" /><path
         style="fill:#000000"
         d="m 165.77495,134.46319 c -0.43176,-0.29523 -0.50113,-0.59661 -0.50846,-2.20875 l -0.006,-1.41816 h -0.33866 -0.33867 v -0.3387 -0.33866 h 0.33867 0.33866 v -0.3831 c 0,-0.40647 0.0353,-0.43978 0.61384,-0.57979 l 0.23283,-0.0563 v 0.50962 0.50961 h 0.55033 0.55034 v 0.33867 0.33866 h -0.55034 -0.55033 v 1.35852 c 0,1.34653 0.002,1.36043 0.21789,1.5764 0.17429,0.17429 0.27393,0.20879 0.49804,0.17242 0.26747,-0.0434 0.28242,-0.0316 0.32984,0.26065 0.0273,0.16837 0.0303,0.32546 0.007,0.34909 -0.0236,0.0236 -0.27963,0.0575 -0.56889,0.0754 -0.44459,0.0274 -0.57067,0.002 -0.81535,-0.16552 z"
         id="path120" /><path
         style="fill:#000000"
         d="m 160.75203,134.49769 c -0.43627,-0.2705 -0.51861,-0.59606 -0.5566,-2.20093 l -0.0346,-1.4605 h -0.28673 c -0.27808,0 -0.28673,-0.0102 -0.28673,-0.33866 0,-0.33061 0.007,-0.33867 0.29633,-0.33867 0.29383,0 0.29633,-0.003 0.29633,-0.37304 0,-0.36855 0.005,-0.37467 0.39609,-0.508 0.21784,-0.0742 0.40834,-0.13496 0.42333,-0.13496 0.015,0 0.0273,0.2286 0.0273,0.508 v 0.508 h 0.59267 0.59266 v 0.33867 0.33866 h -0.59995 -0.59995 l 0.0284,1.40462 c 0.0279,1.37644 0.0326,1.408 0.23795,1.57411 0.16133,0.13054 0.28298,0.15776 0.52916,0.11839 l 0.31968,-0.0511 v 0.33061 c 0,0.22337 -0.0435,0.34728 -0.13393,0.382 -0.27085,0.10394 -1.01043,0.046 -1.24143,-0.0972 z"
         id="path119" /><path
         style="fill:#000000"
         d="m 156.58808,134.51259 c -0.18277,-0.067 -0.34486,-0.13428 -0.36021,-0.14964 -0.0236,-0.0236 0.13402,-0.56144 0.18409,-0.62798 0.009,-0.0122 0.15474,0.0354 0.32337,0.10584 0.39899,0.1667 1.06864,0.16482 1.30922,-0.004 0.18862,-0.13212 0.24728,-0.46232 0.13439,-0.75649 -0.0296,-0.0771 -0.36725,-0.28908 -0.7504,-0.47111 -0.7694,-0.36554 -0.86016,-0.44556 -1.01447,-0.89441 -0.38132,-1.10918 0.95666,-1.9763 2.27567,-1.47481 0.2092,0.0795 0.22743,0.11748 0.17466,0.36354 -0.0849,0.39571 -0.0977,0.40396 -0.41914,0.26965 -0.45095,-0.18842 -0.86309,-0.15639 -1.10539,0.0859 -0.37789,0.37789 -0.22324,0.6482 0.5827,1.01851 0.33356,0.15327 0.72078,0.39974 0.86048,0.54773 0.22756,0.24105 0.254,0.32529 0.254,0.80913 0,0.50123 -0.021,0.56179 -0.29258,0.84194 -0.16091,0.16602 -0.42761,0.33938 -0.59266,0.38523 -0.42352,0.11766 -1.17233,0.094 -1.56373,-0.0494 z"
         id="path118" /><path
         style="fill:#000000"
         d="m 140.94062,134.51359 c -0.45613,-0.24749 -0.52731,-0.52479 -0.55817,-2.17463 l -0.0281,-1.50283 h -0.33181 c -0.33067,0 -0.33181,-0.001 -0.33181,-0.33867 0,-0.33788 7.7e-4,-0.33866 0.33403,-0.33866 h 0.33402 l 0.0258,-0.39326 c 0.0254,-0.3863 0.0325,-0.39526 0.40681,-0.50671 0.20955,-0.0624 0.39052,-0.11404 0.40216,-0.11475 0.0116,-7.1e-4 0.0212,0.22732 0.0212,0.50672 v 0.508 h 0.55033 0.55034 v 0.33866 0.33867 h -0.55034 -0.55033 v 1.35851 c 0,1.34654 0.002,1.36044 0.21789,1.57641 0.17618,0.17618 0.27288,0.20896 0.50524,0.17125 0.27412,-0.0445 0.28995,-0.0328 0.34361,0.2532 0.0398,0.21234 0.0221,0.32146 -0.0608,0.37394 -0.1868,0.11831 -1.02665,0.0817 -1.28009,-0.0558 z"
         id="path117" /><path
         style="fill:#000000"
         d="m 134.65941,134.51759 c -0.18276,-0.0697 -0.34486,-0.13937 -0.36021,-0.15472 -0.0236,-0.0236 0.13402,-0.56144 0.18409,-0.62798 0.009,-0.0122 0.15474,0.0354 0.32338,0.10584 0.39898,0.1667 1.06863,0.16482 1.30921,-0.004 0.18862,-0.13212 0.24728,-0.46232 0.13439,-0.75649 -0.0296,-0.0771 -0.37481,-0.29267 -0.76719,-0.47909 -0.8321,-0.39533 -1.04089,-0.6516 -1.04138,-1.27821 -7.5e-4,-0.96018 1.18215,-1.51541 2.31274,-1.08556 0.24328,0.0925 0.27425,0.20904 0.1455,0.54766 -0.0794,0.20874 -0.089,0.21104 -0.37828,0.0902 -0.45577,-0.19043 -0.86728,-0.15938 -1.11046,0.0838 -0.37863,0.37864 -0.22286,0.64913 0.58612,1.01779 0.80618,0.36739 1.1534,0.75374 1.1534,1.28338 0,0.51016 -0.20335,0.91723 -0.57202,1.14508 -0.38786,0.23971 -1.4259,0.3003 -1.91929,0.11202 z"
         id="path116" /><path
         style="fill:#000000"
         d="m 81.589279,134.51379 c -0.456128,-0.2475 -0.527303,-0.5248 -0.558166,-2.17463 l -0.02811,-1.50284 h -0.33181 c -0.330667,0 -0.33181,-0.001 -0.33181,-0.33866 v -0.33867 h 0.338667 0.338666 v -0.3831 c 0,-0.40647 0.03526,-0.43977 0.613834,-0.57978 l 0.232833,-0.0563 v 0.50961 0.50961 h 0.550333 0.550334 v 0.33867 0.33867 h -0.550334 -0.550333 v 1.35851 c 0,1.34654 0.0019,1.36044 0.217887,1.5764 0.176187,0.17619 0.272882,0.20897 0.505246,0.17126 0.274114,-0.0445 0.289952,-0.0328 0.343608,0.2532 0.03983,0.21234 0.02211,0.32146 -0.06075,0.37393 -0.186799,0.11831 -1.026658,0.0817 -1.280097,-0.0558 z"
         id="path102" /><path
         style="fill:#000000"
         d="m 56.622982,134.52951 c -0.85648,-0.30607 -1.27395,-0.92017 -1.328201,-1.95377 -0.03034,-0.57801 -0.0057,-0.76012 0.153002,-1.12893 0.208037,-0.48359 0.695714,-0.97624 1.173114,-1.18508 0.361184,-0.15799 1.541845,-0.18125 1.887924,-0.0372 0.212366,0.0884 0.220402,0.11225 0.141963,0.42128 l -0.08315,0.32756 -0.485329,-0.11856 c -1.107108,-0.27047 -1.950756,0.40061 -1.955738,1.55568 -0.0048,1.12211 0.924178,1.78234 2.063019,1.46613 0.37228,-0.10337 0.47158,-0.0284 0.473826,0.35747 0.0011,0.1933 -0.04848,0.23531 -0.374863,0.3175 -0.495671,0.12481 -1.283746,0.11436 -1.665572,-0.0221 z"
         id="path97" /><path
         style="fill:#000000"
         d="m 33.521253,134.53751 c -0.115019,-0.0582 -0.295994,-0.23472 -0.402167,-0.39227 -0.183037,-0.27161 -0.193041,-0.36478 -0.193041,-1.79794 v -1.51148 h -0.338667 -0.338666 v -0.33867 c 0,-0.33788 7.73e-4,-0.33866 0.334027,-0.33866 h 0.334028 l 0.02581,-0.39409 c 0.02447,-0.3737 0.04274,-0.39993 0.353084,-0.50696 0.180003,-0.0621 0.360978,-0.092 0.402167,-0.0666 0.04119,0.0255 0.07489,0.25359 0.07489,0.50696 v 0.46067 h 0.550333 0.550334 v 0.33866 0.33867 h -0.550334 -0.550333 v 1.397 c 0,1.30843 0.01133,1.40833 0.178662,1.57566 0.144537,0.14454 0.241568,0.16861 0.508,0.126 l 0.329338,-0.0527 v 0.33061 c 0,0.22337 -0.04344,0.34728 -0.133925,0.382 -0.229911,0.0882 -0.914637,0.0538 -1.133534,-0.0569 z"
         id="path96" /><path
         style="fill:#000000"
         d="m 28.694453,134.55131 c -0.299902,-0.11966 -0.501582,-0.32193 -0.707776,-0.70984 -0.162399,-0.30553 -0.18298,-0.50231 -0.210313,-2.01084 l -0.0303,-1.67216 h 0.422914 0.422915 l 0.02924,1.56026 c 0.02669,1.42405 0.04469,1.58111 0.206189,1.79916 0.402162,0.54298 1.012904,0.55254 1.519901,0.0238 l 0.250485,-0.26123 0.0264,-1.56099 0.0264,-1.56099 h 0.418097 0.418098 v 2.20133 2.20134 h -0.381 -0.381 v -0.30511 -0.3051 l -0.305739,0.26844 c -0.168157,0.14764 -0.399237,0.30399 -0.513512,0.34744 -0.266428,0.10129 -0.939886,0.0927 -1.211008,-0.0155 z"
         id="path95" /><path
         style="fill:#000000"
         d="m 18.721547,134.49032 c -0.24539,-0.087 -0.466969,-0.17905 -0.492398,-0.20448 -0.02543,-0.0254 -0.0046,-0.2007 0.0462,-0.38949 l 0.09243,-0.34326 0.399968,0.17443 c 0.545736,0.23801 1.404604,0.25547 1.768586,0.0359 0.320123,-0.19307 0.451714,-0.45153 0.451714,-0.88724 0,-0.45202 -0.264073,-0.70185 -1.203915,-1.139 -0.954042,-0.44374 -1.378904,-0.86084 -1.46557,-1.43877 -0.197684,-1.31825 1.238887,-2.24739 2.781434,-1.79896 0.505879,0.14707 0.53823,0.19878 0.390137,0.6236 -0.08834,0.25339 -0.09726,0.25707 -0.359834,0.14822 -0.264408,-0.10961 -0.720333,-0.16403 -1.178083,-0.14063 -0.127323,0.006 -0.355057,0.12223 -0.506075,0.25717 -0.227842,0.20357 -0.274578,0.30638 -0.274578,0.60401 0,0.30785 0.0437,0.39606 0.308372,0.6225 0.169604,0.1451 0.572005,0.37055 0.894223,0.501 1.071211,0.43367 1.460556,0.91676 1.460556,1.8122 0,0.67104 -0.314393,1.18506 -0.900564,1.47239 -0.559048,0.27403 -1.577463,0.31562 -2.2126,0.0904 z"
         id="path92" /><path
         style="fill:#000000"
         d="m 143.04459,136.30472 c -0.0281,-0.1121 -0.0735,-0.26211 -0.10087,-0.33337 -0.0346,-0.0901 0.0515,-0.18119 0.28282,-0.29921 0.35619,-0.18171 0.78526,-0.62292 0.98908,-1.01708 0.12089,-0.23378 0.0951,-0.3181 -0.71808,-2.34548 -0.46392,-1.15664 -0.84349,-2.1138 -0.84349,-2.12702 0,-0.0132 0.20681,-0.024 0.45959,-0.024 h 0.45958 l 0.16552,0.4445 c 0.091,0.24447 0.34794,0.95885 0.5709,1.5875 0.22297,0.62865 0.42745,1.16867 0.4544,1.20004 0.027,0.0314 0.29636,-0.683 0.59867,-1.5875 l 0.54965,-1.64454 h 0.45424 c 0.39835,0 0.44707,0.0182 0.396,0.14817 -0.032,0.0815 -0.36245,0.94826 -0.73426,1.92616 -1.1083,2.91489 -1.56685,3.70272 -2.38597,4.09924 -0.46452,0.22487 -0.53528,0.22163 -0.59778,-0.0274 z"
         id="path1" /></g></g></svg>
