<svg width="16" height="20" viewBox="0 0 16 20" fill="none" xmlns="http://www.w3.org/2000/svg">
<path d="M8 11C8.28333 11 8.521 10.904 8.713 10.712C8.90433 10.5207 9 10.2833 9 10V7C9 6.71667 8.90433 6.479 8.713 6.287C8.521 6.09567 8.28333 6 8 6C7.71667 6 7.47933 6.09567 7.288 6.287C7.096 6.479 7 6.71667 7 7V10C7 10.2833 7.096 10.5207 7.288 10.712C7.47933 10.904 7.71667 11 8 11ZM8 14C8.28333 14 8.521 13.904 8.713 13.712C8.90433 13.5207 9 13.2833 9 13C9 12.7167 8.90433 12.479 8.713 12.287C8.521 12.0957 8.28333 12 8 12C7.71667 12 7.47933 12.0957 7.288 12.287C7.096 12.479 7 12.7167 7 13C7 13.2833 7.096 13.5207 7.288 13.712C7.47933 13.904 7.71667 14 8 14ZM1 17C0.716667 17 0.479 16.904 0.287 16.712C0.0956668 16.5207 0 16.2833 0 16C0 15.7167 0.0956668 15.4793 0.287 15.288C0.479 15.096 0.716667 15 1 15H2V8C2 6.61667 2.41667 5.38733 3.25 4.312C4.08333 3.23733 5.16667 2.53333 6.5 2.2V1.5C6.5 1.08333 6.646 0.729333 6.938 0.438C7.22933 0.146 7.58333 0 8 0C8.41667 0 8.77067 0.146 9.062 0.438C9.354 0.729333 9.5 1.08333 9.5 1.5V2.2C10.8333 2.53333 11.9167 3.23733 12.75 4.312C13.5833 5.38733 14 6.61667 14 8V15H15C15.2833 15 15.5207 15.096 15.712 15.288C15.904 15.4793 16 15.7167 16 16C16 16.2833 15.904 16.5207 15.712 16.712C15.5207 16.904 15.2833 17 15 17H1ZM8 20C7.45 20 6.97933 19.8043 6.588 19.413C6.196 19.021 6 18.55 6 18H10C10 18.55 9.80433 19.021 9.413 19.413C9.021 19.8043 8.55 20 8 20Z" fill="white"/>
</svg>
